<ttFont>
<head>
    <!-- Most of this table will be recalculated by the compiler -->
    <tableVersion value="1.0"/>
    <fontRevision value="1.0"/>
    <checkSumAdjustment value="0xba684642"/>
    <magicNumber value="0x5f0f3cf5"/>
    <flags value="00000000 00011111"/>
    <unitsPerEm value="1000"/>
    <created value="Tue Feb 10 12:09:16 2015"/>
    <modified value="Tue Feb 10 12:09:16 2015"/>
    <xMin value="-34"/>
    <yMin value="-184"/>
    <xMax value="1257"/>
    <yMax value="1009"/>
    <macStyle value="00000000 00000000"/>
    <lowestRecPPEM value="8"/>
    <fontDirectionHint value="2"/>
    <indexToLocFormat value="0"/>
    <glyphDataFormat value="0"/>
  </head>
    <TTGlyph name="A" xMin="38" yMin="0" xMax="729" yMax="800">
      <contour>
        <pt x="323" y="320" on="1"/>
        <pt x="470" y="359" on="1"/>
        <pt x="571" y="626" on="1"/>
        <pt x="522" y="589" on="0"/>
        <pt x="367" y="400" on="0"/>
      </contour>
      <contour>
        <pt x="579" y="800" on="1"/>
        <pt x="678" y="772" on="0"/>
        <pt x="729" y="712" on="1"/>
        <pt x="501" y="4" on="1"/>
        <pt x="426" y="20" on="0"/>
        <pt x="385" y="73" on="1"/>
        <pt x="439" y="228" on="1"/>
        <pt x="254" y="189" on="1"/>
        <pt x="147" y="0" on="1"/>
        <pt x="119" y="10" on="0"/>
        <pt x="88" y="37" on="0"/>
        <pt x="38" y="92" on="1"/>
        <pt x="275" y="526" on="0"/>
      </contour>
    </TTGlyph>
    <TTGlyph name="AE" xMin="36" yMin="-5" xMax="982" yMax="801">
      <contour>
        <pt x="253" y="184" on="1"/>
        <pt x="144" y="-5" on="1"/>
        <pt x="105" y="9" on="0"/>
        <pt x="36" y="87" on="1"/>
        <pt x="275" y="522" on="0"/>
        <pt x="578" y="796" on="1"/>
        <pt x="623" y="790" on="0"/>
        <pt x="651" y="768" on="1"/>
        <pt x="765" y="801" on="0"/>
        <pt x="907" y="801" on="1"/>
        <pt x="938" y="801" on="1"/>
        <pt x="982" y="772" on="0"/>
        <pt x="982" y="716" on="1"/>
        <pt x="982" y="692" on="0"/>
        <pt x="973" y="670" on="1"/>
        <pt x="949" y="676" on="0"/>
        <pt x="923" y="676" on="1"/>
        <pt x="866" y="676" on="0"/>
        <pt x="797" y="650" on="1"/>
        <pt x="716" y="458" on="1"/>
        <pt x="756" y="473" on="0"/>
        <pt x="794" y="473" on="1"/>
        <pt x="824" y="473" on="0"/>
        <pt x="850" y="463" on="1"/>
        <pt x="858" y="444" on="0"/>
        <pt x="858" y="424" on="1"/>
        <pt x="858" y="395" on="0"/>
        <pt x="841" y="359" on="1"/>
        <pt x="733" y="359" on="0"/>
        <pt x="668" y="334" on="1"/>
        <pt x="580" y="131" on="1"/>
        <pt x="673" y="148" on="0"/>
        <pt x="694" y="148" on="1"/>
        <pt x="720" y="148" on="0"/>
        <pt x="763" y="143" on="1"/>
        <pt x="798" y="99" on="0"/>
        <pt x="798" y="41" on="1"/>
        <pt x="781" y="48" on="0"/>
        <pt x="756" y="48" on="1"/>
        <pt x="692" y="48" on="0"/>
        <pt x="521" y="16" on="0"/>
        <pt x="500" y="-1" on="1"/>
        <pt x="425" y="15" on="0"/>
        <pt x="384" y="68" on="1"/>
        <pt x="439" y="223" on="1"/>
      </contour>
      <contour>
        <pt x="323" y="315" on="1"/>
        <pt x="469" y="354" on="1"/>
        <pt x="571" y="622" on="1"/>
        <pt x="513" y="579" on="0"/>
        <pt x="366" y="396" on="0"/>
      </contour>
    </TTGlyph>
    <TTGlyph name="Aacute" xMin="38" yMin="0" xMax="786" yMax="1009">
      <contour>
        <pt x="786" y="971" on="1"/>
        <pt x="736" y="905" on="0"/>
        <pt x="675" y="833" on="1"/>
        <pt x="634" y="833" on="0"/>
        <pt x="629" y="864" on="1"/>
        <pt x="643" y="890" on="0"/>
        <pt x="722" y="992" on="0"/>
        <pt x="743" y="1009" on="1"/>
        <pt x="775" y="996" on="0"/>
      </contour>
      <contour>
        <pt x="323" y="320" on="1"/>
        <pt x="470" y="359" on="1"/>
        <pt x="571" y="626" on="1"/>
        <pt x="522" y="589" on="0"/>
        <pt x="367" y="400" on="0"/>
      </contour>
      <contour>
        <pt x="579" y="800" on="1"/>
        <pt x="678" y="772" on="0"/>
        <pt x="729" y="712" on="1"/>
        <pt x="501" y="4" on="1"/>
        <pt x="426" y="20" on="0"/>
        <pt x="385" y="73" on="1"/>
        <pt x="439" y="228" on="1"/>
        <pt x="254" y="189" on="1"/>
        <pt x="147" y="0" on="1"/>
        <pt x="119" y="10" on="0"/>
        <pt x="88" y="37" on="0"/>
        <pt x="38" y="92" on="1"/>
        <pt x="275" y="526" on="0"/>
      </contour>
    </TTGlyph>
    <TTGlyph name="Acircumflex" xMin="38" yMin="0" xMax="761" yMax="1009">
      <contour>
        <pt x="761" y="982" on="1"/>
        <pt x="701" y="805" on="1"/>
        <pt x="680" y="809" on="0"/>
        <pt x="661" y="830" on="1"/>
        <pt x="675" y="864" on="0"/>
        <pt x="693" y="921" on="1"/>
        <pt x="652" y="861" on="0"/>
        <pt x="619" y="803" on="1"/>
        <pt x="599" y="810" on="0"/>
        <pt x="579" y="831" on="1"/>
        <pt x="637" y="939" on="0"/>
        <pt x="716" y="1009" on="1"/>
        <pt x="744" y="1002" on="0"/>
      </contour>
      <contour>
        <pt x="323" y="320" on="1"/>
        <pt x="470" y="359" on="1"/>
        <pt x="571" y="626" on="1"/>
        <pt x="522" y="589" on="0"/>
        <pt x="367" y="400" on="0"/>
      </contour>
      <contour>
        <pt x="579" y="800" on="1"/>
        <pt x="678" y="772" on="0"/>
        <pt x="729" y="712" on="1"/>
        <pt x="501" y="4" on="1"/>
        <pt x="426" y="20" on="0"/>
        <pt x="385" y="73" on="1"/>
        <pt x="439" y="228" on="1"/>
        <pt x="254" y="189" on="1"/>
        <pt x="147" y="0" on="1"/>
        <pt x="119" y="10" on="0"/>
        <pt x="88" y="37" on="0"/>
        <pt x="38" y="92" on="1"/>
        <pt x="275" y="526" on="0"/>
      </contour>
    </TTGlyph>
    <TTGlyph name="Adieresis" xMin="38" yMin="0" xMax="800" yMax="945">
      <contour>
        <pt x="726" y="908" on="1"/>
        <pt x="726" y="945" on="0"/>
        <pt x="800" y="945" on="0"/>
        <pt x="800" y="908" on="1"/>
        <pt x="800" y="870" on="0"/>
        <pt x="726" y="870" on="0"/>
      </contour>
      <contour>
        <pt x="605" y="908" on="1"/>
        <pt x="605" y="945" on="0"/>
        <pt x="643" y="945" on="1"/>
        <pt x="680" y="945" on="0"/>
        <pt x="680" y="908" on="1"/>
        <pt x="680" y="870" on="0"/>
        <pt x="643" y="870" on="1"/>
        <pt x="605" y="870" on="0"/>
      </contour>
      <contour>
        <pt x="323" y="320" on="1"/>
        <pt x="470" y="359" on="1"/>
        <pt x="571" y="626" on="1"/>
        <pt x="522" y="589" on="0"/>
        <pt x="367" y="400" on="0"/>
      </contour>
      <contour>
        <pt x="579" y="800" on="1"/>
        <pt x="678" y="772" on="0"/>
        <pt x="729" y="712" on="1"/>
        <pt x="501" y="4" on="1"/>
        <pt x="426" y="20" on="0"/>
        <pt x="385" y="73" on="1"/>
        <pt x="439" y="228" on="1"/>
        <pt x="254" y="189" on="1"/>
        <pt x="147" y="0" on="1"/>
        <pt x="119" y="10" on="0"/>
        <pt x="88" y="37" on="0"/>
        <pt x="38" y="92" on="1"/>
        <pt x="275" y="526" on="0"/>
      </contour>
    </TTGlyph>
    <TTGlyph name="Agrave" xMin="38" yMin="0" xMax="766" yMax="1009">
      <contour>
        <pt x="728" y="832" on="1"/>
        <pt x="720" y="833" on="1"/>
        <pt x="676" y="888" on="0"/>
        <pt x="609" y="971" on="1"/>
        <pt x="620" y="996" on="0"/>
        <pt x="652" y="1009" on="1"/>
        <pt x="723" y="947" on="0"/>
        <pt x="766" y="864" on="1"/>
        <pt x="755" y="841" on="0"/>
      </contour>
      <contour>
        <pt x="323" y="320" on="1"/>
        <pt x="470" y="359" on="1"/>
        <pt x="571" y="626" on="1"/>
        <pt x="522" y="589" on="0"/>
        <pt x="367" y="400" on="0"/>
      </contour>
      <contour>
        <pt x="579" y="800" on="1"/>
        <pt x="678" y="772" on="0"/>
        <pt x="729" y="712" on="1"/>
        <pt x="501" y="4" on="1"/>
        <pt x="426" y="20" on="0"/>
        <pt x="385" y="73" on="1"/>
        <pt x="439" y="228" on="1"/>
        <pt x="254" y="189" on="1"/>
        <pt x="147" y="0" on="1"/>
        <pt x="119" y="10" on="0"/>
        <pt x="88" y="37" on="0"/>
        <pt x="38" y="92" on="1"/>
        <pt x="275" y="526" on="0"/>
      </contour>
    </TTGlyph>
    <TTGlyph name="Aring" xMin="38" yMin="0" xMax="803" yMax="1009">
      <contour>
        <pt x="643" y="905" on="1"/>
        <pt x="643" y="883" on="0"/>
        <pt x="673" y="852" on="0"/>
        <pt x="694" y="852" on="1"/>
        <pt x="716" y="852" on="0"/>
        <pt x="747" y="883" on="0"/>
        <pt x="747" y="905" on="1"/>
        <pt x="747" y="926" on="0"/>
        <pt x="717" y="957" on="0"/>
        <pt x="695" y="957" on="1"/>
        <pt x="674" y="957" on="0"/>
        <pt x="643" y="926" on="0"/>
      </contour>
      <contour>
        <pt x="697" y="1009" on="1"/>
        <pt x="741" y="1009" on="0"/>
        <pt x="803" y="946" on="0"/>
        <pt x="803" y="858" on="0"/>
        <pt x="740" y="795" on="0"/>
        <pt x="696" y="795" on="1"/>
        <pt x="651" y="795" on="0"/>
        <pt x="590" y="857" on="0"/>
        <pt x="590" y="947" on="0"/>
        <pt x="652" y="1009" on="0"/>
      </contour>
      <contour>
        <pt x="323" y="320" on="1"/>
        <pt x="470" y="359" on="1"/>
        <pt x="571" y="626" on="1"/>
        <pt x="522" y="589" on="0"/>
        <pt x="367" y="400" on="0"/>
      </contour>
      <contour>
        <pt x="579" y="800" on="1"/>
        <pt x="678" y="772" on="0"/>
        <pt x="729" y="712" on="1"/>
        <pt x="501" y="4" on="1"/>
        <pt x="426" y="20" on="0"/>
        <pt x="385" y="73" on="1"/>
        <pt x="439" y="228" on="1"/>
        <pt x="254" y="189" on="1"/>
        <pt x="147" y="0" on="1"/>
        <pt x="119" y="10" on="0"/>
        <pt x="88" y="37" on="0"/>
        <pt x="38" y="92" on="1"/>
        <pt x="275" y="526" on="0"/>
      </contour>
    </TTGlyph>
    <TTGlyph name="Atilde" xMin="38" yMin="0" xMax="835" yMax="957">
      <contour>
        <pt x="545" y="882" on="1"/>
        <pt x="545" y="906" on="0"/>
        <pt x="597" y="952" on="0"/>
        <pt x="622" y="952" on="1"/>
        <pt x="643" y="952" on="0"/>
        <pt x="753" y="902" on="0"/>
        <pt x="757" y="902" on="1"/>
        <pt x="767" y="902" on="0"/>
        <pt x="779" y="919" on="0"/>
        <pt x="783" y="940" on="0"/>
        <pt x="797" y="957" on="0"/>
        <pt x="809" y="957" on="1"/>
        <pt x="835" y="957" on="0"/>
        <pt x="835" y="932" on="1"/>
        <pt x="835" y="894" on="0"/>
        <pt x="789" y="850" on="0"/>
        <pt x="749" y="850" on="1"/>
        <pt x="733" y="850" on="0"/>
        <pt x="643" y="894" on="0"/>
        <pt x="635" y="894" on="1"/>
        <pt x="623" y="894" on="0"/>
        <pt x="580" y="850" on="0"/>
        <pt x="572" y="850" on="1"/>
        <pt x="547" y="850" on="0"/>
      </contour>
      <contour>
        <pt x="323" y="320" on="1"/>
        <pt x="470" y="359" on="1"/>
        <pt x="571" y="626" on="1"/>
        <pt x="522" y="589" on="0"/>
        <pt x="367" y="400" on="0"/>
      </contour>
      <contour>
        <pt x="579" y="800" on="1"/>
        <pt x="678" y="772" on="0"/>
        <pt x="729" y="712" on="1"/>
        <pt x="501" y="4" on="1"/>
        <pt x="426" y="20" on="0"/>
        <pt x="385" y="73" on="1"/>
        <pt x="439" y="228" on="1"/>
        <pt x="254" y="189" on="1"/>
        <pt x="147" y="0" on="1"/>
        <pt x="119" y="10" on="0"/>
        <pt x="88" y="37" on="0"/>
        <pt x="38" y="92" on="1"/>
        <pt x="275" y="526" on="0"/>
      </contour>
    </TTGlyph>
    <TTGlyph name="B" xMin="85" yMin="0" xMax="771" yMax="800">
      <contour>
        <pt x="345" y="390" on="1"/>
        <pt x="450" y="420" on="0"/>
        <pt x="614" y="557" on="0"/>
        <pt x="625" y="626" on="1"/>
        <pt x="600" y="671" on="0"/>
        <pt x="552" y="671" on="1"/>
        <pt x="518" y="671" on="0"/>
        <pt x="454" y="650" on="1"/>
      </contour>
      <contour>
        <pt x="264" y="191" on="1"/>
        <pt x="321" y="99" on="0"/>
        <pt x="405" y="99" on="1"/>
        <pt x="448" y="99" on="0"/>
        <pt x="506" y="153" on="0"/>
        <pt x="506" y="197" on="1"/>
        <pt x="506" y="246" on="0"/>
        <pt x="465" y="302" on="1"/>
        <pt x="462" y="307" on="1"/>
        <pt x="379" y="268" on="0"/>
        <pt x="295" y="263" on="1"/>
      </contour>
      <contour>
        <pt x="377" y="800" on="1"/>
        <pt x="394" y="800" on="0"/>
        <pt x="438" y="765" on="1"/>
        <pt x="529" y="800" on="0"/>
        <pt x="601" y="800" on="1"/>
        <pt x="678" y="800" on="0"/>
        <pt x="771" y="719" on="0"/>
        <pt x="771" y="657" on="1"/>
        <pt x="771" y="589" on="0"/>
        <pt x="655" y="425" on="0"/>
        <pt x="564" y="364" on="1"/>
        <pt x="651" y="302" on="0"/>
        <pt x="651" y="218" on="1"/>
        <pt x="651" y="135" on="0"/>
        <pt x="498" y="0" on="0"/>
        <pt x="402" y="0" on="1"/>
        <pt x="296" y="0" on="0"/>
        <pt x="218" y="83" on="1"/>
        <pt x="186" y="10" on="1"/>
        <pt x="114" y="29" on="0"/>
        <pt x="85" y="85" on="1"/>
        <pt x="306" y="628" on="1"/>
        <pt x="281" y="694" on="1"/>
        <pt x="349" y="731" on="1"/>
      </contour>
    </TTGlyph>
    <TTGlyph name="C" xMin="138" yMin="0" xMax="725" yMax="800">
      <contour>
        <pt x="725" y="656" on="1"/>
        <pt x="725" y="595" on="0"/>
        <pt x="629" y="447" on="0"/>
        <pt x="563" y="404" on="1"/>
        <pt x="518" y="500" on="1"/>
        <pt x="599" y="580" on="0"/>
        <pt x="599" y="639" on="1"/>
        <pt x="599" y="679" on="0"/>
        <pt x="570" y="679" on="1"/>
        <pt x="507" y="679" on="0"/>
        <pt x="408" y="536" on="1"/>
        <pt x="334" y="430" on="0"/>
        <pt x="256" y="246" on="0"/>
        <pt x="256" y="186" on="1"/>
        <pt x="256" y="117" on="0"/>
        <pt x="308" y="117" on="1"/>
        <pt x="370" y="117" on="0"/>
        <pt x="486" y="308" on="1"/>
        <pt x="576" y="245" on="1"/>
        <pt x="445" y="0" on="0"/>
        <pt x="318" y="0" on="1"/>
        <pt x="238" y="0" on="0"/>
        <pt x="138" y="114" on="0"/>
        <pt x="138" y="207" on="1"/>
        <pt x="138" y="311" on="0"/>
        <pt x="203" y="452" on="1"/>
        <pt x="275" y="606" on="0"/>
        <pt x="484" y="800" on="0"/>
        <pt x="583" y="800" on="1"/>
        <pt x="645" y="800" on="0"/>
        <pt x="725" y="719" on="0"/>
      </contour>
    </TTGlyph>
    <TTGlyph name="Ccedilla" xMin="138" yMin="-180" xMax="725" yMax="800">
      <contour>
        <pt x="149" y="-144" on="1"/>
        <pt x="154" y="-135" on="1"/>
        <pt x="194" y="-101" on="0"/>
        <pt x="194" y="-29" on="1"/>
        <pt x="194" y="0" on="0"/>
        <pt x="230" y="0" on="1"/>
        <pt x="267" y="0" on="0"/>
        <pt x="267" y="-39" on="1"/>
        <pt x="267" y="-76" on="0"/>
        <pt x="218" y="-155" on="0"/>
        <pt x="182" y="-180" on="1"/>
        <pt x="156" y="-172" on="0"/>
      </contour>
      <contour>
        <pt x="725" y="656" on="1"/>
        <pt x="725" y="595" on="0"/>
        <pt x="629" y="447" on="0"/>
        <pt x="563" y="404" on="1"/>
        <pt x="518" y="500" on="1"/>
        <pt x="599" y="580" on="0"/>
        <pt x="599" y="639" on="1"/>
        <pt x="599" y="679" on="0"/>
        <pt x="570" y="679" on="1"/>
        <pt x="507" y="679" on="0"/>
        <pt x="408" y="536" on="1"/>
        <pt x="334" y="430" on="0"/>
        <pt x="256" y="246" on="0"/>
        <pt x="256" y="186" on="1"/>
        <pt x="256" y="117" on="0"/>
        <pt x="308" y="117" on="1"/>
        <pt x="370" y="117" on="0"/>
        <pt x="486" y="308" on="1"/>
        <pt x="576" y="245" on="1"/>
        <pt x="445" y="0" on="0"/>
        <pt x="318" y="0" on="1"/>
        <pt x="238" y="0" on="0"/>
        <pt x="138" y="114" on="0"/>
        <pt x="138" y="207" on="1"/>
        <pt x="138" y="311" on="0"/>
        <pt x="203" y="452" on="1"/>
        <pt x="275" y="606" on="0"/>
        <pt x="484" y="800" on="0"/>
        <pt x="583" y="800" on="1"/>
        <pt x="645" y="800" on="0"/>
        <pt x="725" y="719" on="0"/>
      </contour>
    </TTGlyph>
    <TTGlyph name="D" xMin="70" yMin="0" xMax="714" yMax="800">
      <contour>
        <pt x="389" y="541" on="1"/>
        <pt x="234" y="123" on="1"/>
        <pt x="248" y="110" on="0"/>
        <pt x="269" y="110" on="1"/>
        <pt x="326" y="110" on="0"/>
        <pt x="483" y="289" on="0"/>
        <pt x="593" y="521" on="0"/>
        <pt x="593" y="594" on="1"/>
        <pt x="593" y="634" on="0"/>
        <pt x="561" y="679" on="0"/>
        <pt x="533" y="679" on="1"/>
        <pt x="474" y="679" on="0"/>
      </contour>
      <contour>
        <pt x="158" y="14" on="1"/>
        <pt x="89" y="41" on="0"/>
        <pt x="77" y="53" on="1"/>
        <pt x="72" y="59" on="0"/>
        <pt x="70" y="66" on="1"/>
        <pt x="345" y="800" on="1"/>
        <pt x="380" y="793" on="0"/>
        <pt x="385" y="790" on="1"/>
        <pt x="391" y="787" on="0"/>
        <pt x="439" y="753" on="1"/>
        <pt x="519" y="797" on="0"/>
        <pt x="579" y="797" on="1"/>
        <pt x="643" y="797" on="0"/>
        <pt x="714" y="695" on="0"/>
        <pt x="714" y="604" on="1"/>
        <pt x="714" y="483" on="0"/>
        <pt x="655" y="342" on="1"/>
        <pt x="589" y="185" on="0"/>
        <pt x="375" y="0" on="0"/>
        <pt x="255" y="0" on="1"/>
        <pt x="208" y="0" on="0"/>
      </contour>
    </TTGlyph>
    <TTGlyph name="E" xMin="89" yMin="0" xMax="654" yMax="801">
      <contour>
        <pt x="297" y="759" on="1"/>
        <pt x="400" y="789" on="0"/>
        <pt x="466" y="801" on="0"/>
        <pt x="530" y="801" on="1"/>
        <pt x="574" y="801" on="0"/>
        <pt x="610" y="800" on="1"/>
        <pt x="627" y="790" on="0"/>
        <pt x="654" y="739" on="0"/>
        <pt x="654" y="715" on="1"/>
        <pt x="654" y="692" on="0"/>
        <pt x="645" y="670" on="1"/>
        <pt x="627" y="673" on="0"/>
        <pt x="603" y="673" on="1"/>
        <pt x="536" y="673" on="0"/>
        <pt x="468" y="649" on="1"/>
        <pt x="389" y="458" on="1"/>
        <pt x="425" y="471" on="0"/>
        <pt x="466" y="471" on="1"/>
        <pt x="496" y="471" on="0"/>
        <pt x="523" y="463" on="1"/>
        <pt x="529" y="450" on="0"/>
        <pt x="529" y="430" on="1"/>
        <pt x="529" y="396" on="0"/>
        <pt x="513" y="358" on="1"/>
        <pt x="487" y="358" on="1"/>
        <pt x="402" y="358" on="0"/>
        <pt x="341" y="333" on="1"/>
        <pt x="252" y="130" on="1"/>
        <pt x="306" y="148" on="0"/>
        <pt x="366" y="148" on="1"/>
        <pt x="396" y="148" on="0"/>
        <pt x="435" y="142" on="1"/>
        <pt x="469" y="102" on="0"/>
        <pt x="469" y="52" on="1"/>
        <pt x="469" y="41" on="1"/>
        <pt x="465" y="48" on="0"/>
        <pt x="429" y="48" on="1"/>
        <pt x="369" y="48" on="0"/>
        <pt x="183" y="13" on="0"/>
        <pt x="176" y="0" on="1"/>
        <pt x="115" y="19" on="0"/>
        <pt x="89" y="71" on="1"/>
        <pt x="190" y="318" on="1"/>
        <pt x="176" y="416" on="0"/>
        <pt x="176" y="424" on="1"/>
        <pt x="203" y="435" on="0"/>
        <pt x="239" y="438" on="1"/>
        <pt x="318" y="631" on="1"/>
        <pt x="300" y="702" on="0"/>
      </contour>
    </TTGlyph>
    <TTGlyph name="Eacute" xMin="89" yMin="0" xMax="654" yMax="1009">
      <contour>
        <pt x="618" y="971" on="1"/>
        <pt x="568" y="905" on="0"/>
        <pt x="507" y="833" on="1"/>
        <pt x="466" y="833" on="0"/>
        <pt x="461" y="864" on="1"/>
        <pt x="475" y="890" on="0"/>
        <pt x="554" y="992" on="0"/>
        <pt x="575" y="1009" on="1"/>
        <pt x="607" y="996" on="0"/>
      </contour>
      <contour>
        <pt x="297" y="759" on="1"/>
        <pt x="400" y="789" on="0"/>
        <pt x="466" y="801" on="0"/>
        <pt x="530" y="801" on="1"/>
        <pt x="574" y="801" on="0"/>
        <pt x="610" y="800" on="1"/>
        <pt x="627" y="790" on="0"/>
        <pt x="654" y="739" on="0"/>
        <pt x="654" y="715" on="1"/>
        <pt x="654" y="692" on="0"/>
        <pt x="645" y="670" on="1"/>
        <pt x="627" y="673" on="0"/>
        <pt x="603" y="673" on="1"/>
        <pt x="536" y="673" on="0"/>
        <pt x="468" y="649" on="1"/>
        <pt x="389" y="458" on="1"/>
        <pt x="425" y="471" on="0"/>
        <pt x="466" y="471" on="1"/>
        <pt x="496" y="471" on="0"/>
        <pt x="523" y="463" on="1"/>
        <pt x="529" y="450" on="0"/>
        <pt x="529" y="430" on="1"/>
        <pt x="529" y="396" on="0"/>
        <pt x="513" y="358" on="1"/>
        <pt x="487" y="358" on="1"/>
        <pt x="402" y="358" on="0"/>
        <pt x="341" y="333" on="1"/>
        <pt x="252" y="130" on="1"/>
        <pt x="306" y="148" on="0"/>
        <pt x="366" y="148" on="1"/>
        <pt x="396" y="148" on="0"/>
        <pt x="435" y="142" on="1"/>
        <pt x="469" y="102" on="0"/>
        <pt x="469" y="52" on="1"/>
        <pt x="469" y="41" on="1"/>
        <pt x="465" y="48" on="0"/>
        <pt x="429" y="48" on="1"/>
        <pt x="369" y="48" on="0"/>
        <pt x="183" y="13" on="0"/>
        <pt x="176" y="0" on="1"/>
        <pt x="115" y="19" on="0"/>
        <pt x="89" y="71" on="1"/>
        <pt x="190" y="318" on="1"/>
        <pt x="176" y="416" on="0"/>
        <pt x="176" y="424" on="1"/>
        <pt x="203" y="435" on="0"/>
        <pt x="239" y="438" on="1"/>
        <pt x="318" y="631" on="1"/>
        <pt x="300" y="702" on="0"/>
      </contour>
    </TTGlyph>
    <TTGlyph name="Ecircumflex" xMin="89" yMin="0" xMax="654" yMax="1009">
      <contour>
        <pt x="650" y="982" on="1"/>
        <pt x="590" y="805" on="1"/>
        <pt x="569" y="809" on="0"/>
        <pt x="550" y="830" on="1"/>
        <pt x="564" y="864" on="0"/>
        <pt x="582" y="921" on="1"/>
        <pt x="541" y="861" on="0"/>
        <pt x="508" y="803" on="1"/>
        <pt x="488" y="810" on="0"/>
        <pt x="468" y="831" on="1"/>
        <pt x="526" y="939" on="0"/>
        <pt x="605" y="1009" on="1"/>
        <pt x="634" y="1002" on="0"/>
      </contour>
      <contour>
        <pt x="297" y="759" on="1"/>
        <pt x="400" y="789" on="0"/>
        <pt x="466" y="801" on="0"/>
        <pt x="530" y="801" on="1"/>
        <pt x="574" y="801" on="0"/>
        <pt x="610" y="800" on="1"/>
        <pt x="627" y="790" on="0"/>
        <pt x="654" y="739" on="0"/>
        <pt x="654" y="715" on="1"/>
        <pt x="654" y="692" on="0"/>
        <pt x="645" y="670" on="1"/>
        <pt x="627" y="673" on="0"/>
        <pt x="603" y="673" on="1"/>
        <pt x="536" y="673" on="0"/>
        <pt x="468" y="649" on="1"/>
        <pt x="389" y="458" on="1"/>
        <pt x="425" y="471" on="0"/>
        <pt x="466" y="471" on="1"/>
        <pt x="496" y="471" on="0"/>
        <pt x="523" y="463" on="1"/>
        <pt x="529" y="450" on="0"/>
        <pt x="529" y="430" on="1"/>
        <pt x="529" y="396" on="0"/>
        <pt x="513" y="358" on="1"/>
        <pt x="487" y="358" on="1"/>
        <pt x="402" y="358" on="0"/>
        <pt x="341" y="333" on="1"/>
        <pt x="252" y="130" on="1"/>
        <pt x="306" y="148" on="0"/>
        <pt x="366" y="148" on="1"/>
        <pt x="396" y="148" on="0"/>
        <pt x="435" y="142" on="1"/>
        <pt x="469" y="102" on="0"/>
        <pt x="469" y="52" on="1"/>
        <pt x="469" y="41" on="1"/>
        <pt x="465" y="48" on="0"/>
        <pt x="429" y="48" on="1"/>
        <pt x="369" y="48" on="0"/>
        <pt x="183" y="13" on="0"/>
        <pt x="176" y="0" on="1"/>
        <pt x="115" y="19" on="0"/>
        <pt x="89" y="71" on="1"/>
        <pt x="190" y="318" on="1"/>
        <pt x="176" y="416" on="0"/>
        <pt x="176" y="424" on="1"/>
        <pt x="203" y="435" on="0"/>
        <pt x="239" y="438" on="1"/>
        <pt x="318" y="631" on="1"/>
        <pt x="300" y="702" on="0"/>
      </contour>
    </TTGlyph>
    <TTGlyph name="Edieresis" xMin="89" yMin="0" xMax="664" yMax="945">
      <contour>
        <pt x="590" y="908" on="1"/>
        <pt x="590" y="945" on="0"/>
        <pt x="664" y="945" on="0"/>
        <pt x="664" y="908" on="1"/>
        <pt x="664" y="870" on="0"/>
        <pt x="590" y="870" on="0"/>
      </contour>
      <contour>
        <pt x="469" y="908" on="1"/>
        <pt x="469" y="945" on="0"/>
        <pt x="507" y="945" on="1"/>
        <pt x="544" y="945" on="0"/>
        <pt x="544" y="908" on="1"/>
        <pt x="544" y="870" on="0"/>
        <pt x="507" y="870" on="1"/>
        <pt x="469" y="870" on="0"/>
      </contour>
      <contour>
        <pt x="297" y="759" on="1"/>
        <pt x="400" y="789" on="0"/>
        <pt x="466" y="801" on="0"/>
        <pt x="530" y="801" on="1"/>
        <pt x="574" y="801" on="0"/>
        <pt x="610" y="800" on="1"/>
        <pt x="627" y="790" on="0"/>
        <pt x="654" y="739" on="0"/>
        <pt x="654" y="715" on="1"/>
        <pt x="654" y="692" on="0"/>
        <pt x="645" y="670" on="1"/>
        <pt x="627" y="673" on="0"/>
        <pt x="603" y="673" on="1"/>
        <pt x="536" y="673" on="0"/>
        <pt x="468" y="649" on="1"/>
        <pt x="389" y="458" on="1"/>
        <pt x="425" y="471" on="0"/>
        <pt x="466" y="471" on="1"/>
        <pt x="496" y="471" on="0"/>
        <pt x="523" y="463" on="1"/>
        <pt x="529" y="450" on="0"/>
        <pt x="529" y="430" on="1"/>
        <pt x="529" y="396" on="0"/>
        <pt x="513" y="358" on="1"/>
        <pt x="487" y="358" on="1"/>
        <pt x="402" y="358" on="0"/>
        <pt x="341" y="333" on="1"/>
        <pt x="252" y="130" on="1"/>
        <pt x="306" y="148" on="0"/>
        <pt x="366" y="148" on="1"/>
        <pt x="396" y="148" on="0"/>
        <pt x="435" y="142" on="1"/>
        <pt x="469" y="102" on="0"/>
        <pt x="469" y="52" on="1"/>
        <pt x="469" y="41" on="1"/>
        <pt x="465" y="48" on="0"/>
        <pt x="429" y="48" on="1"/>
        <pt x="369" y="48" on="0"/>
        <pt x="183" y="13" on="0"/>
        <pt x="176" y="0" on="1"/>
        <pt x="115" y="19" on="0"/>
        <pt x="89" y="71" on="1"/>
        <pt x="190" y="318" on="1"/>
        <pt x="176" y="416" on="0"/>
        <pt x="176" y="424" on="1"/>
        <pt x="203" y="435" on="0"/>
        <pt x="239" y="438" on="1"/>
        <pt x="318" y="631" on="1"/>
        <pt x="300" y="702" on="0"/>
      </contour>
    </TTGlyph>
    <TTGlyph name="Egrave" xMin="89" yMin="0" xMax="654" yMax="1009">
      <contour>
        <pt x="601" y="832" on="1"/>
        <pt x="593" y="833" on="1"/>
        <pt x="550" y="888" on="0"/>
        <pt x="482" y="971" on="1"/>
        <pt x="493" y="996" on="0"/>
        <pt x="525" y="1009" on="1"/>
        <pt x="596" y="947" on="0"/>
        <pt x="639" y="864" on="1"/>
        <pt x="628" y="841" on="0"/>
      </contour>
      <contour>
        <pt x="297" y="759" on="1"/>
        <pt x="400" y="789" on="0"/>
        <pt x="466" y="801" on="0"/>
        <pt x="530" y="801" on="1"/>
        <pt x="574" y="801" on="0"/>
        <pt x="610" y="800" on="1"/>
        <pt x="627" y="790" on="0"/>
        <pt x="654" y="739" on="0"/>
        <pt x="654" y="715" on="1"/>
        <pt x="654" y="692" on="0"/>
        <pt x="645" y="670" on="1"/>
        <pt x="627" y="673" on="0"/>
        <pt x="603" y="673" on="1"/>
        <pt x="536" y="673" on="0"/>
        <pt x="468" y="649" on="1"/>
        <pt x="389" y="458" on="1"/>
        <pt x="425" y="471" on="0"/>
        <pt x="466" y="471" on="1"/>
        <pt x="496" y="471" on="0"/>
        <pt x="523" y="463" on="1"/>
        <pt x="529" y="450" on="0"/>
        <pt x="529" y="430" on="1"/>
        <pt x="529" y="396" on="0"/>
        <pt x="513" y="358" on="1"/>
        <pt x="487" y="358" on="1"/>
        <pt x="402" y="358" on="0"/>
        <pt x="341" y="333" on="1"/>
        <pt x="252" y="130" on="1"/>
        <pt x="306" y="148" on="0"/>
        <pt x="366" y="148" on="1"/>
        <pt x="396" y="148" on="0"/>
        <pt x="435" y="142" on="1"/>
        <pt x="469" y="102" on="0"/>
        <pt x="469" y="52" on="1"/>
        <pt x="469" y="41" on="1"/>
        <pt x="465" y="48" on="0"/>
        <pt x="429" y="48" on="1"/>
        <pt x="369" y="48" on="0"/>
        <pt x="183" y="13" on="0"/>
        <pt x="176" y="0" on="1"/>
        <pt x="115" y="19" on="0"/>
        <pt x="89" y="71" on="1"/>
        <pt x="190" y="318" on="1"/>
        <pt x="176" y="416" on="0"/>
        <pt x="176" y="424" on="1"/>
        <pt x="203" y="435" on="0"/>
        <pt x="239" y="438" on="1"/>
        <pt x="318" y="631" on="1"/>
        <pt x="300" y="702" on="0"/>
      </contour>
    </TTGlyph>
    <TTGlyph name="Eth" xMin="96" yMin="-13" xMax="742" yMax="794">
      <contour>
        <pt x="243" y="471" on="1"/>
        <pt x="367" y="794" on="1"/>
        <pt x="403" y="788" on="0"/>
        <pt x="462" y="748" on="1"/>
        <pt x="544" y="794" on="0"/>
        <pt x="606" y="794" on="1"/>
        <pt x="742" y="794" on="0"/>
        <pt x="742" y="602" on="1"/>
        <pt x="742" y="527" on="0"/>
        <pt x="698" y="359" on="0"/>
        <pt x="612" y="198" on="0"/>
        <pt x="498" y="67" on="0"/>
        <pt x="342" y="-13" on="0"/>
        <pt x="258" y="-13" on="1"/>
        <pt x="236" y="-13" on="0"/>
        <pt x="186" y="-5" on="1"/>
        <pt x="130" y="24" on="0"/>
        <pt x="96" y="88" on="1"/>
        <pt x="194" y="343" on="1"/>
        <pt x="176" y="342" on="1"/>
        <pt x="173" y="342" on="1"/>
        <pt x="134" y="342" on="0"/>
        <pt x="134" y="430" on="1"/>
        <pt x="148" y="452" on="0"/>
      </contour>
      <contour>
        <pt x="354" y="380" on="1"/>
        <pt x="256" y="117" on="1"/>
        <pt x="258" y="117" on="0"/>
        <pt x="266" y="116" on="0"/>
        <pt x="268" y="116" on="1"/>
        <pt x="326" y="116" on="0"/>
        <pt x="456" y="223" on="0"/>
        <pt x="554" y="371" on="0"/>
        <pt x="618" y="530" on="0"/>
        <pt x="618" y="582" on="1"/>
        <pt x="618" y="674" on="0"/>
        <pt x="555" y="674" on="1"/>
        <pt x="518" y="674" on="0"/>
        <pt x="415" y="554" on="0"/>
        <pt x="398" y="499" on="1"/>
        <pt x="422" y="503" on="0"/>
        <pt x="445" y="503" on="1"/>
        <pt x="461" y="503" on="0"/>
        <pt x="477" y="471" on="0"/>
        <pt x="477" y="452" on="1"/>
        <pt x="477" y="429" on="0"/>
        <pt x="467" y="403" on="1"/>
        <pt x="414" y="394" on="0"/>
      </contour>
    </TTGlyph>
    <TTGlyph name="Euro" xMin="129" yMin="0" xMax="787" yMax="801">
      <contour>
        <pt x="471" y="567" on="1"/>
        <pt x="531" y="569" on="1"/>
        <pt x="550" y="532" on="0"/>
        <pt x="550" y="506" on="1"/>
        <pt x="550" y="488" on="0"/>
        <pt x="542" y="467" on="1"/>
        <pt x="456" y="453" on="0"/>
        <pt x="387" y="437" on="1"/>
        <pt x="367" y="400" on="1"/>
        <pt x="444" y="413" on="0"/>
        <pt x="478" y="413" on="1"/>
        <pt x="496" y="374" on="0"/>
        <pt x="496" y="350" on="1"/>
        <pt x="496" y="332" on="0"/>
        <pt x="488" y="311" on="1"/>
        <pt x="394" y="295" on="0"/>
        <pt x="313" y="275" on="1"/>
        <pt x="297" y="226" on="0"/>
        <pt x="297" y="187" on="1"/>
        <pt x="297" y="159" on="0"/>
        <pt x="341" y="117" on="0"/>
        <pt x="369" y="117" on="1"/>
        <pt x="404" y="117" on="0"/>
        <pt x="522" y="233" on="0"/>
        <pt x="567" y="308" on="1"/>
        <pt x="617" y="306" on="0"/>
        <pt x="658" y="246" on="1"/>
        <pt x="597" y="133" on="0"/>
        <pt x="447" y="0" on="0"/>
        <pt x="378" y="0" on="1"/>
        <pt x="285" y="0" on="0"/>
        <pt x="179" y="109" on="0"/>
        <pt x="179" y="206" on="1"/>
        <pt x="179" y="220" on="0"/>
        <pt x="181" y="250" on="1"/>
        <pt x="149" y="250" on="0"/>
        <pt x="129" y="279" on="0"/>
        <pt x="129" y="328" on="1"/>
        <pt x="129" y="356" on="0"/>
        <pt x="211" y="372" on="1"/>
        <pt x="218" y="394" on="0"/>
        <pt x="229" y="421" on="1"/>
        <pt x="200" y="421" on="0"/>
        <pt x="182" y="455" on="0"/>
        <pt x="182" y="509" on="1"/>
        <pt x="182" y="526" on="0"/>
        <pt x="292" y="546" on="1"/>
        <pt x="450" y="801" on="0"/>
        <pt x="624" y="801" on="1"/>
        <pt x="689" y="801" on="0"/>
        <pt x="787" y="718" on="0"/>
        <pt x="787" y="657" on="1"/>
        <pt x="787" y="591" on="0"/>
        <pt x="734" y="514" on="1"/>
        <pt x="730" y="502" on="0"/>
        <pt x="713" y="502" on="1"/>
        <pt x="688" y="502" on="0"/>
        <pt x="624" y="534" on="0"/>
        <pt x="624" y="546" on="1"/>
        <pt x="624" y="551" on="0"/>
        <pt x="632" y="559" on="1"/>
        <pt x="660" y="593" on="0"/>
        <pt x="660" y="646" on="1"/>
        <pt x="660" y="681" on="0"/>
        <pt x="622" y="681" on="1"/>
        <pt x="557" y="681" on="0"/>
      </contour>
    </TTGlyph>
    <TTGlyph name="F" xMin="92" yMin="0" xMax="645" yMax="801">
      <contour>
        <pt x="296" y="760" on="1"/>
        <pt x="401" y="790" on="0"/>
        <pt x="463" y="801" on="0"/>
        <pt x="524" y="801" on="1"/>
        <pt x="567" y="801" on="0"/>
        <pt x="602" y="800" on="1"/>
        <pt x="617" y="791" on="0"/>
        <pt x="645" y="741" on="0"/>
        <pt x="645" y="717" on="1"/>
        <pt x="645" y="696" on="0"/>
        <pt x="636" y="673" on="1"/>
        <pt x="622" y="675" on="0"/>
        <pt x="609" y="675" on="1"/>
        <pt x="553" y="675" on="0"/>
        <pt x="463" y="652" on="1"/>
        <pt x="386" y="465" on="1"/>
        <pt x="419" y="478" on="0"/>
        <pt x="461" y="478" on="1"/>
        <pt x="466" y="478" on="1"/>
        <pt x="486" y="478" on="0"/>
        <pt x="506" y="475" on="0"/>
        <pt x="523" y="456" on="0"/>
        <pt x="523" y="438" on="1"/>
        <pt x="523" y="404" on="0"/>
        <pt x="507" y="368" on="1"/>
        <pt x="487" y="368" on="1"/>
        <pt x="396" y="368" on="0"/>
        <pt x="339" y="343" on="1"/>
        <pt x="259" y="144" on="1"/>
        <pt x="201" y="0" on="0"/>
        <pt x="189" y="0" on="1"/>
        <pt x="178" y="0" on="0"/>
        <pt x="102" y="68" on="0"/>
        <pt x="92" y="86" on="1"/>
        <pt x="191" y="329" on="1"/>
        <pt x="177" y="424" on="0"/>
        <pt x="177" y="431" on="1"/>
        <pt x="197" y="442" on="0"/>
        <pt x="239" y="445" on="1"/>
        <pt x="316" y="634" on="1"/>
        <pt x="299" y="706" on="0"/>
      </contour>
    </TTGlyph>
    <TTGlyph name="G" xMin="146" yMin="0" xMax="701" yMax="800">
      <contour>
        <pt x="638" y="782" on="1"/>
        <pt x="701" y="731" on="0"/>
        <pt x="701" y="657" on="1"/>
        <pt x="701" y="597" on="0"/>
        <pt x="613" y="452" on="0"/>
        <pt x="554" y="409" on="1"/>
        <pt x="513" y="489" on="1"/>
        <pt x="558" y="555" on="0"/>
        <pt x="580" y="600" on="0"/>
        <pt x="580" y="627" on="1"/>
        <pt x="580" y="680" on="0"/>
        <pt x="546" y="680" on="1"/>
        <pt x="501" y="680" on="0"/>
        <pt x="362" y="494" on="0"/>
        <pt x="257" y="251" on="0"/>
        <pt x="257" y="177" on="1"/>
        <pt x="257" y="139" on="0"/>
        <pt x="286" y="95" on="0"/>
        <pt x="309" y="95" on="1"/>
        <pt x="340" y="95" on="0"/>
        <pt x="409" y="166" on="0"/>
        <pt x="431" y="221" on="1"/>
        <pt x="410" y="217" on="0"/>
        <pt x="373" y="203" on="1"/>
        <pt x="366" y="227" on="0"/>
        <pt x="366" y="249" on="1"/>
        <pt x="366" y="272" on="0"/>
        <pt x="375" y="295" on="1"/>
        <pt x="499" y="360" on="0"/>
        <pt x="651" y="360" on="1"/>
        <pt x="658" y="350" on="0"/>
        <pt x="658" y="318" on="1"/>
        <pt x="658" y="294" on="0"/>
        <pt x="650" y="268" on="1"/>
        <pt x="606" y="267" on="0"/>
        <pt x="573" y="255" on="1"/>
        <pt x="532" y="139" on="0"/>
        <pt x="398" y="0" on="0"/>
        <pt x="325" y="0" on="1"/>
        <pt x="244" y="0" on="0"/>
        <pt x="146" y="117" on="0"/>
        <pt x="146" y="213" on="1"/>
        <pt x="146" y="346" on="0"/>
        <pt x="285" y="625" on="0"/>
        <pt x="480" y="800" on="0"/>
        <pt x="563" y="800" on="1"/>
        <pt x="602" y="800" on="0"/>
      </contour>
    </TTGlyph>
    <TTGlyph name="H" xMin="53" yMin="0" xMax="768" yMax="800">
      <contour>
        <pt x="349" y="800" on="1"/>
        <pt x="367" y="798" on="0"/>
        <pt x="436" y="745" on="0"/>
        <pt x="455" y="716" on="1"/>
        <pt x="333" y="423" on="1"/>
        <pt x="506" y="423" on="1"/>
        <pt x="660" y="800" on="1"/>
        <pt x="678" y="798" on="0"/>
        <pt x="748" y="745" on="0"/>
        <pt x="768" y="716" on="1"/>
        <pt x="470" y="0" on="1"/>
        <pt x="393" y="21" on="0"/>
        <pt x="364" y="75" on="1"/>
        <pt x="458" y="306" on="1"/>
        <pt x="284" y="306" on="1"/>
        <pt x="158" y="0" on="1"/>
        <pt x="80" y="22" on="0"/>
        <pt x="53" y="75" on="1"/>
      </contour>
    </TTGlyph>
    <TTGlyph name="I" xMin="52" yMin="0" xMax="454" yMax="800">
      <contour>
        <pt x="348" y="800" on="1"/>
        <pt x="366" y="798" on="0"/>
        <pt x="435" y="745" on="0"/>
        <pt x="454" y="716" on="1"/>
        <pt x="157" y="0" on="1"/>
        <pt x="79" y="21" on="0"/>
        <pt x="52" y="75" on="1"/>
      </contour>
    </TTGlyph>
    <TTGlyph name="Iacute" xMin="52" yMin="0" xMax="571" yMax="1009">
      <contour>
        <pt x="571" y="971" on="1"/>
        <pt x="522" y="905" on="0"/>
        <pt x="460" y="833" on="1"/>
        <pt x="419" y="833" on="0"/>
        <pt x="414" y="864" on="1"/>
        <pt x="428" y="890" on="0"/>
        <pt x="507" y="992" on="0"/>
        <pt x="528" y="1009" on="1"/>
        <pt x="560" y="996" on="0"/>
      </contour>
      <contour>
        <pt x="348" y="800" on="1"/>
        <pt x="366" y="798" on="0"/>
        <pt x="435" y="745" on="0"/>
        <pt x="454" y="716" on="1"/>
        <pt x="157" y="0" on="1"/>
        <pt x="79" y="21" on="0"/>
        <pt x="52" y="75" on="1"/>
      </contour>
    </TTGlyph>
    <TTGlyph name="Icircumflex" xMin="52" yMin="0" xMax="544" yMax="1009">
      <contour>
        <pt x="544" y="982" on="1"/>
        <pt x="484" y="805" on="1"/>
        <pt x="463" y="809" on="0"/>
        <pt x="444" y="830" on="1"/>
        <pt x="458" y="864" on="0"/>
        <pt x="476" y="921" on="1"/>
        <pt x="435" y="861" on="0"/>
        <pt x="402" y="803" on="1"/>
        <pt x="382" y="810" on="0"/>
        <pt x="362" y="831" on="1"/>
        <pt x="420" y="939" on="0"/>
        <pt x="499" y="1009" on="1"/>
        <pt x="528" y="1002" on="0"/>
      </contour>
      <contour>
        <pt x="348" y="800" on="1"/>
        <pt x="366" y="798" on="0"/>
        <pt x="435" y="745" on="0"/>
        <pt x="454" y="716" on="1"/>
        <pt x="157" y="0" on="1"/>
        <pt x="79" y="21" on="0"/>
        <pt x="52" y="75" on="1"/>
      </contour>
    </TTGlyph>
    <TTGlyph name="Idieresis" xMin="52" yMin="0" xMax="558" yMax="945">
      <contour>
        <pt x="484" y="908" on="1"/>
        <pt x="484" y="945" on="0"/>
        <pt x="558" y="945" on="0"/>
        <pt x="558" y="908" on="1"/>
        <pt x="558" y="870" on="0"/>
        <pt x="484" y="870" on="0"/>
      </contour>
      <contour>
        <pt x="363" y="908" on="1"/>
        <pt x="363" y="945" on="0"/>
        <pt x="401" y="945" on="1"/>
        <pt x="438" y="945" on="0"/>
        <pt x="438" y="908" on="1"/>
        <pt x="438" y="870" on="0"/>
        <pt x="401" y="870" on="1"/>
        <pt x="363" y="870" on="0"/>
      </contour>
      <contour>
        <pt x="348" y="800" on="1"/>
        <pt x="366" y="798" on="0"/>
        <pt x="435" y="745" on="0"/>
        <pt x="454" y="716" on="1"/>
        <pt x="157" y="0" on="1"/>
        <pt x="79" y="21" on="0"/>
        <pt x="52" y="75" on="1"/>
      </contour>
    </TTGlyph>
    <TTGlyph name="Igrave" xMin="52" yMin="0" xMax="513" yMax="1009">
      <contour>
        <pt x="475" y="832" on="1"/>
        <pt x="467" y="833" on="1"/>
        <pt x="424" y="888" on="0"/>
        <pt x="356" y="971" on="1"/>
        <pt x="367" y="996" on="0"/>
        <pt x="399" y="1009" on="1"/>
        <pt x="470" y="947" on="0"/>
        <pt x="513" y="864" on="1"/>
        <pt x="502" y="841" on="0"/>
      </contour>
      <contour>
        <pt x="348" y="800" on="1"/>
        <pt x="366" y="798" on="0"/>
        <pt x="435" y="745" on="0"/>
        <pt x="454" y="716" on="1"/>
        <pt x="157" y="0" on="1"/>
        <pt x="79" y="21" on="0"/>
        <pt x="52" y="75" on="1"/>
      </contour>
    </TTGlyph>
    <TTGlyph name="J" xMin="79" yMin="0" xMax="686" yMax="800">
      <contour>
        <pt x="140" y="23" on="1"/>
        <pt x="79" y="56" on="0"/>
        <pt x="79" y="119" on="1"/>
        <pt x="79" y="149" on="0"/>
        <pt x="94" y="203" on="1"/>
        <pt x="123" y="305" on="1"/>
        <pt x="133" y="307" on="0"/>
        <pt x="157" y="307" on="1"/>
        <pt x="203" y="307" on="0"/>
        <pt x="254" y="291" on="1"/>
        <pt x="254" y="289" on="0"/>
        <pt x="235" y="244" on="0"/>
        <pt x="217" y="190" on="0"/>
        <pt x="217" y="177" on="1"/>
        <pt x="217" y="160" on="0"/>
        <pt x="233" y="126" on="0"/>
        <pt x="246" y="126" on="1"/>
        <pt x="304" y="126" on="0"/>
        <pt x="447" y="462" on="1"/>
        <pt x="536" y="673" on="0"/>
        <pt x="579" y="800" on="1"/>
        <pt x="595" y="800" on="0"/>
        <pt x="666" y="746" on="0"/>
        <pt x="686" y="716" on="1"/>
        <pt x="586" y="448" on="1"/>
        <pt x="496" y="217" on="0"/>
        <pt x="325" y="0" on="0"/>
        <pt x="231" y="0" on="1"/>
        <pt x="186" y="0" on="0"/>
      </contour>
    </TTGlyph>
    <TTGlyph name="K" xMin="55" yMin="0" xMax="750" yMax="800">
      <contour>
        <pt x="679" y="784" on="1"/>
        <pt x="693" y="778" on="0"/>
        <pt x="742" y="698" on="0"/>
        <pt x="750" y="666" on="1"/>
        <pt x="575" y="535" on="0"/>
        <pt x="375" y="320" on="1"/>
        <pt x="462" y="184" on="0"/>
        <pt x="580" y="41" on="1"/>
        <pt x="571" y="28" on="0"/>
        <pt x="488" y="0" on="0"/>
        <pt x="453" y="0" on="1"/>
        <pt x="381" y="76" on="0"/>
        <pt x="284" y="235" on="1"/>
        <pt x="227" y="171" on="1"/>
        <pt x="158" y="4" on="1"/>
        <pt x="83" y="25" on="0"/>
        <pt x="55" y="80" on="1"/>
        <pt x="350" y="800" on="1"/>
        <pt x="366" y="800" on="0"/>
        <pt x="434" y="746" on="0"/>
        <pt x="455" y="716" on="1"/>
        <pt x="353" y="472" on="1"/>
        <pt x="514" y="649" on="0"/>
      </contour>
    </TTGlyph>
    <TTGlyph name="L" xMin="67" yMin="0" xMax="478" yMax="800">
      <contour>
        <pt x="430" y="49" on="1"/>
        <pt x="105" y="0" on="1"/>
        <pt x="89" y="12" on="0"/>
        <pt x="67" y="70" on="0"/>
        <pt x="67" y="97" on="1"/>
        <pt x="67" y="121" on="0"/>
        <pt x="78" y="134" on="1"/>
        <pt x="369" y="800" on="1"/>
        <pt x="446" y="779" on="0"/>
        <pt x="478" y="720" on="1"/>
        <pt x="249" y="160" on="1"/>
        <pt x="413" y="179" on="1"/>
        <pt x="431" y="128" on="0"/>
        <pt x="431" y="75" on="1"/>
        <pt x="431" y="58" on="0"/>
      </contour>
    </TTGlyph>
    <TTGlyph name="M" xMin="31" yMin="0" xMax="930" yMax="800">
      <contour>
        <pt x="773" y="800" on="1"/>
        <pt x="874" y="783" on="0"/>
        <pt x="930" y="732" on="1"/>
        <pt x="789" y="15" on="1"/>
        <pt x="777" y="15" on="1"/>
        <pt x="703" y="15" on="0"/>
        <pt x="660" y="67" on="1"/>
        <pt x="667" y="103" on="0"/>
        <pt x="704" y="272" on="0"/>
        <pt x="713" y="319" on="1"/>
        <pt x="767" y="602" on="1"/>
        <pt x="731" y="556" on="0"/>
        <pt x="534" y="156" on="0"/>
        <pt x="473" y="3" on="1"/>
        <pt x="466" y="0" on="0"/>
        <pt x="456" y="0" on="1"/>
        <pt x="428" y="0" on="0"/>
        <pt x="350" y="37" on="0"/>
        <pt x="336" y="57" on="1"/>
        <pt x="350" y="98" on="0"/>
        <pt x="389" y="269" on="0"/>
        <pt x="418" y="424" on="0"/>
        <pt x="442" y="560" on="0"/>
        <pt x="443" y="563" on="1"/>
        <pt x="401" y="509" on="0"/>
        <pt x="210" y="133" on="0"/>
        <pt x="159" y="6" on="1"/>
        <pt x="95" y="21" on="0"/>
        <pt x="31" y="77" on="1"/>
        <pt x="192" y="477" on="0"/>
        <pt x="453" y="779" on="1"/>
        <pt x="554" y="762" on="0"/>
        <pt x="610" y="711" on="1"/>
        <pt x="554" y="457" on="1"/>
        <pt x="720" y="741" on="0"/>
      </contour>
    </TTGlyph>
    <TTGlyph name="N" xMin="57" yMin="0" xMax="838" yMax="800">
      <contour>
        <pt x="715" y="800" on="1"/>
        <pt x="757" y="789" on="0"/>
        <pt x="769" y="783" on="0"/>
        <pt x="838" y="744" on="1"/>
        <pt x="794" y="678" on="0"/>
        <pt x="660" y="376" on="1"/>
        <pt x="546" y="118" on="0"/>
        <pt x="506" y="10" on="1"/>
        <pt x="489" y="5" on="0"/>
        <pt x="468" y="5" on="1"/>
        <pt x="426" y="5" on="0"/>
        <pt x="344" y="31" on="0"/>
        <pt x="343" y="48" on="1"/>
        <pt x="383" y="481" on="1"/>
        <pt x="353" y="437" on="0"/>
        <pt x="232" y="140" on="0"/>
        <pt x="188" y="0" on="1"/>
        <pt x="120" y="11" on="0"/>
        <pt x="57" y="57" on="1"/>
        <pt x="219" y="512" on="0"/>
        <pt x="399" y="795" on="1"/>
        <pt x="496" y="788" on="0"/>
        <pt x="553" y="744" on="1"/>
        <pt x="510" y="351" on="1"/>
        <pt x="604" y="582" on="1"/>
        <pt x="674" y="746" on="0"/>
      </contour>
    </TTGlyph>
    <TTGlyph name="Ntilde" xMin="57" yMin="0" xMax="838" yMax="957">
      <contour>
        <pt x="496" y="882" on="1"/>
        <pt x="496" y="906" on="0"/>
        <pt x="548" y="952" on="0"/>
        <pt x="573" y="952" on="1"/>
        <pt x="594" y="952" on="0"/>
        <pt x="704" y="902" on="0"/>
        <pt x="708" y="902" on="1"/>
        <pt x="718" y="902" on="0"/>
        <pt x="730" y="919" on="0"/>
        <pt x="734" y="940" on="0"/>
        <pt x="748" y="957" on="0"/>
        <pt x="760" y="957" on="1"/>
        <pt x="786" y="957" on="0"/>
        <pt x="786" y="932" on="1"/>
        <pt x="786" y="894" on="0"/>
        <pt x="740" y="850" on="0"/>
        <pt x="700" y="850" on="1"/>
        <pt x="684" y="850" on="0"/>
        <pt x="594" y="894" on="0"/>
        <pt x="586" y="894" on="1"/>
        <pt x="574" y="894" on="0"/>
        <pt x="531" y="850" on="0"/>
        <pt x="523" y="850" on="1"/>
        <pt x="498" y="850" on="0"/>
      </contour>
      <contour>
        <pt x="715" y="800" on="1"/>
        <pt x="757" y="789" on="0"/>
        <pt x="769" y="783" on="0"/>
        <pt x="838" y="744" on="1"/>
        <pt x="794" y="678" on="0"/>
        <pt x="660" y="376" on="1"/>
        <pt x="546" y="118" on="0"/>
        <pt x="506" y="10" on="1"/>
        <pt x="489" y="5" on="0"/>
        <pt x="468" y="5" on="1"/>
        <pt x="426" y="5" on="0"/>
        <pt x="344" y="31" on="0"/>
        <pt x="343" y="48" on="1"/>
        <pt x="383" y="481" on="1"/>
        <pt x="353" y="437" on="0"/>
        <pt x="232" y="140" on="0"/>
        <pt x="188" y="0" on="1"/>
        <pt x="120" y="11" on="0"/>
        <pt x="57" y="57" on="1"/>
        <pt x="219" y="512" on="0"/>
        <pt x="399" y="795" on="1"/>
        <pt x="496" y="788" on="0"/>
        <pt x="553" y="744" on="1"/>
        <pt x="510" y="351" on="1"/>
        <pt x="604" y="582" on="1"/>
        <pt x="674" y="746" on="0"/>
      </contour>
    </TTGlyph>
    <TTGlyph name="O" xMin="153" yMin="0" xMax="740" yMax="800">
      <contour>
        <pt x="587" y="665" on="1"/>
        <pt x="575" y="693" on="0"/>
        <pt x="553" y="693" on="1"/>
        <pt x="510" y="693" on="0"/>
        <pt x="384" y="509" on="0"/>
        <pt x="292" y="272" on="0"/>
        <pt x="292" y="199" on="1"/>
        <pt x="292" y="161" on="0"/>
        <pt x="315" y="114" on="0"/>
        <pt x="335" y="114" on="1"/>
        <pt x="378" y="114" on="0"/>
        <pt x="505" y="295" on="0"/>
        <pt x="597" y="532" on="0"/>
        <pt x="597" y="607" on="1"/>
        <pt x="597" y="642" on="0"/>
      </contour>
      <contour>
        <pt x="634" y="780" on="1"/>
        <pt x="740" y="726" on="0"/>
        <pt x="740" y="571" on="1"/>
        <pt x="740" y="471" on="0"/>
        <pt x="661" y="260" on="0"/>
        <pt x="542" y="102" on="0"/>
        <pt x="399" y="0" on="0"/>
        <pt x="338" y="0" on="1"/>
        <pt x="252" y="0" on="0"/>
        <pt x="153" y="126" on="0"/>
        <pt x="153" y="226" on="1"/>
        <pt x="153" y="327" on="0"/>
        <pt x="232" y="539" on="0"/>
        <pt x="351" y="698" on="0"/>
        <pt x="494" y="800" on="0"/>
        <pt x="555" y="800" on="1"/>
        <pt x="596" y="800" on="0"/>
      </contour>
    </TTGlyph>
    <TTGlyph name="OE" xMin="164" yMin="0" xMax="1022" yMax="802">
      <contour>
        <pt x="543" y="425" on="1"/>
        <pt x="546" y="425" on="1"/>
        <pt x="583" y="533" on="0"/>
        <pt x="583" y="610" on="1"/>
        <pt x="583" y="686" on="0"/>
        <pt x="544" y="686" on="1"/>
        <pt x="462" y="686" on="0"/>
        <pt x="369" y="477" on="1"/>
        <pt x="287" y="292" on="0"/>
        <pt x="287" y="187" on="1"/>
        <pt x="287" y="109" on="0"/>
        <pt x="327" y="109" on="1"/>
        <pt x="369" y="109" on="0"/>
        <pt x="495" y="290" on="0"/>
        <pt x="543" y="418" on="1"/>
      </contour>
      <contour>
        <pt x="664" y="744" on="1"/>
        <pt x="663" y="760" on="1"/>
        <pt x="828" y="802" on="0"/>
        <pt x="915" y="802" on="1"/>
        <pt x="921" y="802" on="1"/>
        <pt x="978" y="801" on="1"/>
        <pt x="1022" y="772" on="0"/>
        <pt x="1022" y="716" on="1"/>
        <pt x="1022" y="692" on="0"/>
        <pt x="1013" y="670" on="1"/>
        <pt x="989" y="676" on="0"/>
        <pt x="964" y="676" on="1"/>
        <pt x="906" y="676" on="0"/>
        <pt x="837" y="650" on="1"/>
        <pt x="757" y="458" on="1"/>
        <pt x="798" y="473" on="0"/>
        <pt x="834" y="473" on="1"/>
        <pt x="841" y="473" on="1"/>
        <pt x="854" y="473" on="0"/>
        <pt x="869" y="471" on="0"/>
        <pt x="888" y="463" on="0"/>
        <pt x="897" y="445" on="0"/>
        <pt x="897" y="430" on="1"/>
        <pt x="897" y="397" on="0"/>
        <pt x="881" y="359" on="1"/>
        <pt x="863" y="359" on="1"/>
        <pt x="772" y="359" on="0"/>
        <pt x="709" y="334" on="1"/>
        <pt x="620" y="131" on="1"/>
        <pt x="713" y="148" on="0"/>
        <pt x="734" y="148" on="1"/>
        <pt x="761" y="148" on="0"/>
        <pt x="803" y="143" on="1"/>
        <pt x="838" y="99" on="0"/>
        <pt x="838" y="48" on="1"/>
        <pt x="838" y="41" on="1"/>
        <pt x="823" y="48" on="0"/>
        <pt x="797" y="48" on="1"/>
        <pt x="742" y="48" on="0"/>
        <pt x="550" y="14" on="0"/>
        <pt x="543" y="0" on="1"/>
        <pt x="495" y="16" on="0"/>
        <pt x="470" y="49" on="1"/>
        <pt x="402" y="0" on="0"/>
        <pt x="334" y="0" on="1"/>
        <pt x="256" y="0" on="0"/>
        <pt x="164" y="137" on="0"/>
        <pt x="164" y="247" on="1"/>
        <pt x="164" y="413" on="0"/>
        <pt x="271" y="595" on="1"/>
        <pt x="391" y="801" on="0"/>
        <pt x="547" y="801" on="1"/>
        <pt x="620" y="801" on="0"/>
      </contour>
    </TTGlyph>
    <TTGlyph name="Oacute" xMin="153" yMin="0" xMax="765" yMax="1009">
      <contour>
        <pt x="765" y="971" on="1"/>
        <pt x="716" y="905" on="0"/>
        <pt x="654" y="833" on="1"/>
        <pt x="613" y="833" on="0"/>
        <pt x="608" y="864" on="1"/>
        <pt x="622" y="890" on="0"/>
        <pt x="701" y="992" on="0"/>
        <pt x="722" y="1009" on="1"/>
        <pt x="754" y="996" on="0"/>
      </contour>
      <contour>
        <pt x="587" y="665" on="1"/>
        <pt x="575" y="693" on="0"/>
        <pt x="553" y="693" on="1"/>
        <pt x="510" y="693" on="0"/>
        <pt x="384" y="509" on="0"/>
        <pt x="292" y="272" on="0"/>
        <pt x="292" y="199" on="1"/>
        <pt x="292" y="161" on="0"/>
        <pt x="315" y="114" on="0"/>
        <pt x="335" y="114" on="1"/>
        <pt x="378" y="114" on="0"/>
        <pt x="505" y="295" on="0"/>
        <pt x="597" y="532" on="0"/>
        <pt x="597" y="607" on="1"/>
        <pt x="597" y="642" on="0"/>
      </contour>
      <contour>
        <pt x="634" y="780" on="1"/>
        <pt x="740" y="726" on="0"/>
        <pt x="740" y="571" on="1"/>
        <pt x="740" y="471" on="0"/>
        <pt x="661" y="260" on="0"/>
        <pt x="542" y="102" on="0"/>
        <pt x="399" y="0" on="0"/>
        <pt x="338" y="0" on="1"/>
        <pt x="252" y="0" on="0"/>
        <pt x="153" y="126" on="0"/>
        <pt x="153" y="226" on="1"/>
        <pt x="153" y="327" on="0"/>
        <pt x="232" y="539" on="0"/>
        <pt x="351" y="698" on="0"/>
        <pt x="494" y="800" on="0"/>
        <pt x="555" y="800" on="1"/>
        <pt x="596" y="800" on="0"/>
      </contour>
    </TTGlyph>
    <TTGlyph name="Ocircumflex" xMin="153" yMin="0" xMax="740" yMax="1009">
      <contour>
        <pt x="737" y="982" on="1"/>
        <pt x="677" y="805" on="1"/>
        <pt x="656" y="809" on="0"/>
        <pt x="637" y="830" on="1"/>
        <pt x="651" y="864" on="0"/>
        <pt x="669" y="921" on="1"/>
        <pt x="628" y="861" on="0"/>
        <pt x="595" y="803" on="1"/>
        <pt x="575" y="810" on="0"/>
        <pt x="555" y="831" on="1"/>
        <pt x="613" y="939" on="0"/>
        <pt x="692" y="1009" on="1"/>
        <pt x="720" y="1002" on="0"/>
      </contour>
      <contour>
        <pt x="587" y="665" on="1"/>
        <pt x="575" y="693" on="0"/>
        <pt x="553" y="693" on="1"/>
        <pt x="510" y="693" on="0"/>
        <pt x="384" y="509" on="0"/>
        <pt x="292" y="272" on="0"/>
        <pt x="292" y="199" on="1"/>
        <pt x="292" y="161" on="0"/>
        <pt x="315" y="114" on="0"/>
        <pt x="335" y="114" on="1"/>
        <pt x="378" y="114" on="0"/>
        <pt x="505" y="295" on="0"/>
        <pt x="597" y="532" on="0"/>
        <pt x="597" y="607" on="1"/>
        <pt x="597" y="642" on="0"/>
      </contour>
      <contour>
        <pt x="634" y="780" on="1"/>
        <pt x="740" y="726" on="0"/>
        <pt x="740" y="571" on="1"/>
        <pt x="740" y="471" on="0"/>
        <pt x="661" y="260" on="0"/>
        <pt x="542" y="102" on="0"/>
        <pt x="399" y="0" on="0"/>
        <pt x="338" y="0" on="1"/>
        <pt x="252" y="0" on="0"/>
        <pt x="153" y="126" on="0"/>
        <pt x="153" y="226" on="1"/>
        <pt x="153" y="327" on="0"/>
        <pt x="232" y="539" on="0"/>
        <pt x="351" y="698" on="0"/>
        <pt x="494" y="800" on="0"/>
        <pt x="555" y="800" on="1"/>
        <pt x="596" y="800" on="0"/>
      </contour>
    </TTGlyph>
    <TTGlyph name="Odieresis" xMin="153" yMin="0" xMax="750" yMax="945">
      <contour>
        <pt x="676" y="908" on="1"/>
        <pt x="676" y="945" on="0"/>
        <pt x="750" y="945" on="0"/>
        <pt x="750" y="908" on="1"/>
        <pt x="750" y="870" on="0"/>
        <pt x="676" y="870" on="0"/>
      </contour>
      <contour>
        <pt x="555" y="908" on="1"/>
        <pt x="555" y="945" on="0"/>
        <pt x="593" y="945" on="1"/>
        <pt x="630" y="945" on="0"/>
        <pt x="630" y="908" on="1"/>
        <pt x="630" y="870" on="0"/>
        <pt x="593" y="870" on="1"/>
        <pt x="555" y="870" on="0"/>
      </contour>
      <contour>
        <pt x="587" y="665" on="1"/>
        <pt x="575" y="693" on="0"/>
        <pt x="553" y="693" on="1"/>
        <pt x="510" y="693" on="0"/>
        <pt x="384" y="509" on="0"/>
        <pt x="292" y="272" on="0"/>
        <pt x="292" y="199" on="1"/>
        <pt x="292" y="161" on="0"/>
        <pt x="315" y="114" on="0"/>
        <pt x="335" y="114" on="1"/>
        <pt x="378" y="114" on="0"/>
        <pt x="505" y="295" on="0"/>
        <pt x="597" y="532" on="0"/>
        <pt x="597" y="607" on="1"/>
        <pt x="597" y="642" on="0"/>
      </contour>
      <contour>
        <pt x="634" y="780" on="1"/>
        <pt x="740" y="726" on="0"/>
        <pt x="740" y="571" on="1"/>
        <pt x="740" y="471" on="0"/>
        <pt x="661" y="260" on="0"/>
        <pt x="542" y="102" on="0"/>
        <pt x="399" y="0" on="0"/>
        <pt x="338" y="0" on="1"/>
        <pt x="252" y="0" on="0"/>
        <pt x="153" y="126" on="0"/>
        <pt x="153" y="226" on="1"/>
        <pt x="153" y="327" on="0"/>
        <pt x="232" y="539" on="0"/>
        <pt x="351" y="698" on="0"/>
        <pt x="494" y="800" on="0"/>
        <pt x="555" y="800" on="1"/>
        <pt x="596" y="800" on="0"/>
      </contour>
    </TTGlyph>
    <TTGlyph name="Ograve" xMin="153" yMin="0" xMax="740" yMax="1009">
      <contour>
        <pt x="667" y="832" on="1"/>
        <pt x="659" y="833" on="1"/>
        <pt x="616" y="888" on="0"/>
        <pt x="548" y="971" on="1"/>
        <pt x="559" y="996" on="0"/>
        <pt x="591" y="1009" on="1"/>
        <pt x="662" y="947" on="0"/>
        <pt x="705" y="864" on="1"/>
        <pt x="694" y="841" on="0"/>
      </contour>
      <contour>
        <pt x="587" y="665" on="1"/>
        <pt x="575" y="693" on="0"/>
        <pt x="553" y="693" on="1"/>
        <pt x="510" y="693" on="0"/>
        <pt x="384" y="509" on="0"/>
        <pt x="292" y="272" on="0"/>
        <pt x="292" y="199" on="1"/>
        <pt x="292" y="161" on="0"/>
        <pt x="315" y="114" on="0"/>
        <pt x="335" y="114" on="1"/>
        <pt x="378" y="114" on="0"/>
        <pt x="505" y="295" on="0"/>
        <pt x="597" y="532" on="0"/>
        <pt x="597" y="607" on="1"/>
        <pt x="597" y="642" on="0"/>
      </contour>
      <contour>
        <pt x="634" y="780" on="1"/>
        <pt x="740" y="726" on="0"/>
        <pt x="740" y="571" on="1"/>
        <pt x="740" y="471" on="0"/>
        <pt x="661" y="260" on="0"/>
        <pt x="542" y="102" on="0"/>
        <pt x="399" y="0" on="0"/>
        <pt x="338" y="0" on="1"/>
        <pt x="252" y="0" on="0"/>
        <pt x="153" y="126" on="0"/>
        <pt x="153" y="226" on="1"/>
        <pt x="153" y="327" on="0"/>
        <pt x="232" y="539" on="0"/>
        <pt x="351" y="698" on="0"/>
        <pt x="494" y="800" on="0"/>
        <pt x="555" y="800" on="1"/>
        <pt x="596" y="800" on="0"/>
      </contour>
    </TTGlyph>
    <TTGlyph name="Oslash" xMin="164" yMin="-3" xMax="718" yMax="804">
      <contour>
        <pt x="606" y="789" on="1"/>
        <pt x="620" y="804" on="0"/>
        <pt x="635" y="804" on="1"/>
        <pt x="647" y="804" on="0"/>
        <pt x="667" y="776" on="0"/>
        <pt x="667" y="760" on="1"/>
        <pt x="667" y="749" on="0"/>
        <pt x="663" y="745" on="1"/>
        <pt x="718" y="678" on="0"/>
        <pt x="718" y="554" on="1"/>
        <pt x="718" y="386" on="0"/>
        <pt x="611" y="204" on="1"/>
        <pt x="489" y="0" on="0"/>
        <pt x="334" y="0" on="1"/>
        <pt x="309" y="0" on="0"/>
        <pt x="285" y="8" on="1"/>
        <pt x="271" y="-3" on="0"/>
        <pt x="261" y="-3" on="1"/>
        <pt x="231" y="-3" on="0"/>
        <pt x="231" y="24" on="1"/>
        <pt x="231" y="27" on="0"/>
        <pt x="233" y="39" on="1"/>
        <pt x="164" y="105" on="0"/>
        <pt x="164" y="247" on="1"/>
        <pt x="164" y="414" on="0"/>
        <pt x="271" y="595" on="1"/>
        <pt x="391" y="801" on="0"/>
        <pt x="547" y="801" on="1"/>
        <pt x="579" y="801" on="0"/>
      </contour>
      <contour>
        <pt x="582" y="585" on="1"/>
        <pt x="344" y="113" on="1"/>
        <pt x="419" y="139" on="0"/>
        <pt x="502" y="322" on="1"/>
        <pt x="574" y="480" on="0"/>
      </contour>
      <contour>
        <pt x="552" y="685" on="1"/>
        <pt x="544" y="686" on="1"/>
        <pt x="462" y="684" on="0"/>
        <pt x="369" y="477" on="1"/>
        <pt x="287" y="292" on="0"/>
        <pt x="287" y="187" on="1"/>
        <pt x="287" y="172" on="0"/>
        <pt x="289" y="154" on="1"/>
      </contour>
    </TTGlyph>
    <TTGlyph name="Otilde" xMin="153" yMin="0" xMax="802" yMax="957">
      <contour>
        <pt x="512" y="882" on="1"/>
        <pt x="512" y="906" on="0"/>
        <pt x="564" y="952" on="0"/>
        <pt x="589" y="952" on="1"/>
        <pt x="610" y="952" on="0"/>
        <pt x="720" y="902" on="0"/>
        <pt x="724" y="902" on="1"/>
        <pt x="734" y="902" on="0"/>
        <pt x="746" y="919" on="0"/>
        <pt x="750" y="940" on="0"/>
        <pt x="764" y="957" on="0"/>
        <pt x="776" y="957" on="1"/>
        <pt x="802" y="957" on="0"/>
        <pt x="802" y="932" on="1"/>
        <pt x="802" y="894" on="0"/>
        <pt x="756" y="850" on="0"/>
        <pt x="716" y="850" on="1"/>
        <pt x="700" y="850" on="0"/>
        <pt x="610" y="894" on="0"/>
        <pt x="602" y="894" on="1"/>
        <pt x="590" y="894" on="0"/>
        <pt x="547" y="850" on="0"/>
        <pt x="539" y="850" on="1"/>
        <pt x="514" y="850" on="0"/>
      </contour>
      <contour>
        <pt x="587" y="665" on="1"/>
        <pt x="575" y="693" on="0"/>
        <pt x="553" y="693" on="1"/>
        <pt x="510" y="693" on="0"/>
        <pt x="384" y="509" on="0"/>
        <pt x="292" y="272" on="0"/>
        <pt x="292" y="199" on="1"/>
        <pt x="292" y="161" on="0"/>
        <pt x="315" y="114" on="0"/>
        <pt x="335" y="114" on="1"/>
        <pt x="378" y="114" on="0"/>
        <pt x="505" y="295" on="0"/>
        <pt x="597" y="532" on="0"/>
        <pt x="597" y="607" on="1"/>
        <pt x="597" y="642" on="0"/>
      </contour>
      <contour>
        <pt x="634" y="780" on="1"/>
        <pt x="740" y="726" on="0"/>
        <pt x="740" y="571" on="1"/>
        <pt x="740" y="471" on="0"/>
        <pt x="661" y="260" on="0"/>
        <pt x="542" y="102" on="0"/>
        <pt x="399" y="0" on="0"/>
        <pt x="338" y="0" on="1"/>
        <pt x="252" y="0" on="0"/>
        <pt x="153" y="126" on="0"/>
        <pt x="153" y="226" on="1"/>
        <pt x="153" y="327" on="0"/>
        <pt x="232" y="539" on="0"/>
        <pt x="351" y="698" on="0"/>
        <pt x="494" y="800" on="0"/>
        <pt x="555" y="800" on="1"/>
        <pt x="596" y="800" on="0"/>
      </contour>
    </TTGlyph>
    <TTGlyph name="P" xMin="83" yMin="0" xMax="779" yMax="800">
      <contour>
        <pt x="347" y="385" on="1"/>
        <pt x="455" y="418" on="0"/>
        <pt x="618" y="553" on="0"/>
        <pt x="631" y="623" on="1"/>
        <pt x="604" y="669" on="0"/>
        <pt x="556" y="669" on="1"/>
        <pt x="522" y="669" on="0"/>
        <pt x="457" y="648" on="1"/>
      </contour>
      <contour>
        <pt x="379" y="800" on="1"/>
        <pt x="397" y="800" on="0"/>
        <pt x="441" y="764" on="1"/>
        <pt x="532" y="800" on="0"/>
        <pt x="606" y="800" on="1"/>
        <pt x="683" y="800" on="0"/>
        <pt x="779" y="717" on="0"/>
        <pt x="779" y="655" on="1"/>
        <pt x="779" y="569" on="0"/>
        <pt x="621" y="383" on="0"/>
        <pt x="394" y="261" on="0"/>
        <pt x="296" y="257" on="1"/>
        <pt x="188" y="0" on="1"/>
        <pt x="110" y="21" on="0"/>
        <pt x="83" y="76" on="1"/>
        <pt x="307" y="625" on="1"/>
        <pt x="282" y="693" on="1"/>
        <pt x="351" y="730" on="1"/>
      </contour>
    </TTGlyph>
    <TTGlyph name="Q" xMin="149" yMin="-113" xMax="733" yMax="800">
      <contour>
        <pt x="524" y="100" on="1"/>
        <pt x="626" y="-1" on="1"/>
        <pt x="618" y="-65" on="0"/>
        <pt x="558" y="-113" on="1"/>
        <pt x="419" y="25" on="1"/>
        <pt x="374" y="4" on="0"/>
        <pt x="331" y="4" on="1"/>
        <pt x="245" y="4" on="0"/>
        <pt x="149" y="129" on="0"/>
        <pt x="149" y="229" on="1"/>
        <pt x="149" y="328" on="0"/>
        <pt x="228" y="539" on="0"/>
        <pt x="346" y="698" on="0"/>
        <pt x="488" y="800" on="0"/>
        <pt x="549" y="800" on="1"/>
        <pt x="634" y="800" on="0"/>
        <pt x="733" y="672" on="0"/>
        <pt x="733" y="573" on="1"/>
        <pt x="733" y="459" on="0"/>
        <pt x="612" y="187" on="0"/>
      </contour>
      <contour>
        <pt x="581" y="666" on="1"/>
        <pt x="569" y="693" on="0"/>
        <pt x="548" y="693" on="1"/>
        <pt x="506" y="693" on="0"/>
        <pt x="380" y="511" on="0"/>
        <pt x="288" y="275" on="0"/>
        <pt x="288" y="202" on="1"/>
        <pt x="288" y="165" on="0"/>
        <pt x="312" y="118" on="0"/>
        <pt x="331" y="118" on="1"/>
        <pt x="374" y="118" on="0"/>
        <pt x="500" y="300" on="0"/>
        <pt x="591" y="535" on="0"/>
        <pt x="591" y="608" on="1"/>
        <pt x="591" y="643" on="0"/>
      </contour>
    </TTGlyph>
    <TTGlyph name="R" xMin="81" yMin="0" xMax="777" yMax="800">
      <contour>
        <pt x="347" y="385" on="1"/>
        <pt x="454" y="418" on="0"/>
        <pt x="617" y="554" on="0"/>
        <pt x="630" y="623" on="1"/>
        <pt x="602" y="669" on="0"/>
        <pt x="554" y="669" on="1"/>
        <pt x="518" y="669" on="0"/>
        <pt x="455" y="647" on="1"/>
        <pt x="346" y="386" on="1"/>
      </contour>
      <contour>
        <pt x="377" y="800" on="1"/>
        <pt x="396" y="800" on="0"/>
        <pt x="440" y="764" on="1"/>
        <pt x="531" y="799" on="0"/>
        <pt x="604" y="799" on="1"/>
        <pt x="681" y="799" on="0"/>
        <pt x="777" y="717" on="0"/>
        <pt x="777" y="655" on="1"/>
        <pt x="777" y="556" on="0"/>
        <pt x="553" y="327" on="0"/>
        <pt x="413" y="280" on="1"/>
        <pt x="447" y="182" on="0"/>
        <pt x="549" y="63" on="1"/>
        <pt x="502" y="0" on="0"/>
        <pt x="439" y="0" on="1"/>
        <pt x="338" y="118" on="0"/>
        <pt x="287" y="241" on="1"/>
        <pt x="187" y="0" on="1"/>
        <pt x="109" y="21" on="0"/>
        <pt x="81" y="76" on="1"/>
        <pt x="306" y="625" on="1"/>
        <pt x="281" y="692" on="1"/>
        <pt x="349" y="729" on="1"/>
      </contour>
    </TTGlyph>
    <TTGlyph name="S" xMin="114" yMin="0" xMax="692" yMax="799">
      <contour>
        <pt x="624" y="781" on="1"/>
        <pt x="692" y="746" on="0"/>
        <pt x="692" y="675" on="1"/>
        <pt x="692" y="585" on="0"/>
        <pt x="609" y="496" on="1"/>
        <pt x="508" y="550" on="1"/>
        <pt x="561" y="635" on="0"/>
        <pt x="561" y="657" on="1"/>
        <pt x="561" y="674" on="0"/>
        <pt x="542" y="674" on="1"/>
        <pt x="497" y="674" on="0"/>
        <pt x="373" y="552" on="0"/>
        <pt x="373" y="501" on="1"/>
        <pt x="373" y="467" on="0"/>
        <pt x="401" y="443" on="1"/>
        <pt x="503" y="393" on="0"/>
        <pt x="595" y="278" on="0"/>
        <pt x="596" y="196" on="1"/>
        <pt x="581" y="102" on="0"/>
        <pt x="436" y="0" on="0"/>
        <pt x="320" y="0" on="1"/>
        <pt x="203" y="0" on="0"/>
        <pt x="115" y="44" on="1"/>
        <pt x="114" y="49" on="0"/>
        <pt x="114" y="58" on="1"/>
        <pt x="114" y="95" on="0"/>
        <pt x="153" y="155" on="1"/>
        <pt x="269" y="115" on="0"/>
        <pt x="343" y="115" on="1"/>
        <pt x="450" y="115" on="0"/>
        <pt x="450" y="204" on="1"/>
        <pt x="450" y="248" on="0"/>
        <pt x="400" y="289" on="1"/>
        <pt x="388" y="298" on="0"/>
        <pt x="292" y="354" on="1"/>
        <pt x="219" y="397" on="0"/>
        <pt x="219" y="469" on="1"/>
        <pt x="219" y="507" on="0"/>
        <pt x="245" y="565" on="1"/>
        <pt x="292" y="669" on="0"/>
        <pt x="459" y="799" on="0"/>
        <pt x="543" y="799" on="1"/>
        <pt x="586" y="799" on="0"/>
      </contour>
    </TTGlyph>
    <TTGlyph name="Scaron" xMin="114" yMin="0" xMax="737" yMax="1009">
      <contour>
        <pt x="654" y="984" on="1"/>
        <pt x="623" y="892" on="1"/>
        <pt x="658" y="939" on="0"/>
        <pt x="697" y="1009" on="1"/>
        <pt x="717" y="1002" on="0"/>
        <pt x="737" y="981" on="1"/>
        <pt x="676" y="871" on="0"/>
        <pt x="602" y="803" on="1"/>
        <pt x="574" y="812" on="0"/>
        <pt x="555" y="830" on="1"/>
        <pt x="614" y="1009" on="1"/>
        <pt x="638" y="1005" on="0"/>
      </contour>
      <contour>
        <pt x="624" y="781" on="1"/>
        <pt x="692" y="746" on="0"/>
        <pt x="692" y="675" on="1"/>
        <pt x="692" y="585" on="0"/>
        <pt x="609" y="496" on="1"/>
        <pt x="508" y="550" on="1"/>
        <pt x="561" y="635" on="0"/>
        <pt x="561" y="657" on="1"/>
        <pt x="561" y="674" on="0"/>
        <pt x="542" y="674" on="1"/>
        <pt x="497" y="674" on="0"/>
        <pt x="373" y="552" on="0"/>
        <pt x="373" y="501" on="1"/>
        <pt x="373" y="467" on="0"/>
        <pt x="401" y="443" on="1"/>
        <pt x="503" y="393" on="0"/>
        <pt x="595" y="278" on="0"/>
        <pt x="596" y="196" on="1"/>
        <pt x="581" y="102" on="0"/>
        <pt x="436" y="0" on="0"/>
        <pt x="320" y="0" on="1"/>
        <pt x="203" y="0" on="0"/>
        <pt x="115" y="44" on="1"/>
        <pt x="114" y="49" on="0"/>
        <pt x="114" y="58" on="1"/>
        <pt x="114" y="95" on="0"/>
        <pt x="153" y="155" on="1"/>
        <pt x="269" y="115" on="0"/>
        <pt x="343" y="115" on="1"/>
        <pt x="450" y="115" on="0"/>
        <pt x="450" y="204" on="1"/>
        <pt x="450" y="248" on="0"/>
        <pt x="400" y="289" on="1"/>
        <pt x="388" y="298" on="0"/>
        <pt x="292" y="354" on="1"/>
        <pt x="219" y="397" on="0"/>
        <pt x="219" y="469" on="1"/>
        <pt x="219" y="507" on="0"/>
        <pt x="245" y="565" on="1"/>
        <pt x="292" y="669" on="0"/>
        <pt x="459" y="799" on="0"/>
        <pt x="543" y="799" on="1"/>
        <pt x="586" y="799" on="0"/>
      </contour>
    </TTGlyph>
    <TTGlyph name="T" xMin="227" yMin="0" xMax="765" yMax="800">
      <contour>
        <pt x="286" y="713" on="1"/>
        <pt x="286" y="739" on="0"/>
        <pt x="523" y="776" on="1"/>
        <pt x="675" y="800" on="0"/>
        <pt x="738" y="800" on="1"/>
        <pt x="765" y="754" on="0"/>
        <pt x="765" y="725" on="1"/>
        <pt x="765" y="701" on="0"/>
        <pt x="755" y="680" on="1"/>
        <pt x="599" y="656" on="1"/>
        <pt x="327" y="0" on="1"/>
        <pt x="301" y="0" on="0"/>
        <pt x="228" y="55" on="0"/>
        <pt x="227" y="78" on="1"/>
        <pt x="449" y="630" on="1"/>
        <pt x="449" y="632" on="0"/>
        <pt x="444" y="632" on="1"/>
        <pt x="434" y="632" on="0"/>
        <pt x="342" y="613" on="0"/>
        <pt x="331" y="613" on="1"/>
        <pt x="305" y="613" on="0"/>
        <pt x="286" y="654" on="0"/>
      </contour>
    </TTGlyph>
    <TTGlyph name="Thorn" xMin="58" yMin="0" xMax="627" yMax="801">
      <contour>
        <pt x="372" y="502" on="1"/>
        <pt x="253" y="219" on="1"/>
        <pt x="274" y="218" on="1"/>
        <pt x="276" y="218" on="0"/>
        <pt x="286" y="217" on="0"/>
        <pt x="288" y="217" on="1"/>
        <pt x="369" y="217" on="0"/>
        <pt x="507" y="350" on="0"/>
        <pt x="507" y="430" on="1"/>
        <pt x="507" y="476" on="0"/>
        <pt x="468" y="535" on="0"/>
        <pt x="439" y="535" on="1"/>
        <pt x="408" y="535" on="0"/>
      </contour>
      <contour>
        <pt x="463" y="717" on="1"/>
        <pt x="428" y="635" on="1"/>
        <pt x="445" y="639" on="0"/>
        <pt x="465" y="639" on="1"/>
        <pt x="540" y="639" on="0"/>
        <pt x="627" y="538" on="0"/>
        <pt x="627" y="451" on="1"/>
        <pt x="627" y="302" on="0"/>
        <pt x="403" y="89" on="0"/>
        <pt x="252" y="89" on="1"/>
        <pt x="224" y="89" on="0"/>
        <pt x="201" y="93" on="1"/>
        <pt x="163" y="0" on="1"/>
        <pt x="89" y="19" on="0"/>
        <pt x="58" y="76" on="1"/>
        <pt x="355" y="801" on="1"/>
        <pt x="408" y="792" on="0"/>
      </contour>
    </TTGlyph>
    <TTGlyph name="U" xMin="145" yMin="0" xMax="785" yMax="800">
      <contour>
        <pt x="238" y="24" on="1"/>
        <pt x="145" y="71" on="0"/>
        <pt x="145" y="200" on="1"/>
        <pt x="145" y="321" on="0"/>
        <pt x="234" y="528" on="1"/>
        <pt x="361" y="800" on="1"/>
        <pt x="376" y="800" on="0"/>
        <pt x="447" y="747" on="0"/>
        <pt x="467" y="717" on="1"/>
        <pt x="355" y="469" on="1"/>
        <pt x="274" y="277" on="0"/>
        <pt x="274" y="187" on="1"/>
        <pt x="274" y="156" on="0"/>
        <pt x="298" y="109" on="0"/>
        <pt x="317" y="109" on="1"/>
        <pt x="388" y="109" on="0"/>
        <pt x="540" y="454" on="1"/>
        <pt x="634" y="667" on="0"/>
        <pt x="678" y="800" on="1"/>
        <pt x="693" y="800" on="0"/>
        <pt x="765" y="746" on="0"/>
        <pt x="785" y="717" on="1"/>
        <pt x="685" y="449" on="1"/>
        <pt x="595" y="215" on="0"/>
        <pt x="424" y="0" on="0"/>
        <pt x="329" y="0" on="1"/>
        <pt x="283" y="0" on="0"/>
      </contour>
    </TTGlyph>
    <TTGlyph name="Uacute" xMin="145" yMin="0" xMax="785" yMax="1009">
      <contour>
        <pt x="744" y="971" on="1"/>
        <pt x="694" y="905" on="0"/>
        <pt x="633" y="833" on="1"/>
        <pt x="592" y="833" on="0"/>
        <pt x="587" y="864" on="1"/>
        <pt x="601" y="890" on="0"/>
        <pt x="680" y="992" on="0"/>
        <pt x="701" y="1009" on="1"/>
        <pt x="733" y="996" on="0"/>
      </contour>
      <contour>
        <pt x="238" y="24" on="1"/>
        <pt x="145" y="71" on="0"/>
        <pt x="145" y="200" on="1"/>
        <pt x="145" y="321" on="0"/>
        <pt x="234" y="528" on="1"/>
        <pt x="361" y="800" on="1"/>
        <pt x="376" y="800" on="0"/>
        <pt x="447" y="747" on="0"/>
        <pt x="467" y="717" on="1"/>
        <pt x="355" y="469" on="1"/>
        <pt x="274" y="277" on="0"/>
        <pt x="274" y="187" on="1"/>
        <pt x="274" y="156" on="0"/>
        <pt x="298" y="109" on="0"/>
        <pt x="317" y="109" on="1"/>
        <pt x="388" y="109" on="0"/>
        <pt x="540" y="454" on="1"/>
        <pt x="634" y="667" on="0"/>
        <pt x="678" y="800" on="1"/>
        <pt x="693" y="800" on="0"/>
        <pt x="765" y="746" on="0"/>
        <pt x="785" y="717" on="1"/>
        <pt x="685" y="449" on="1"/>
        <pt x="595" y="215" on="0"/>
        <pt x="424" y="0" on="0"/>
        <pt x="329" y="0" on="1"/>
        <pt x="283" y="0" on="0"/>
      </contour>
    </TTGlyph>
    <TTGlyph name="Ucircumflex" xMin="145" yMin="0" xMax="785" yMax="1009">
      <contour>
        <pt x="717" y="982" on="1"/>
        <pt x="657" y="805" on="1"/>
        <pt x="636" y="809" on="0"/>
        <pt x="617" y="830" on="1"/>
        <pt x="631" y="864" on="0"/>
        <pt x="649" y="921" on="1"/>
        <pt x="608" y="861" on="0"/>
        <pt x="575" y="803" on="1"/>
        <pt x="555" y="810" on="0"/>
        <pt x="535" y="831" on="1"/>
        <pt x="593" y="939" on="0"/>
        <pt x="672" y="1009" on="1"/>
        <pt x="700" y="1002" on="0"/>
      </contour>
      <contour>
        <pt x="238" y="24" on="1"/>
        <pt x="145" y="71" on="0"/>
        <pt x="145" y="200" on="1"/>
        <pt x="145" y="321" on="0"/>
        <pt x="234" y="528" on="1"/>
        <pt x="361" y="800" on="1"/>
        <pt x="376" y="800" on="0"/>
        <pt x="447" y="747" on="0"/>
        <pt x="467" y="717" on="1"/>
        <pt x="355" y="469" on="1"/>
        <pt x="274" y="277" on="0"/>
        <pt x="274" y="187" on="1"/>
        <pt x="274" y="156" on="0"/>
        <pt x="298" y="109" on="0"/>
        <pt x="317" y="109" on="1"/>
        <pt x="388" y="109" on="0"/>
        <pt x="540" y="454" on="1"/>
        <pt x="634" y="667" on="0"/>
        <pt x="678" y="800" on="1"/>
        <pt x="693" y="800" on="0"/>
        <pt x="765" y="746" on="0"/>
        <pt x="785" y="717" on="1"/>
        <pt x="685" y="449" on="1"/>
        <pt x="595" y="215" on="0"/>
        <pt x="424" y="0" on="0"/>
        <pt x="329" y="0" on="1"/>
        <pt x="283" y="0" on="0"/>
      </contour>
    </TTGlyph>
    <TTGlyph name="Udieresis" xMin="145" yMin="0" xMax="785" yMax="945">
      <contour>
        <pt x="656" y="908" on="1"/>
        <pt x="656" y="945" on="0"/>
        <pt x="730" y="945" on="0"/>
        <pt x="730" y="908" on="1"/>
        <pt x="730" y="870" on="0"/>
        <pt x="656" y="870" on="0"/>
      </contour>
      <contour>
        <pt x="535" y="908" on="1"/>
        <pt x="535" y="945" on="0"/>
        <pt x="573" y="945" on="1"/>
        <pt x="610" y="945" on="0"/>
        <pt x="610" y="908" on="1"/>
        <pt x="610" y="870" on="0"/>
        <pt x="573" y="870" on="1"/>
        <pt x="535" y="870" on="0"/>
      </contour>
      <contour>
        <pt x="238" y="24" on="1"/>
        <pt x="145" y="71" on="0"/>
        <pt x="145" y="200" on="1"/>
        <pt x="145" y="321" on="0"/>
        <pt x="234" y="528" on="1"/>
        <pt x="361" y="800" on="1"/>
        <pt x="376" y="800" on="0"/>
        <pt x="447" y="747" on="0"/>
        <pt x="467" y="717" on="1"/>
        <pt x="355" y="469" on="1"/>
        <pt x="274" y="277" on="0"/>
        <pt x="274" y="187" on="1"/>
        <pt x="274" y="156" on="0"/>
        <pt x="298" y="109" on="0"/>
        <pt x="317" y="109" on="1"/>
        <pt x="388" y="109" on="0"/>
        <pt x="540" y="454" on="1"/>
        <pt x="634" y="667" on="0"/>
        <pt x="678" y="800" on="1"/>
        <pt x="693" y="800" on="0"/>
        <pt x="765" y="746" on="0"/>
        <pt x="785" y="717" on="1"/>
        <pt x="685" y="449" on="1"/>
        <pt x="595" y="215" on="0"/>
        <pt x="424" y="0" on="0"/>
        <pt x="329" y="0" on="1"/>
        <pt x="283" y="0" on="0"/>
      </contour>
    </TTGlyph>
    <TTGlyph name="Ugrave" xMin="145" yMin="0" xMax="785" yMax="1009">
      <contour>
        <pt x="646" y="832" on="1"/>
        <pt x="638" y="833" on="1"/>
        <pt x="594" y="888" on="0"/>
        <pt x="527" y="971" on="1"/>
        <pt x="538" y="996" on="0"/>
        <pt x="570" y="1009" on="1"/>
        <pt x="641" y="947" on="0"/>
        <pt x="684" y="864" on="1"/>
        <pt x="673" y="841" on="0"/>
      </contour>
      <contour>
        <pt x="238" y="24" on="1"/>
        <pt x="145" y="71" on="0"/>
        <pt x="145" y="200" on="1"/>
        <pt x="145" y="321" on="0"/>
        <pt x="234" y="528" on="1"/>
        <pt x="361" y="800" on="1"/>
        <pt x="376" y="800" on="0"/>
        <pt x="447" y="747" on="0"/>
        <pt x="467" y="717" on="1"/>
        <pt x="355" y="469" on="1"/>
        <pt x="274" y="277" on="0"/>
        <pt x="274" y="187" on="1"/>
        <pt x="274" y="156" on="0"/>
        <pt x="298" y="109" on="0"/>
        <pt x="317" y="109" on="1"/>
        <pt x="388" y="109" on="0"/>
        <pt x="540" y="454" on="1"/>
        <pt x="634" y="667" on="0"/>
        <pt x="678" y="800" on="1"/>
        <pt x="693" y="800" on="0"/>
        <pt x="765" y="746" on="0"/>
        <pt x="785" y="717" on="1"/>
        <pt x="685" y="449" on="1"/>
        <pt x="595" y="215" on="0"/>
        <pt x="424" y="0" on="0"/>
        <pt x="329" y="0" on="1"/>
        <pt x="283" y="0" on="0"/>
      </contour>
    </TTGlyph>
    <TTGlyph name="V" xMin="93" yMin="0" xMax="788" yMax="800">
      <contour>
        <pt x="245" y="0" on="1"/>
        <pt x="143" y="28" on="0"/>
        <pt x="93" y="89" on="1"/>
        <pt x="323" y="800" on="1"/>
        <pt x="391" y="785" on="0"/>
        <pt x="442" y="719" on="1"/>
        <pt x="406" y="624" on="0"/>
        <pt x="360" y="476" on="1"/>
        <pt x="336" y="398" on="0"/>
        <pt x="293" y="261" on="0"/>
        <pt x="275" y="203" on="0"/>
        <pt x="275" y="202" on="1"/>
        <pt x="334" y="261" on="0"/>
        <pt x="472" y="478" on="1"/>
        <pt x="584" y="653" on="0"/>
        <pt x="664" y="800" on="1"/>
        <pt x="729" y="777" on="0"/>
        <pt x="788" y="711" on="1"/>
        <pt x="550" y="279" on="0"/>
      </contour>
    </TTGlyph>
    <TTGlyph name="W" xMin="94" yMin="0" xMax="1126" yMax="800">
      <contour>
        <pt x="246" y="0" on="1"/>
        <pt x="143" y="29" on="0"/>
        <pt x="94" y="89" on="1"/>
        <pt x="324" y="800" on="1"/>
        <pt x="392" y="785" on="0"/>
        <pt x="443" y="719" on="1"/>
        <pt x="407" y="624" on="0"/>
        <pt x="361" y="476" on="1"/>
        <pt x="337" y="398" on="0"/>
        <pt x="294" y="261" on="0"/>
        <pt x="276" y="203" on="0"/>
        <pt x="276" y="202" on="1"/>
        <pt x="332" y="258" on="0"/>
        <pt x="463" y="462" on="1"/>
        <pt x="564" y="621" on="0"/>
        <pt x="653" y="779" on="1"/>
        <pt x="656" y="780" on="0"/>
        <pt x="665" y="780" on="1"/>
        <pt x="692" y="780" on="0"/>
        <pt x="773" y="731" on="0"/>
        <pt x="788" y="707" on="1"/>
        <pt x="772" y="674" on="0"/>
        <pt x="726" y="551" on="0"/>
        <pt x="681" y="416" on="0"/>
        <pt x="643" y="298" on="0"/>
        <pt x="614" y="204" on="0"/>
        <pt x="613" y="202" on="1"/>
        <pt x="697" y="296" on="0"/>
        <pt x="1002" y="800" on="1"/>
        <pt x="1067" y="777" on="0"/>
        <pt x="1126" y="711" on="1"/>
        <pt x="806" y="182" on="0"/>
        <pt x="599" y="0" on="1"/>
        <pt x="478" y="35" on="0"/>
        <pt x="430" y="89" on="1"/>
        <pt x="513" y="323" on="1"/>
        <pt x="380" y="153" on="1"/>
        <pt x="296" y="47" on="0"/>
      </contour>
    </TTGlyph>
    <TTGlyph name="X" xMin="147" yMin="0" xMax="817" yMax="800">
      <contour>
        <pt x="439" y="775" on="1"/>
        <pt x="469" y="619" on="0"/>
        <pt x="509" y="494" on="1"/>
        <pt x="648" y="664" on="0"/>
        <pt x="734" y="800" on="1"/>
        <pt x="798" y="772" on="0"/>
        <pt x="817" y="700" on="1"/>
        <pt x="720" y="546" on="0"/>
        <pt x="558" y="350" on="1"/>
        <pt x="619" y="187" on="0"/>
        <pt x="685" y="54" on="1"/>
        <pt x="677" y="39" on="0"/>
        <pt x="648" y="19" on="0"/>
        <pt x="627" y="12" on="0"/>
        <pt x="579" y="2" on="0"/>
        <pt x="572" y="0" on="1"/>
        <pt x="515" y="104" on="0"/>
        <pt x="460" y="235" on="1"/>
        <pt x="334" y="93" on="0"/>
        <pt x="232" y="0" on="1"/>
        <pt x="174" y="39" on="0"/>
        <pt x="151" y="67" on="0"/>
        <pt x="147" y="99" on="1"/>
        <pt x="271" y="217" on="0"/>
        <pt x="407" y="372" on="1"/>
        <pt x="345" y="544" on="0"/>
        <pt x="301" y="745" on="1"/>
        <pt x="326" y="782" on="0"/>
        <pt x="381" y="782" on="1"/>
        <pt x="398" y="782" on="0"/>
      </contour>
    </TTGlyph>
    <TTGlyph name="Y" xMin="255" yMin="0" xMax="783" yMax="800">
      <contour>
        <pt x="685" y="800" on="1"/>
        <pt x="701" y="798" on="0"/>
        <pt x="766" y="730" on="0"/>
        <pt x="783" y="695" on="1"/>
        <pt x="362" y="0" on="1"/>
        <pt x="285" y="33" on="0"/>
        <pt x="265" y="95" on="1"/>
        <pt x="382" y="294" on="1"/>
        <pt x="255" y="789" on="1"/>
        <pt x="269" y="800" on="0"/>
        <pt x="317" y="800" on="1"/>
        <pt x="357" y="800" on="0"/>
        <pt x="397" y="786" on="1"/>
        <pt x="479" y="455" on="1"/>
      </contour>
    </TTGlyph>
    <TTGlyph name="Yacute" xMin="255" yMin="0" xMax="783" yMax="1009">
      <contour>
        <pt x="726" y="971" on="1"/>
        <pt x="676" y="905" on="0"/>
        <pt x="615" y="833" on="1"/>
        <pt x="574" y="833" on="0"/>
        <pt x="569" y="864" on="1"/>
        <pt x="583" y="890" on="0"/>
        <pt x="662" y="992" on="0"/>
        <pt x="683" y="1009" on="1"/>
        <pt x="715" y="996" on="0"/>
      </contour>
      <contour>
        <pt x="685" y="800" on="1"/>
        <pt x="701" y="798" on="0"/>
        <pt x="766" y="730" on="0"/>
        <pt x="783" y="695" on="1"/>
        <pt x="362" y="0" on="1"/>
        <pt x="285" y="33" on="0"/>
        <pt x="265" y="95" on="1"/>
        <pt x="382" y="294" on="1"/>
        <pt x="255" y="789" on="1"/>
        <pt x="269" y="800" on="0"/>
        <pt x="317" y="800" on="1"/>
        <pt x="357" y="800" on="0"/>
        <pt x="397" y="786" on="1"/>
        <pt x="479" y="455" on="1"/>
      </contour>
    </TTGlyph>
    <TTGlyph name="Ydieresis" xMin="255" yMin="0" xMax="783" yMax="945">
      <contour>
        <pt x="602" y="908" on="1"/>
        <pt x="602" y="945" on="0"/>
        <pt x="676" y="945" on="0"/>
        <pt x="676" y="908" on="1"/>
        <pt x="676" y="870" on="0"/>
        <pt x="602" y="870" on="0"/>
      </contour>
      <contour>
        <pt x="481" y="908" on="1"/>
        <pt x="481" y="945" on="0"/>
        <pt x="519" y="945" on="1"/>
        <pt x="556" y="945" on="0"/>
        <pt x="556" y="908" on="1"/>
        <pt x="556" y="870" on="0"/>
        <pt x="519" y="870" on="1"/>
        <pt x="481" y="870" on="0"/>
      </contour>
      <contour>
        <pt x="685" y="800" on="1"/>
        <pt x="701" y="798" on="0"/>
        <pt x="766" y="730" on="0"/>
        <pt x="783" y="695" on="1"/>
        <pt x="362" y="0" on="1"/>
        <pt x="285" y="33" on="0"/>
        <pt x="265" y="95" on="1"/>
        <pt x="382" y="294" on="1"/>
        <pt x="255" y="789" on="1"/>
        <pt x="269" y="800" on="0"/>
        <pt x="317" y="800" on="1"/>
        <pt x="357" y="800" on="0"/>
        <pt x="397" y="786" on="1"/>
        <pt x="479" y="455" on="1"/>
      </contour>
    </TTGlyph>
    <TTGlyph name="Z" xMin="172" yMin="0" xMax="760" yMax="800">
      <contour>
        <pt x="616" y="654" on="1"/>
        <pt x="563" y="659" on="0"/>
        <pt x="529" y="659" on="1"/>
        <pt x="443" y="659" on="0"/>
        <pt x="323" y="627" on="1"/>
        <pt x="305" y="662" on="1"/>
        <pt x="291" y="690" on="0"/>
        <pt x="291" y="719" on="1"/>
        <pt x="291" y="731" on="0"/>
        <pt x="293" y="759" on="1"/>
        <pt x="452" y="800" on="0"/>
        <pt x="594" y="800" on="1"/>
        <pt x="643" y="800" on="0"/>
        <pt x="683" y="796" on="1"/>
        <pt x="694" y="780" on="0"/>
        <pt x="711" y="759" on="1"/>
        <pt x="734" y="728" on="0"/>
        <pt x="745" y="699" on="0"/>
        <pt x="756" y="639" on="1"/>
        <pt x="759" y="625" on="0"/>
        <pt x="760" y="617" on="1"/>
        <pt x="378" y="143" on="1"/>
        <pt x="486" y="186" on="0"/>
        <pt x="555" y="186" on="1"/>
        <pt x="578" y="186" on="0"/>
        <pt x="606" y="181" on="1"/>
        <pt x="628" y="147" on="0"/>
        <pt x="628" y="100" on="1"/>
        <pt x="628" y="82" on="0"/>
        <pt x="623" y="59" on="1"/>
        <pt x="609" y="60" on="0"/>
        <pt x="579" y="60" on="1"/>
        <pt x="446" y="60" on="0"/>
        <pt x="232" y="0" on="1"/>
        <pt x="172" y="57" on="0"/>
        <pt x="172" y="103" on="1"/>
        <pt x="172" y="107" on="1"/>
      </contour>
    </TTGlyph>
    <TTGlyph name="a" xMin="38" yMin="0" xMax="729" yMax="800">
      <contour>
        <pt x="323" y="320" on="1"/>
        <pt x="470" y="359" on="1"/>
        <pt x="571" y="626" on="1"/>
        <pt x="522" y="589" on="0"/>
        <pt x="367" y="400" on="0"/>
      </contour>
      <contour>
        <pt x="579" y="800" on="1"/>
        <pt x="678" y="772" on="0"/>
        <pt x="729" y="712" on="1"/>
        <pt x="501" y="4" on="1"/>
        <pt x="426" y="20" on="0"/>
        <pt x="385" y="73" on="1"/>
        <pt x="439" y="228" on="1"/>
        <pt x="254" y="189" on="1"/>
        <pt x="147" y="0" on="1"/>
        <pt x="119" y="10" on="0"/>
        <pt x="88" y="37" on="0"/>
        <pt x="38" y="92" on="1"/>
        <pt x="275" y="526" on="0"/>
      </contour>
    </TTGlyph>
    <TTGlyph name="aacute" xMin="38" yMin="0" xMax="789" yMax="1008">
      <contour>
        <pt x="789" y="970" on="1"/>
        <pt x="740" y="904" on="0"/>
        <pt x="678" y="832" on="1"/>
        <pt x="637" y="832" on="0"/>
        <pt x="632" y="863" on="1"/>
        <pt x="646" y="889" on="0"/>
        <pt x="725" y="991" on="0"/>
        <pt x="746" y="1008" on="1"/>
        <pt x="778" y="995" on="0"/>
      </contour>
      <contour>
        <pt x="323" y="320" on="1"/>
        <pt x="470" y="359" on="1"/>
        <pt x="571" y="626" on="1"/>
        <pt x="522" y="589" on="0"/>
        <pt x="367" y="400" on="0"/>
      </contour>
      <contour>
        <pt x="579" y="800" on="1"/>
        <pt x="678" y="772" on="0"/>
        <pt x="729" y="712" on="1"/>
        <pt x="501" y="4" on="1"/>
        <pt x="426" y="20" on="0"/>
        <pt x="385" y="73" on="1"/>
        <pt x="439" y="228" on="1"/>
        <pt x="254" y="189" on="1"/>
        <pt x="147" y="0" on="1"/>
        <pt x="119" y="10" on="0"/>
        <pt x="88" y="37" on="0"/>
        <pt x="38" y="92" on="1"/>
        <pt x="275" y="526" on="0"/>
      </contour>
    </TTGlyph>
    <TTGlyph name="acircumflex" xMin="38" yMin="0" xMax="778" yMax="1008">
      <contour>
        <pt x="778" y="981" on="1"/>
        <pt x="718" y="804" on="1"/>
        <pt x="697" y="808" on="0"/>
        <pt x="678" y="829" on="1"/>
        <pt x="692" y="863" on="0"/>
        <pt x="710" y="920" on="1"/>
        <pt x="669" y="860" on="0"/>
        <pt x="636" y="802" on="1"/>
        <pt x="616" y="809" on="0"/>
        <pt x="596" y="830" on="1"/>
        <pt x="654" y="938" on="0"/>
        <pt x="733" y="1008" on="1"/>
        <pt x="762" y="1000" on="0"/>
      </contour>
      <contour>
        <pt x="323" y="320" on="1"/>
        <pt x="470" y="359" on="1"/>
        <pt x="571" y="626" on="1"/>
        <pt x="522" y="589" on="0"/>
        <pt x="367" y="400" on="0"/>
      </contour>
      <contour>
        <pt x="579" y="800" on="1"/>
        <pt x="678" y="772" on="0"/>
        <pt x="729" y="712" on="1"/>
        <pt x="501" y="4" on="1"/>
        <pt x="426" y="20" on="0"/>
        <pt x="385" y="73" on="1"/>
        <pt x="439" y="228" on="1"/>
        <pt x="254" y="189" on="1"/>
        <pt x="147" y="0" on="1"/>
        <pt x="119" y="10" on="0"/>
        <pt x="88" y="37" on="0"/>
        <pt x="38" y="92" on="1"/>
        <pt x="275" y="526" on="0"/>
      </contour>
    </TTGlyph>
    <TTGlyph name="acute" xMin="398" yMin="832" xMax="555" yMax="1008">
      <contour>
        <pt x="555" y="970" on="1"/>
        <pt x="506" y="904" on="0"/>
        <pt x="444" y="832" on="1"/>
        <pt x="403" y="832" on="0"/>
        <pt x="398" y="863" on="1"/>
        <pt x="412" y="889" on="0"/>
        <pt x="491" y="991" on="0"/>
        <pt x="512" y="1008" on="1"/>
        <pt x="544" y="995" on="0"/>
      </contour>
    </TTGlyph>
    <TTGlyph name="adieresis" xMin="38" yMin="0" xMax="804" yMax="944">
      <contour>
        <pt x="730" y="907" on="1"/>
        <pt x="730" y="944" on="0"/>
        <pt x="804" y="944" on="0"/>
        <pt x="804" y="907" on="1"/>
        <pt x="804" y="869" on="0"/>
        <pt x="730" y="869" on="0"/>
      </contour>
      <contour>
        <pt x="609" y="907" on="1"/>
        <pt x="609" y="944" on="0"/>
        <pt x="647" y="944" on="1"/>
        <pt x="684" y="944" on="0"/>
        <pt x="684" y="907" on="1"/>
        <pt x="684" y="869" on="0"/>
        <pt x="647" y="869" on="1"/>
        <pt x="609" y="869" on="0"/>
      </contour>
      <contour>
        <pt x="323" y="320" on="1"/>
        <pt x="470" y="359" on="1"/>
        <pt x="571" y="626" on="1"/>
        <pt x="522" y="589" on="0"/>
        <pt x="367" y="400" on="0"/>
      </contour>
      <contour>
        <pt x="579" y="800" on="1"/>
        <pt x="678" y="772" on="0"/>
        <pt x="729" y="712" on="1"/>
        <pt x="501" y="4" on="1"/>
        <pt x="426" y="20" on="0"/>
        <pt x="385" y="73" on="1"/>
        <pt x="439" y="228" on="1"/>
        <pt x="254" y="189" on="1"/>
        <pt x="147" y="0" on="1"/>
        <pt x="119" y="10" on="0"/>
        <pt x="88" y="37" on="0"/>
        <pt x="38" y="92" on="1"/>
        <pt x="275" y="526" on="0"/>
      </contour>
    </TTGlyph>
    <TTGlyph name="ae" xMin="36" yMin="-5" xMax="982" yMax="801">
      <contour>
        <pt x="253" y="184" on="1"/>
        <pt x="144" y="-5" on="1"/>
        <pt x="105" y="9" on="0"/>
        <pt x="36" y="87" on="1"/>
        <pt x="275" y="522" on="0"/>
        <pt x="578" y="796" on="1"/>
        <pt x="623" y="790" on="0"/>
        <pt x="651" y="768" on="1"/>
        <pt x="765" y="801" on="0"/>
        <pt x="907" y="801" on="1"/>
        <pt x="938" y="801" on="1"/>
        <pt x="982" y="772" on="0"/>
        <pt x="982" y="716" on="1"/>
        <pt x="982" y="692" on="0"/>
        <pt x="973" y="670" on="1"/>
        <pt x="949" y="676" on="0"/>
        <pt x="923" y="676" on="1"/>
        <pt x="866" y="676" on="0"/>
        <pt x="797" y="650" on="1"/>
        <pt x="716" y="458" on="1"/>
        <pt x="756" y="473" on="0"/>
        <pt x="794" y="473" on="1"/>
        <pt x="824" y="473" on="0"/>
        <pt x="850" y="463" on="1"/>
        <pt x="858" y="444" on="0"/>
        <pt x="858" y="424" on="1"/>
        <pt x="858" y="395" on="0"/>
        <pt x="841" y="359" on="1"/>
        <pt x="733" y="359" on="0"/>
        <pt x="668" y="334" on="1"/>
        <pt x="580" y="131" on="1"/>
        <pt x="673" y="148" on="0"/>
        <pt x="694" y="148" on="1"/>
        <pt x="720" y="148" on="0"/>
        <pt x="763" y="143" on="1"/>
        <pt x="798" y="99" on="0"/>
        <pt x="798" y="41" on="1"/>
        <pt x="781" y="48" on="0"/>
        <pt x="756" y="48" on="1"/>
        <pt x="692" y="48" on="0"/>
        <pt x="521" y="16" on="0"/>
        <pt x="500" y="-1" on="1"/>
        <pt x="425" y="15" on="0"/>
        <pt x="384" y="68" on="1"/>
        <pt x="439" y="223" on="1"/>
      </contour>
      <contour>
        <pt x="323" y="315" on="1"/>
        <pt x="469" y="354" on="1"/>
        <pt x="571" y="622" on="1"/>
        <pt x="513" y="579" on="0"/>
        <pt x="366" y="396" on="0"/>
      </contour>
    </TTGlyph>
    <TTGlyph name="agrave" xMin="38" yMin="0" xMax="763" yMax="1008">
      <contour>
        <pt x="725" y="831" on="1"/>
        <pt x="717" y="832" on="1"/>
        <pt x="674" y="888" on="0"/>
        <pt x="606" y="970" on="1"/>
        <pt x="617" y="995" on="0"/>
        <pt x="649" y="1008" on="1"/>
        <pt x="720" y="946" on="0"/>
        <pt x="763" y="863" on="1"/>
        <pt x="752" y="840" on="0"/>
      </contour>
      <contour>
        <pt x="323" y="320" on="1"/>
        <pt x="470" y="359" on="1"/>
        <pt x="571" y="626" on="1"/>
        <pt x="522" y="589" on="0"/>
        <pt x="367" y="400" on="0"/>
      </contour>
      <contour>
        <pt x="579" y="800" on="1"/>
        <pt x="678" y="772" on="0"/>
        <pt x="729" y="712" on="1"/>
        <pt x="501" y="4" on="1"/>
        <pt x="426" y="20" on="0"/>
        <pt x="385" y="73" on="1"/>
        <pt x="439" y="228" on="1"/>
        <pt x="254" y="189" on="1"/>
        <pt x="147" y="0" on="1"/>
        <pt x="119" y="10" on="0"/>
        <pt x="88" y="37" on="0"/>
        <pt x="38" y="92" on="1"/>
        <pt x="275" y="526" on="0"/>
      </contour>
    </TTGlyph>
    <TTGlyph name="ampersand" xMin="139" yMin="1" xMax="806" yMax="800">
      <contour>
        <pt x="448" y="307" on="1"/>
        <pt x="510" y="332" on="0"/>
        <pt x="576" y="345" on="1"/>
        <pt x="710" y="372" on="1"/>
        <pt x="743" y="378" on="0"/>
        <pt x="785" y="388" on="1"/>
        <pt x="806" y="348" on="0"/>
        <pt x="806" y="317" on="1"/>
        <pt x="806" y="301" on="0"/>
        <pt x="801" y="279" on="1"/>
        <pt x="766" y="270" on="0"/>
        <pt x="699" y="255" on="1"/>
        <pt x="703" y="243" on="0"/>
        <pt x="703" y="226" on="1"/>
        <pt x="703" y="145" on="0"/>
        <pt x="608" y="55" on="1"/>
        <pt x="585" y="33" on="0"/>
        <pt x="450" y="1" on="0"/>
        <pt x="387" y="1" on="1"/>
        <pt x="139" y="1" on="0"/>
        <pt x="139" y="223" on="1"/>
        <pt x="139" y="314" on="0"/>
        <pt x="256" y="460" on="0"/>
        <pt x="344" y="476" on="1"/>
        <pt x="275" y="534" on="0"/>
        <pt x="275" y="606" on="1"/>
        <pt x="275" y="683" on="0"/>
        <pt x="423" y="800" on="0"/>
        <pt x="513" y="800" on="1"/>
        <pt x="571" y="800" on="0"/>
        <pt x="677" y="745" on="0"/>
        <pt x="711" y="698" on="1"/>
        <pt x="720" y="685" on="0"/>
        <pt x="720" y="672" on="1"/>
        <pt x="720" y="652" on="0"/>
        <pt x="655" y="606" on="0"/>
        <pt x="631" y="606" on="1"/>
        <pt x="630" y="606" on="1"/>
        <pt x="588" y="700" on="0"/>
        <pt x="503" y="700" on="1"/>
        <pt x="464" y="700" on="0"/>
        <pt x="400" y="650" on="0"/>
        <pt x="400" y="613" on="1"/>
        <pt x="400" y="567" on="0"/>
        <pt x="461" y="514" on="0"/>
        <pt x="490" y="510" on="1"/>
        <pt x="530" y="505" on="0"/>
        <pt x="546" y="493" on="0"/>
        <pt x="546" y="465" on="1"/>
        <pt x="546" y="412" on="0"/>
        <pt x="510" y="412" on="1"/>
        <pt x="505" y="412" on="0"/>
        <pt x="466" y="419" on="0"/>
        <pt x="460" y="419" on="1"/>
        <pt x="389" y="419" on="0"/>
        <pt x="289" y="304" on="0"/>
        <pt x="289" y="229" on="1"/>
        <pt x="289" y="216" on="0"/>
        <pt x="297" y="192" on="1"/>
        <pt x="327" y="93" on="0"/>
        <pt x="422" y="93" on="1"/>
        <pt x="475" y="93" on="0"/>
        <pt x="573" y="161" on="0"/>
        <pt x="573" y="203" on="1"/>
        <pt x="573" y="224" on="0"/>
        <pt x="564" y="224" on="1"/>
        <pt x="557" y="224" on="0"/>
        <pt x="487" y="206" on="0"/>
        <pt x="479" y="206" on="1"/>
        <pt x="475" y="206" on="1"/>
        <pt x="450" y="239" on="0"/>
      </contour>
    </TTGlyph>
    <TTGlyph name="aring" xMin="38" yMin="0" xMax="815" yMax="1008">
      <contour>
        <pt x="655" y="904" on="1"/>
        <pt x="655" y="882" on="0"/>
        <pt x="685" y="851" on="0"/>
        <pt x="706" y="851" on="1"/>
        <pt x="728" y="851" on="0"/>
        <pt x="759" y="882" on="0"/>
        <pt x="759" y="904" on="1"/>
        <pt x="759" y="925" on="0"/>
        <pt x="729" y="956" on="0"/>
        <pt x="707" y="956" on="1"/>
        <pt x="686" y="956" on="0"/>
        <pt x="655" y="925" on="0"/>
      </contour>
      <contour>
        <pt x="709" y="1008" on="1"/>
        <pt x="753" y="1008" on="0"/>
        <pt x="815" y="945" on="0"/>
        <pt x="815" y="857" on="0"/>
        <pt x="752" y="794" on="0"/>
        <pt x="708" y="794" on="1"/>
        <pt x="663" y="794" on="0"/>
        <pt x="602" y="856" on="0"/>
        <pt x="602" y="946" on="0"/>
        <pt x="664" y="1008" on="0"/>
      </contour>
      <contour>
        <pt x="323" y="320" on="1"/>
        <pt x="470" y="359" on="1"/>
        <pt x="571" y="626" on="1"/>
        <pt x="522" y="589" on="0"/>
        <pt x="367" y="400" on="0"/>
      </contour>
      <contour>
        <pt x="579" y="800" on="1"/>
        <pt x="678" y="772" on="0"/>
        <pt x="729" y="712" on="1"/>
        <pt x="501" y="4" on="1"/>
        <pt x="426" y="20" on="0"/>
        <pt x="385" y="73" on="1"/>
        <pt x="439" y="228" on="1"/>
        <pt x="254" y="189" on="1"/>
        <pt x="147" y="0" on="1"/>
        <pt x="119" y="10" on="0"/>
        <pt x="88" y="37" on="0"/>
        <pt x="38" y="92" on="1"/>
        <pt x="275" y="526" on="0"/>
      </contour>
    </TTGlyph>
    <TTGlyph name="asciicircum" xMin="253" yMin="525" xMax="625" yMax="801">
      <contour>
        <pt x="495" y="597" on="1"/>
        <pt x="438" y="676" on="1"/>
        <pt x="336" y="537" on="0"/>
        <pt x="307" y="525" on="1"/>
        <pt x="268" y="541" on="0"/>
        <pt x="253" y="572" on="1"/>
        <pt x="253" y="594" on="0"/>
        <pt x="324" y="683" on="1"/>
        <pt x="418" y="801" on="0"/>
        <pt x="437" y="801" on="1"/>
        <pt x="458" y="801" on="0"/>
        <pt x="552" y="683" on="1"/>
        <pt x="623" y="594" on="0"/>
        <pt x="625" y="572" on="1"/>
        <pt x="606" y="539" on="0"/>
        <pt x="570" y="525" on="1"/>
        <pt x="532" y="545" on="0"/>
      </contour>
    </TTGlyph>
    <TTGlyph name="asciitilde" xMin="209" yMin="395" xMax="725" yMax="586">
      <contour>
        <pt x="209" y="454" on="1"/>
        <pt x="209" y="498" on="0"/>
        <pt x="300" y="575" on="0"/>
        <pt x="346" y="575" on="1"/>
        <pt x="401" y="575" on="0"/>
        <pt x="559" y="489" on="0"/>
        <pt x="584" y="489" on="1"/>
        <pt x="604" y="489" on="0"/>
        <pt x="624" y="519" on="0"/>
        <pt x="630" y="556" on="0"/>
        <pt x="654" y="586" on="0"/>
        <pt x="676" y="586" on="1"/>
        <pt x="725" y="586" on="0"/>
        <pt x="725" y="530" on="1"/>
        <pt x="725" y="472" on="0"/>
        <pt x="632" y="395" on="0"/>
        <pt x="570" y="395" on="1"/>
        <pt x="527" y="395" on="0"/>
        <pt x="401" y="473" on="0"/>
        <pt x="363" y="473" on="1"/>
        <pt x="347" y="473" on="0"/>
        <pt x="274" y="396" on="0"/>
        <pt x="256" y="396" on="1"/>
        <pt x="209" y="396" on="0"/>
      </contour>
    </TTGlyph>
    <TTGlyph name="asterisk" xMin="284" yMin="521" xMax="563" yMax="792">
      <contour>
        <pt x="334" y="741" on="1"/>
        <pt x="363" y="765" on="1"/>
        <pt x="415" y="698" on="1"/>
        <pt x="435" y="792" on="1"/>
        <pt x="470" y="792" on="1"/>
        <pt x="450" y="698" on="1"/>
        <pt x="530" y="765" on="1"/>
        <pt x="550" y="741" on="1"/>
        <pt x="470" y="674" on="1"/>
        <pt x="563" y="674" on="1"/>
        <pt x="554" y="639" on="1"/>
        <pt x="462" y="639" on="1"/>
        <pt x="514" y="573" on="1"/>
        <pt x="485" y="549" on="1"/>
        <pt x="433" y="615" on="1"/>
        <pt x="412" y="521" on="1"/>
        <pt x="378" y="521" on="1"/>
        <pt x="398" y="615" on="1"/>
        <pt x="318" y="549" on="1"/>
        <pt x="298" y="573" on="1"/>
        <pt x="378" y="639" on="1"/>
        <pt x="284" y="639" on="1"/>
        <pt x="292" y="674" on="1"/>
        <pt x="386" y="674" on="1"/>
      </contour>
    </TTGlyph>
    <TTGlyph name="at" xMin="92" yMin="0" xMax="892" yMax="801">
      <contour>
        <pt x="570" y="563" on="1"/>
        <pt x="560" y="563" on="1"/>
        <pt x="518" y="563" on="0"/>
        <pt x="427" y="464" on="0"/>
        <pt x="374" y="344" on="0"/>
        <pt x="374" y="307" on="1"/>
        <pt x="374" y="259" on="0"/>
        <pt x="408" y="259" on="1"/>
        <pt x="458" y="259" on="0"/>
        <pt x="516" y="403" on="1"/>
        <pt x="545" y="492" on="0"/>
      </contour>
      <contour>
        <pt x="661" y="595" on="1"/>
        <pt x="586" y="406" on="1"/>
        <pt x="532" y="262" on="0"/>
        <pt x="532" y="223" on="1"/>
        <pt x="532" y="128" on="0"/>
        <pt x="636" y="128" on="1"/>
        <pt x="727" y="128" on="0"/>
        <pt x="844" y="286" on="0"/>
        <pt x="844" y="400" on="1"/>
        <pt x="844" y="545" on="0"/>
        <pt x="637" y="753" on="0"/>
        <pt x="347" y="753" on="0"/>
        <pt x="140" y="546" on="0"/>
        <pt x="140" y="400" on="1"/>
        <pt x="140" y="257" on="0"/>
        <pt x="341" y="51" on="0"/>
        <pt x="485" y="48" on="1"/>
        <pt x="486" y="0" on="1"/>
        <pt x="322" y="3" on="0"/>
        <pt x="92" y="236" on="0"/>
        <pt x="92" y="398" on="1"/>
        <pt x="92" y="565" on="0"/>
        <pt x="326" y="801" on="0"/>
        <pt x="492" y="801" on="1"/>
        <pt x="657" y="801" on="0"/>
        <pt x="892" y="565" on="0"/>
        <pt x="892" y="400" on="1"/>
        <pt x="892" y="262" on="0"/>
        <pt x="747" y="79" on="0"/>
        <pt x="633" y="79" on="1"/>
        <pt x="563" y="79" on="0"/>
        <pt x="468" y="153" on="0"/>
        <pt x="458" y="219" on="1"/>
        <pt x="416" y="195" on="0"/>
        <pt x="382" y="195" on="1"/>
        <pt x="309" y="195" on="0"/>
        <pt x="309" y="300" on="1"/>
        <pt x="309" y="420" on="0"/>
        <pt x="465" y="631" on="0"/>
        <pt x="561" y="631" on="1"/>
        <pt x="634" y="631" on="0"/>
      </contour>
    </TTGlyph>
    <TTGlyph name="atilde" xMin="38" yMin="0" xMax="818" yMax="956">
      <contour>
        <pt x="528" y="881" on="1"/>
        <pt x="528" y="905" on="0"/>
        <pt x="580" y="951" on="0"/>
        <pt x="605" y="951" on="1"/>
        <pt x="626" y="951" on="0"/>
        <pt x="736" y="901" on="0"/>
        <pt x="740" y="901" on="1"/>
        <pt x="750" y="901" on="0"/>
        <pt x="762" y="918" on="0"/>
        <pt x="766" y="939" on="0"/>
        <pt x="780" y="956" on="0"/>
        <pt x="792" y="956" on="1"/>
        <pt x="818" y="956" on="0"/>
        <pt x="818" y="931" on="1"/>
        <pt x="818" y="893" on="0"/>
        <pt x="772" y="849" on="0"/>
        <pt x="732" y="849" on="1"/>
        <pt x="716" y="849" on="0"/>
        <pt x="626" y="893" on="0"/>
        <pt x="618" y="893" on="1"/>
        <pt x="606" y="893" on="0"/>
        <pt x="563" y="849" on="0"/>
        <pt x="555" y="849" on="1"/>
        <pt x="530" y="849" on="0"/>
      </contour>
      <contour>
        <pt x="323" y="320" on="1"/>
        <pt x="470" y="359" on="1"/>
        <pt x="571" y="626" on="1"/>
        <pt x="522" y="589" on="0"/>
        <pt x="367" y="400" on="0"/>
      </contour>
      <contour>
        <pt x="579" y="800" on="1"/>
        <pt x="678" y="772" on="0"/>
        <pt x="729" y="712" on="1"/>
        <pt x="501" y="4" on="1"/>
        <pt x="426" y="20" on="0"/>
        <pt x="385" y="73" on="1"/>
        <pt x="439" y="228" on="1"/>
        <pt x="254" y="189" on="1"/>
        <pt x="147" y="0" on="1"/>
        <pt x="119" y="10" on="0"/>
        <pt x="88" y="37" on="0"/>
        <pt x="38" y="92" on="1"/>
        <pt x="275" y="526" on="0"/>
      </contour>
    </TTGlyph>
    <TTGlyph name="b" xMin="85" yMin="0" xMax="771" yMax="800">
      <contour>
        <pt x="345" y="390" on="1"/>
        <pt x="450" y="420" on="0"/>
        <pt x="614" y="557" on="0"/>
        <pt x="625" y="626" on="1"/>
        <pt x="600" y="671" on="0"/>
        <pt x="552" y="671" on="1"/>
        <pt x="518" y="671" on="0"/>
        <pt x="454" y="650" on="1"/>
      </contour>
      <contour>
        <pt x="264" y="191" on="1"/>
        <pt x="321" y="99" on="0"/>
        <pt x="405" y="99" on="1"/>
        <pt x="448" y="99" on="0"/>
        <pt x="506" y="153" on="0"/>
        <pt x="506" y="197" on="1"/>
        <pt x="506" y="246" on="0"/>
        <pt x="465" y="302" on="1"/>
        <pt x="462" y="307" on="1"/>
        <pt x="379" y="268" on="0"/>
        <pt x="295" y="263" on="1"/>
      </contour>
      <contour>
        <pt x="377" y="800" on="1"/>
        <pt x="394" y="800" on="0"/>
        <pt x="438" y="765" on="1"/>
        <pt x="529" y="800" on="0"/>
        <pt x="601" y="800" on="1"/>
        <pt x="678" y="800" on="0"/>
        <pt x="771" y="719" on="0"/>
        <pt x="771" y="657" on="1"/>
        <pt x="771" y="589" on="0"/>
        <pt x="655" y="425" on="0"/>
        <pt x="564" y="364" on="1"/>
        <pt x="651" y="302" on="0"/>
        <pt x="651" y="218" on="1"/>
        <pt x="651" y="135" on="0"/>
        <pt x="498" y="0" on="0"/>
        <pt x="402" y="0" on="1"/>
        <pt x="296" y="0" on="0"/>
        <pt x="218" y="83" on="1"/>
        <pt x="186" y="10" on="1"/>
        <pt x="114" y="29" on="0"/>
        <pt x="85" y="85" on="1"/>
        <pt x="306" y="628" on="1"/>
        <pt x="281" y="694" on="1"/>
        <pt x="349" y="731" on="1"/>
      </contour>
    </TTGlyph>
    <TTGlyph name="backslash" xMin="321" yMin="-3" xMax="757" yMax="804">
      <contour>
        <pt x="386" y="786" on="1"/>
        <pt x="585" y="396" on="1"/>
        <pt x="754" y="65" on="0"/>
        <pt x="756" y="29" on="1"/>
        <pt x="756" y="27" on="0"/>
        <pt x="757" y="22" on="0"/>
        <pt x="757" y="21" on="1"/>
        <pt x="757" y="-3" on="0"/>
        <pt x="728" y="-3" on="1"/>
        <pt x="702" y="-3" on="0"/>
        <pt x="683" y="37" on="1"/>
        <pt x="325" y="754" on="1"/>
        <pt x="321" y="763" on="0"/>
        <pt x="321" y="773" on="1"/>
        <pt x="321" y="800" on="0"/>
        <pt x="355" y="804" on="1"/>
        <pt x="376" y="804" on="0"/>
      </contour>
    </TTGlyph>
    <TTGlyph name="bar" xMin="61" yMin="-81" xMax="444" yMax="881">
      <contour>
        <pt x="414" y="881" on="1"/>
        <pt x="423" y="878" on="0"/>
        <pt x="442" y="815" on="0"/>
        <pt x="444" y="780" on="1"/>
        <pt x="92" y="-81" on="1"/>
        <pt x="61" y="-58" on="0"/>
        <pt x="61" y="9" on="1"/>
      </contour>
    </TTGlyph>
    <TTGlyph name="braceleft" xMin="155" yMin="125" xMax="929" yMax="637">
      <contour>
        <pt x="478" y="125" on="1"/>
        <pt x="158" y="236" on="1"/>
        <pt x="155" y="254" on="0"/>
        <pt x="155" y="273" on="1"/>
        <pt x="155" y="326" on="0"/>
        <pt x="174" y="383" on="1"/>
        <pt x="327" y="498" on="0"/>
        <pt x="396" y="540" on="1"/>
        <pt x="519" y="617" on="0"/>
        <pt x="618" y="637" on="1"/>
        <pt x="618" y="611" on="1"/>
        <pt x="618" y="564" on="0"/>
        <pt x="610" y="510" on="1"/>
        <pt x="514" y="492" on="0"/>
        <pt x="379" y="418" on="1"/>
        <pt x="756" y="451" on="0"/>
        <pt x="852" y="451" on="1"/>
        <pt x="896" y="422" on="0"/>
        <pt x="929" y="392" on="0"/>
        <pt x="929" y="375" on="1"/>
        <pt x="929" y="369" on="0"/>
        <pt x="926" y="363" on="1"/>
        <pt x="620" y="337" on="0"/>
        <pt x="543" y="329" on="1"/>
        <pt x="445" y="317" on="1"/>
        <pt x="403" y="312" on="0"/>
        <pt x="376" y="311" on="1"/>
        <pt x="440" y="286" on="0"/>
        <pt x="487" y="245" on="1"/>
        <pt x="488" y="236" on="0"/>
        <pt x="488" y="218" on="1"/>
        <pt x="488" y="176" on="0"/>
      </contour>
    </TTGlyph>
    <TTGlyph name="braceright" xMin="178" yMin="125" xMax="951" yMax="637">
      <contour>
        <pt x="629" y="637" on="1"/>
        <pt x="949" y="526" on="1"/>
        <pt x="951" y="502" on="0"/>
        <pt x="951" y="489" on="1"/>
        <pt x="951" y="433" on="0"/>
        <pt x="933" y="379" on="1"/>
        <pt x="780" y="264" on="0"/>
        <pt x="711" y="222" on="1"/>
        <pt x="588" y="145" on="0"/>
        <pt x="489" y="125" on="1"/>
        <pt x="488" y="135" on="0"/>
        <pt x="488" y="154" on="1"/>
        <pt x="488" y="202" on="0"/>
        <pt x="497" y="252" on="1"/>
        <pt x="594" y="270" on="0"/>
        <pt x="727" y="344" on="1"/>
        <pt x="352" y="311" on="0"/>
        <pt x="255" y="311" on="1"/>
        <pt x="212" y="337" on="0"/>
        <pt x="178" y="369" on="0"/>
        <pt x="178" y="386" on="1"/>
        <pt x="178" y="392" on="0"/>
        <pt x="181" y="399" on="1"/>
        <pt x="486" y="425" on="0"/>
        <pt x="563" y="433" on="1"/>
        <pt x="662" y="445" on="1"/>
        <pt x="704" y="450" on="0"/>
        <pt x="731" y="451" on="1"/>
        <pt x="665" y="477" on="0"/>
        <pt x="619" y="517" on="1"/>
        <pt x="618" y="524" on="0"/>
        <pt x="618" y="539" on="1"/>
        <pt x="618" y="577" on="0"/>
      </contour>
    </TTGlyph>
    <TTGlyph name="bracketleft" xMin="-14" yMin="-160" xMax="580" yMax="798">
      <contour>
        <pt x="444" y="661" on="1"/>
        <pt x="147" y="-20" on="1"/>
        <pt x="244" y="-7" on="0"/>
        <pt x="280" y="-7" on="1"/>
        <pt x="307" y="-48" on="0"/>
        <pt x="307" y="-79" on="1"/>
        <pt x="307" y="-102" on="0"/>
        <pt x="297" y="-123" on="1"/>
        <pt x="296" y="-123" on="0"/>
        <pt x="208" y="-142" on="0"/>
        <pt x="103" y="-160" on="0"/>
        <pt x="74" y="-160" on="1"/>
        <pt x="68" y="-160" on="0"/>
        <pt x="44" y="-152" on="0"/>
        <pt x="0" y="-117" on="0"/>
        <pt x="-14" y="-88" on="1"/>
        <pt x="246" y="559" on="0"/>
        <pt x="347" y="752" on="1"/>
        <pt x="350" y="761" on="0"/>
        <pt x="363" y="777" on="1"/>
        <pt x="390" y="784" on="0"/>
        <pt x="554" y="798" on="1"/>
        <pt x="580" y="755" on="0"/>
        <pt x="580" y="725" on="1"/>
        <pt x="580" y="704" on="0"/>
        <pt x="571" y="681" on="1"/>
      </contour>
    </TTGlyph>
    <TTGlyph name="bracketright" xMin="43" yMin="-160" xMax="638" yMax="799">
      <contour>
        <pt x="52" y="-44" on="1"/>
        <pt x="179" y="-24" on="1"/>
        <pt x="476" y="657" on="1"/>
        <pt x="362" y="643" on="0"/>
        <pt x="342" y="643" on="1"/>
        <pt x="318" y="682" on="0"/>
        <pt x="318" y="713" on="1"/>
        <pt x="318" y="739" on="0"/>
        <pt x="327" y="761" on="1"/>
        <pt x="374" y="770" on="1"/>
        <pt x="420" y="780" on="0"/>
        <pt x="524" y="799" on="0"/>
        <pt x="536" y="799" on="1"/>
        <pt x="561" y="799" on="0"/>
        <pt x="625" y="760" on="0"/>
        <pt x="638" y="726" on="1"/>
        <pt x="523" y="445" on="0"/>
        <pt x="310" y="-45" on="1"/>
        <pt x="286" y="-97" on="0"/>
        <pt x="261" y="-140" on="1"/>
        <pt x="208" y="-156" on="0"/>
        <pt x="68" y="-160" on="1"/>
        <pt x="43" y="-117" on="0"/>
        <pt x="43" y="-88" on="1"/>
        <pt x="43" y="-66" on="0"/>
      </contour>
    </TTGlyph>
    <TTGlyph name="c" xMin="138" yMin="0" xMax="725" yMax="800">
      <contour>
        <pt x="725" y="656" on="1"/>
        <pt x="725" y="595" on="0"/>
        <pt x="629" y="447" on="0"/>
        <pt x="563" y="404" on="1"/>
        <pt x="518" y="500" on="1"/>
        <pt x="599" y="580" on="0"/>
        <pt x="599" y="639" on="1"/>
        <pt x="599" y="679" on="0"/>
        <pt x="570" y="679" on="1"/>
        <pt x="507" y="679" on="0"/>
        <pt x="408" y="536" on="1"/>
        <pt x="334" y="430" on="0"/>
        <pt x="256" y="246" on="0"/>
        <pt x="256" y="186" on="1"/>
        <pt x="256" y="117" on="0"/>
        <pt x="308" y="117" on="1"/>
        <pt x="370" y="117" on="0"/>
        <pt x="486" y="308" on="1"/>
        <pt x="576" y="245" on="1"/>
        <pt x="445" y="0" on="0"/>
        <pt x="318" y="0" on="1"/>
        <pt x="238" y="0" on="0"/>
        <pt x="138" y="114" on="0"/>
        <pt x="138" y="207" on="1"/>
        <pt x="138" y="311" on="0"/>
        <pt x="203" y="452" on="1"/>
        <pt x="275" y="606" on="0"/>
        <pt x="484" y="800" on="0"/>
        <pt x="583" y="800" on="1"/>
        <pt x="645" y="800" on="0"/>
        <pt x="725" y="719" on="0"/>
      </contour>
    </TTGlyph>
    <TTGlyph name="ccedilla" xMin="138" yMin="-180" xMax="725" yMax="800">
      <contour>
        <pt x="149" y="-144" on="1"/>
        <pt x="154" y="-135" on="1"/>
        <pt x="194" y="-101" on="0"/>
        <pt x="194" y="-29" on="1"/>
        <pt x="194" y="0" on="0"/>
        <pt x="230" y="0" on="1"/>
        <pt x="267" y="0" on="0"/>
        <pt x="267" y="-39" on="1"/>
        <pt x="267" y="-76" on="0"/>
        <pt x="218" y="-155" on="0"/>
        <pt x="182" y="-180" on="1"/>
        <pt x="156" y="-172" on="0"/>
      </contour>
      <contour>
        <pt x="725" y="656" on="1"/>
        <pt x="725" y="595" on="0"/>
        <pt x="629" y="447" on="0"/>
        <pt x="563" y="404" on="1"/>
        <pt x="518" y="500" on="1"/>
        <pt x="599" y="580" on="0"/>
        <pt x="599" y="639" on="1"/>
        <pt x="599" y="679" on="0"/>
        <pt x="570" y="679" on="1"/>
        <pt x="507" y="679" on="0"/>
        <pt x="408" y="536" on="1"/>
        <pt x="334" y="430" on="0"/>
        <pt x="256" y="246" on="0"/>
        <pt x="256" y="186" on="1"/>
        <pt x="256" y="117" on="0"/>
        <pt x="308" y="117" on="1"/>
        <pt x="370" y="117" on="0"/>
        <pt x="486" y="308" on="1"/>
        <pt x="576" y="245" on="1"/>
        <pt x="445" y="0" on="0"/>
        <pt x="318" y="0" on="1"/>
        <pt x="238" y="0" on="0"/>
        <pt x="138" y="114" on="0"/>
        <pt x="138" y="207" on="1"/>
        <pt x="138" y="311" on="0"/>
        <pt x="203" y="452" on="1"/>
        <pt x="275" y="606" on="0"/>
        <pt x="484" y="800" on="0"/>
        <pt x="583" y="800" on="1"/>
        <pt x="645" y="800" on="0"/>
        <pt x="725" y="719" on="0"/>
      </contour>
    </TTGlyph>
    <TTGlyph name="cedilla" xMin="-34" yMin="-180" xMax="84" yMax="0">
      <contour>
        <pt x="-34" y="-144" on="1"/>
        <pt x="-29" y="-135" on="1"/>
        <pt x="11" y="-101" on="0"/>
        <pt x="11" y="-29" on="1"/>
        <pt x="11" y="0" on="0"/>
        <pt x="47" y="0" on="1"/>
        <pt x="84" y="0" on="0"/>
        <pt x="84" y="-39" on="1"/>
        <pt x="84" y="-76" on="0"/>
        <pt x="35" y="-155" on="0"/>
        <pt x="-1" y="-180" on="1"/>
        <pt x="-26" y="-172" on="0"/>
      </contour>
    </TTGlyph>
    <TTGlyph name="cent" xMin="94" yMin="-3" xMax="640" yMax="770">
      <contour>
        <pt x="505" y="566" on="1"/>
        <pt x="497" y="586" on="1"/>
        <pt x="485" y="595" on="0"/>
        <pt x="468" y="595" on="1"/>
        <pt x="403" y="595" on="0"/>
        <pt x="314" y="443" on="1"/>
        <pt x="232" y="304" on="0"/>
        <pt x="232" y="226" on="1"/>
        <pt x="232" y="205" on="0"/>
        <pt x="265" y="174" on="0"/>
        <pt x="286" y="174" on="1"/>
        <pt x="311" y="174" on="0"/>
        <pt x="399" y="259" on="0"/>
        <pt x="435" y="316" on="1"/>
        <pt x="503" y="270" on="1"/>
        <pt x="405" y="85" on="0"/>
        <pt x="292" y="85" on="1"/>
        <pt x="265" y="85" on="0"/>
        <pt x="236" y="95" on="1"/>
        <pt x="177" y="21" on="0"/>
        <pt x="144" y="-3" on="1"/>
        <pt x="134" y="-3" on="0"/>
        <pt x="101" y="28" on="0"/>
        <pt x="94" y="39" on="1"/>
        <pt x="94" y="64" on="0"/>
        <pt x="169" y="144" on="1"/>
        <pt x="142" y="183" on="0"/>
        <pt x="142" y="240" on="1"/>
        <pt x="142" y="320" on="0"/>
        <pt x="196" y="431" on="1"/>
        <pt x="248" y="545" on="0"/>
        <pt x="403" y="687" on="0"/>
        <pt x="475" y="687" on="1"/>
        <pt x="489" y="687" on="0"/>
        <pt x="504" y="684" on="1"/>
        <pt x="550" y="742" on="0"/>
        <pt x="583" y="770" on="1"/>
        <pt x="628" y="752" on="0"/>
        <pt x="640" y="718" on="1"/>
        <pt x="626" y="696" on="0"/>
        <pt x="580" y="635" on="1"/>
        <pt x="599" y="610" on="0"/>
        <pt x="599" y="578" on="1"/>
        <pt x="599" y="530" on="0"/>
        <pt x="528" y="421" on="0"/>
        <pt x="477" y="388" on="1"/>
        <pt x="444" y="462" on="1"/>
        <pt x="505" y="520" on="0"/>
      </contour>
    </TTGlyph>
    <TTGlyph name="circumflex" xMin="355" yMin="802" xMax="537" yMax="1008">
      <contour>
        <pt x="537" y="981" on="1"/>
        <pt x="477" y="804" on="1"/>
        <pt x="456" y="808" on="0"/>
        <pt x="437" y="829" on="1"/>
        <pt x="451" y="863" on="0"/>
        <pt x="469" y="920" on="1"/>
        <pt x="428" y="860" on="0"/>
        <pt x="395" y="802" on="1"/>
        <pt x="375" y="809" on="0"/>
        <pt x="355" y="830" on="1"/>
        <pt x="413" y="938" on="0"/>
        <pt x="492" y="1008" on="1"/>
        <pt x="520" y="1000" on="0"/>
      </contour>
    </TTGlyph>
    <TTGlyph name="colon" xMin="68" yMin="2" xMax="288" yMax="397">
      <contour>
        <pt x="197" y="397" on="0"/>
        <pt x="249" y="397" on="0"/>
        <pt x="288" y="358" on="0"/>
        <pt x="288" y="304" on="0"/>
        <pt x="249" y="266" on="0"/>
        <pt x="222" y="266" on="1"/>
        <pt x="196" y="266" on="0"/>
        <pt x="158" y="304" on="0"/>
        <pt x="158" y="358" on="0"/>
      </contour>
      <contour>
        <pt x="132" y="133" on="1"/>
        <pt x="159" y="133" on="0"/>
        <pt x="198" y="94" on="0"/>
        <pt x="198" y="68" on="1"/>
        <pt x="198" y="41" on="0"/>
        <pt x="159" y="2" on="0"/>
        <pt x="132" y="2" on="1"/>
        <pt x="106" y="2" on="0"/>
        <pt x="68" y="41" on="0"/>
        <pt x="68" y="68" on="1"/>
        <pt x="68" y="94" on="0"/>
        <pt x="106" y="133" on="0"/>
      </contour>
    </TTGlyph>
    <TTGlyph name="comma" xMin="-34" yMin="-184" xMax="240" yMax="129">
      <contour>
        <pt x="-34" y="-129" on="1"/>
        <pt x="-34" y="-106" on="0"/>
        <pt x="51" y="3" on="1"/>
        <pt x="125" y="97" on="0"/>
        <pt x="165" y="129" on="1"/>
        <pt x="222" y="110" on="0"/>
        <pt x="240" y="60" on="1"/>
        <pt x="203" y="16" on="0"/>
        <pt x="101" y="-120" on="0"/>
        <pt x="60" y="-171" on="1"/>
        <pt x="46" y="-184" on="0"/>
        <pt x="30" y="-184" on="1"/>
        <pt x="19" y="-184" on="0"/>
        <pt x="-34" y="-139" on="0"/>
      </contour>
    </TTGlyph>
    <TTGlyph name="copyright" xMin="214" yMin="1" xMax="1014" yMax="802">
      <contour>
        <pt x="702" y="403" on="1"/>
        <pt x="677" y="457" on="1"/>
        <pt x="722" y="502" on="0"/>
        <pt x="722" y="535" on="1"/>
        <pt x="717" y="558" on="0"/>
        <pt x="700" y="558" on="1"/>
        <pt x="647" y="558" on="0"/>
        <pt x="581" y="443" on="1"/>
        <pt x="518" y="335" on="0"/>
        <pt x="518" y="280" on="1"/>
        <pt x="518" y="242" on="0"/>
        <pt x="558" y="242" on="1"/>
        <pt x="578" y="242" on="0"/>
        <pt x="644" y="307" on="0"/>
        <pt x="669" y="348" on="1"/>
        <pt x="719" y="314" on="1"/>
        <pt x="646" y="175" on="0"/>
        <pt x="562" y="175" on="1"/>
        <pt x="510" y="175" on="0"/>
        <pt x="450" y="239" on="0"/>
        <pt x="450" y="292" on="1"/>
        <pt x="450" y="387" on="0"/>
        <pt x="527" y="503" on="1"/>
        <pt x="610" y="626" on="0"/>
        <pt x="701" y="626" on="1"/>
        <pt x="738" y="626" on="0"/>
        <pt x="793" y="580" on="0"/>
        <pt x="793" y="545" on="1"/>
        <pt x="793" y="508" on="0"/>
        <pt x="738" y="426" on="0"/>
      </contour>
      <contour>
        <pt x="760" y="752" on="0"/>
        <pt x="470" y="752" on="0"/>
        <pt x="264" y="546" on="0"/>
        <pt x="264" y="254" on="0"/>
        <pt x="469" y="48" on="0"/>
        <pt x="615" y="48" on="1"/>
        <pt x="760" y="48" on="0"/>
        <pt x="968" y="255" on="0"/>
        <pt x="968" y="400" on="1"/>
        <pt x="968" y="546" on="0"/>
      </contour>
      <contour>
        <pt x="214" y="402" on="1"/>
        <pt x="214" y="567" on="0"/>
        <pt x="449" y="802" on="0"/>
        <pt x="779" y="802" on="0"/>
        <pt x="1014" y="567" on="0"/>
        <pt x="1014" y="237" on="0"/>
        <pt x="779" y="1" on="0"/>
        <pt x="614" y="1" on="1"/>
        <pt x="448" y="1" on="0"/>
        <pt x="214" y="236" on="0"/>
      </contour>
    </TTGlyph>
    <TTGlyph name="d" xMin="70" yMin="0" xMax="714" yMax="800">
      <contour>
        <pt x="389" y="541" on="1"/>
        <pt x="234" y="123" on="1"/>
        <pt x="248" y="110" on="0"/>
        <pt x="269" y="110" on="1"/>
        <pt x="326" y="110" on="0"/>
        <pt x="483" y="289" on="0"/>
        <pt x="593" y="521" on="0"/>
        <pt x="593" y="594" on="1"/>
        <pt x="593" y="634" on="0"/>
        <pt x="561" y="679" on="0"/>
        <pt x="533" y="679" on="1"/>
        <pt x="474" y="679" on="0"/>
      </contour>
      <contour>
        <pt x="158" y="14" on="1"/>
        <pt x="89" y="41" on="0"/>
        <pt x="77" y="53" on="1"/>
        <pt x="72" y="59" on="0"/>
        <pt x="70" y="66" on="1"/>
        <pt x="345" y="800" on="1"/>
        <pt x="380" y="793" on="0"/>
        <pt x="385" y="790" on="1"/>
        <pt x="391" y="787" on="0"/>
        <pt x="439" y="753" on="1"/>
        <pt x="519" y="797" on="0"/>
        <pt x="579" y="797" on="1"/>
        <pt x="643" y="797" on="0"/>
        <pt x="714" y="695" on="0"/>
        <pt x="714" y="604" on="1"/>
        <pt x="714" y="483" on="0"/>
        <pt x="655" y="342" on="1"/>
        <pt x="589" y="185" on="0"/>
        <pt x="375" y="0" on="0"/>
        <pt x="255" y="0" on="1"/>
        <pt x="208" y="0" on="0"/>
      </contour>
    </TTGlyph>
    <TTGlyph name="degree" xMin="280" yMin="507" xMax="654" yMax="862">
      <contour>
        <pt x="538" y="803" on="1"/>
        <pt x="525" y="814" on="0"/>
        <pt x="511" y="814" on="1"/>
        <pt x="470" y="814" on="0"/>
        <pt x="379" y="668" on="0"/>
        <pt x="379" y="611" on="1"/>
        <pt x="379" y="589" on="0"/>
        <pt x="401" y="557" on="0"/>
        <pt x="419" y="557" on="1"/>
        <pt x="460" y="557" on="0"/>
        <pt x="551" y="700" on="0"/>
        <pt x="551" y="757" on="1"/>
        <pt x="551" y="777" on="0"/>
      </contour>
      <contour>
        <pt x="558" y="853" on="1"/>
        <pt x="654" y="824" on="0"/>
        <pt x="654" y="730" on="1"/>
        <pt x="654" y="646" on="0"/>
        <pt x="512" y="507" on="0"/>
        <pt x="431" y="507" on="1"/>
        <pt x="362" y="507" on="0"/>
        <pt x="280" y="582" on="0"/>
        <pt x="280" y="638" on="1"/>
        <pt x="280" y="724" on="0"/>
        <pt x="422" y="862" on="0"/>
        <pt x="502" y="862" on="1"/>
        <pt x="532" y="862" on="0"/>
      </contour>
    </TTGlyph>
    <TTGlyph name="dieresis" xMin="391" yMin="869" xMax="586" yMax="944">
      <contour>
        <pt x="512" y="907" on="1"/>
        <pt x="512" y="944" on="0"/>
        <pt x="586" y="944" on="0"/>
        <pt x="586" y="907" on="1"/>
        <pt x="586" y="869" on="0"/>
        <pt x="512" y="869" on="0"/>
      </contour>
      <contour>
        <pt x="391" y="907" on="1"/>
        <pt x="391" y="944" on="0"/>
        <pt x="429" y="944" on="1"/>
        <pt x="466" y="944" on="0"/>
        <pt x="466" y="907" on="1"/>
        <pt x="466" y="869" on="0"/>
        <pt x="429" y="869" on="1"/>
        <pt x="391" y="869" on="0"/>
      </contour>
    </TTGlyph>
    <TTGlyph name="divide" xMin="176" yMin="150" xMax="517" yMax="621">
      <contour>
        <pt x="324" y="281" on="0"/>
        <pt x="376" y="281" on="0"/>
        <pt x="415" y="243" on="0"/>
        <pt x="415" y="217" on="1"/>
        <pt x="415" y="190" on="0"/>
        <pt x="377" y="150" on="0"/>
        <pt x="323" y="150" on="0"/>
        <pt x="285" y="189" on="0"/>
        <pt x="285" y="215" on="1"/>
        <pt x="285" y="242" on="0"/>
      </contour>
      <contour>
        <pt x="276" y="556" on="1"/>
        <pt x="277" y="583" on="0"/>
        <pt x="315" y="621" on="0"/>
        <pt x="342" y="621" on="1"/>
        <pt x="367" y="621" on="0"/>
        <pt x="406" y="584" on="0"/>
        <pt x="406" y="558" on="1"/>
        <pt x="406" y="530" on="0"/>
        <pt x="368" y="490" on="0"/>
        <pt x="341" y="490" on="1"/>
        <pt x="315" y="490" on="0"/>
        <pt x="277" y="529" on="0"/>
      </contour>
      <contour>
        <pt x="176" y="388" on="1"/>
        <pt x="195" y="414" on="0"/>
        <pt x="327" y="440" on="1"/>
        <pt x="440" y="462" on="0"/>
        <pt x="498" y="462" on="1"/>
        <pt x="517" y="425" on="0"/>
        <pt x="517" y="395" on="1"/>
        <pt x="517" y="379" on="0"/>
        <pt x="509" y="361" on="1"/>
        <pt x="510" y="360" on="0"/>
        <pt x="382" y="330" on="0"/>
        <pt x="237" y="300" on="0"/>
        <pt x="220" y="300" on="1"/>
        <pt x="176" y="300" on="0"/>
      </contour>
    </TTGlyph>
    <TTGlyph name="dollar" xMin="101" yMin="-5" xMax="627" yMax="828">
      <contour>
        <pt x="163" y="121" on="1"/>
        <pt x="139" y="133" on="1"/>
        <pt x="119" y="133" on="0"/>
        <pt x="119" y="158" on="1"/>
        <pt x="119" y="176" on="0"/>
        <pt x="142" y="226" on="0"/>
        <pt x="157" y="226" on="1"/>
        <pt x="166" y="226" on="0"/>
        <pt x="279" y="190" on="0"/>
        <pt x="294" y="190" on="1"/>
        <pt x="359" y="190" on="0"/>
        <pt x="391" y="246" on="1"/>
        <pt x="391" y="276" on="0"/>
        <pt x="336" y="329" on="0"/>
        <pt x="271" y="365" on="0"/>
        <pt x="216" y="420" on="0"/>
        <pt x="216" y="451" on="1"/>
        <pt x="216" y="539" on="0"/>
        <pt x="381" y="700" on="0"/>
        <pt x="468" y="700" on="1"/>
        <pt x="485" y="700" on="0"/>
        <pt x="491" y="701" on="1"/>
        <pt x="491" y="722" on="0"/>
        <pt x="570" y="828" on="1"/>
        <pt x="615" y="808" on="0"/>
        <pt x="627" y="776" on="1"/>
        <pt x="599" y="728" on="0"/>
        <pt x="554" y="663" on="1"/>
        <pt x="579" y="635" on="0"/>
        <pt x="579" y="593" on="1"/>
        <pt x="579" y="525" on="0"/>
        <pt x="527" y="470" on="1"/>
        <pt x="451" y="511" on="1"/>
        <pt x="482" y="560" on="0"/>
        <pt x="482" y="581" on="1"/>
        <pt x="482" y="606" on="0"/>
        <pt x="460" y="606" on="1"/>
        <pt x="423" y="606" on="0"/>
        <pt x="332" y="513" on="0"/>
        <pt x="332" y="475" on="1"/>
        <pt x="332" y="447" on="0"/>
        <pt x="376" y="418" on="1"/>
        <pt x="456" y="365" on="0"/>
        <pt x="500" y="303" on="0"/>
        <pt x="500" y="246" on="1"/>
        <pt x="500" y="183" on="0"/>
        <pt x="369" y="100" on="0"/>
        <pt x="277" y="100" on="1"/>
        <pt x="260" y="100" on="0"/>
        <pt x="252" y="101" on="1"/>
        <pt x="173" y="-5" on="0"/>
        <pt x="151" y="-5" on="1"/>
        <pt x="140" y="-5" on="0"/>
        <pt x="108" y="24" on="0"/>
        <pt x="101" y="36" on="1"/>
        <pt x="119" y="71" on="0"/>
      </contour>
    </TTGlyph>
    <TTGlyph name="e" xMin="89" yMin="0" xMax="654" yMax="801">
      <contour>
        <pt x="297" y="759" on="1"/>
        <pt x="400" y="789" on="0"/>
        <pt x="466" y="801" on="0"/>
        <pt x="530" y="801" on="1"/>
        <pt x="574" y="801" on="0"/>
        <pt x="610" y="800" on="1"/>
        <pt x="627" y="790" on="0"/>
        <pt x="654" y="739" on="0"/>
        <pt x="654" y="715" on="1"/>
        <pt x="654" y="692" on="0"/>
        <pt x="645" y="670" on="1"/>
        <pt x="627" y="673" on="0"/>
        <pt x="603" y="673" on="1"/>
        <pt x="536" y="673" on="0"/>
        <pt x="468" y="649" on="1"/>
        <pt x="389" y="458" on="1"/>
        <pt x="425" y="471" on="0"/>
        <pt x="466" y="471" on="1"/>
        <pt x="496" y="471" on="0"/>
        <pt x="523" y="463" on="1"/>
        <pt x="529" y="450" on="0"/>
        <pt x="529" y="430" on="1"/>
        <pt x="529" y="396" on="0"/>
        <pt x="513" y="358" on="1"/>
        <pt x="487" y="358" on="1"/>
        <pt x="402" y="358" on="0"/>
        <pt x="341" y="333" on="1"/>
        <pt x="252" y="130" on="1"/>
        <pt x="306" y="148" on="0"/>
        <pt x="366" y="148" on="1"/>
        <pt x="396" y="148" on="0"/>
        <pt x="435" y="142" on="1"/>
        <pt x="469" y="102" on="0"/>
        <pt x="469" y="52" on="1"/>
        <pt x="469" y="41" on="1"/>
        <pt x="465" y="48" on="0"/>
        <pt x="429" y="48" on="1"/>
        <pt x="369" y="48" on="0"/>
        <pt x="183" y="13" on="0"/>
        <pt x="176" y="0" on="1"/>
        <pt x="115" y="19" on="0"/>
        <pt x="89" y="71" on="1"/>
        <pt x="190" y="318" on="1"/>
        <pt x="176" y="416" on="0"/>
        <pt x="176" y="424" on="1"/>
        <pt x="203" y="435" on="0"/>
        <pt x="239" y="438" on="1"/>
        <pt x="318" y="631" on="1"/>
        <pt x="300" y="702" on="0"/>
      </contour>
    </TTGlyph>
    <TTGlyph name="eacute" xMin="89" yMin="0" xMax="699" yMax="1008">
      <contour>
        <pt x="699" y="970" on="1"/>
        <pt x="650" y="904" on="0"/>
        <pt x="588" y="832" on="1"/>
        <pt x="547" y="832" on="0"/>
        <pt x="542" y="863" on="1"/>
        <pt x="556" y="889" on="0"/>
        <pt x="635" y="991" on="0"/>
        <pt x="656" y="1008" on="1"/>
        <pt x="688" y="995" on="0"/>
      </contour>
      <contour>
        <pt x="297" y="759" on="1"/>
        <pt x="400" y="789" on="0"/>
        <pt x="466" y="801" on="0"/>
        <pt x="530" y="801" on="1"/>
        <pt x="574" y="801" on="0"/>
        <pt x="610" y="800" on="1"/>
        <pt x="627" y="790" on="0"/>
        <pt x="654" y="739" on="0"/>
        <pt x="654" y="715" on="1"/>
        <pt x="654" y="692" on="0"/>
        <pt x="645" y="670" on="1"/>
        <pt x="627" y="673" on="0"/>
        <pt x="603" y="673" on="1"/>
        <pt x="536" y="673" on="0"/>
        <pt x="468" y="649" on="1"/>
        <pt x="389" y="458" on="1"/>
        <pt x="425" y="471" on="0"/>
        <pt x="466" y="471" on="1"/>
        <pt x="496" y="471" on="0"/>
        <pt x="523" y="463" on="1"/>
        <pt x="529" y="450" on="0"/>
        <pt x="529" y="430" on="1"/>
        <pt x="529" y="396" on="0"/>
        <pt x="513" y="358" on="1"/>
        <pt x="487" y="358" on="1"/>
        <pt x="402" y="358" on="0"/>
        <pt x="341" y="333" on="1"/>
        <pt x="252" y="130" on="1"/>
        <pt x="306" y="148" on="0"/>
        <pt x="366" y="148" on="1"/>
        <pt x="396" y="148" on="0"/>
        <pt x="435" y="142" on="1"/>
        <pt x="469" y="102" on="0"/>
        <pt x="469" y="52" on="1"/>
        <pt x="469" y="41" on="1"/>
        <pt x="465" y="48" on="0"/>
        <pt x="429" y="48" on="1"/>
        <pt x="369" y="48" on="0"/>
        <pt x="183" y="13" on="0"/>
        <pt x="176" y="0" on="1"/>
        <pt x="115" y="19" on="0"/>
        <pt x="89" y="71" on="1"/>
        <pt x="190" y="318" on="1"/>
        <pt x="176" y="416" on="0"/>
        <pt x="176" y="424" on="1"/>
        <pt x="203" y="435" on="0"/>
        <pt x="239" y="438" on="1"/>
        <pt x="318" y="631" on="1"/>
        <pt x="300" y="702" on="0"/>
      </contour>
    </TTGlyph>
    <TTGlyph name="ecircumflex" xMin="89" yMin="0" xMax="654" yMax="1008">
      <contour>
        <pt x="650" y="981" on="1"/>
        <pt x="590" y="804" on="1"/>
        <pt x="569" y="808" on="0"/>
        <pt x="550" y="829" on="1"/>
        <pt x="564" y="863" on="0"/>
        <pt x="582" y="920" on="1"/>
        <pt x="541" y="860" on="0"/>
        <pt x="508" y="802" on="1"/>
        <pt x="488" y="809" on="0"/>
        <pt x="468" y="830" on="1"/>
        <pt x="526" y="938" on="0"/>
        <pt x="605" y="1008" on="1"/>
        <pt x="634" y="1000" on="0"/>
      </contour>
      <contour>
        <pt x="297" y="759" on="1"/>
        <pt x="400" y="789" on="0"/>
        <pt x="466" y="801" on="0"/>
        <pt x="530" y="801" on="1"/>
        <pt x="574" y="801" on="0"/>
        <pt x="610" y="800" on="1"/>
        <pt x="627" y="790" on="0"/>
        <pt x="654" y="739" on="0"/>
        <pt x="654" y="715" on="1"/>
        <pt x="654" y="692" on="0"/>
        <pt x="645" y="670" on="1"/>
        <pt x="627" y="673" on="0"/>
        <pt x="603" y="673" on="1"/>
        <pt x="536" y="673" on="0"/>
        <pt x="468" y="649" on="1"/>
        <pt x="389" y="458" on="1"/>
        <pt x="425" y="471" on="0"/>
        <pt x="466" y="471" on="1"/>
        <pt x="496" y="471" on="0"/>
        <pt x="523" y="463" on="1"/>
        <pt x="529" y="450" on="0"/>
        <pt x="529" y="430" on="1"/>
        <pt x="529" y="396" on="0"/>
        <pt x="513" y="358" on="1"/>
        <pt x="487" y="358" on="1"/>
        <pt x="402" y="358" on="0"/>
        <pt x="341" y="333" on="1"/>
        <pt x="252" y="130" on="1"/>
        <pt x="306" y="148" on="0"/>
        <pt x="366" y="148" on="1"/>
        <pt x="396" y="148" on="0"/>
        <pt x="435" y="142" on="1"/>
        <pt x="469" y="102" on="0"/>
        <pt x="469" y="52" on="1"/>
        <pt x="469" y="41" on="1"/>
        <pt x="465" y="48" on="0"/>
        <pt x="429" y="48" on="1"/>
        <pt x="369" y="48" on="0"/>
        <pt x="183" y="13" on="0"/>
        <pt x="176" y="0" on="1"/>
        <pt x="115" y="19" on="0"/>
        <pt x="89" y="71" on="1"/>
        <pt x="190" y="318" on="1"/>
        <pt x="176" y="416" on="0"/>
        <pt x="176" y="424" on="1"/>
        <pt x="203" y="435" on="0"/>
        <pt x="239" y="438" on="1"/>
        <pt x="318" y="631" on="1"/>
        <pt x="300" y="702" on="0"/>
      </contour>
    </TTGlyph>
    <TTGlyph name="edieresis" xMin="89" yMin="0" xMax="684" yMax="944">
      <contour>
        <pt x="610" y="907" on="1"/>
        <pt x="610" y="944" on="0"/>
        <pt x="684" y="944" on="0"/>
        <pt x="684" y="907" on="1"/>
        <pt x="684" y="869" on="0"/>
        <pt x="610" y="869" on="0"/>
      </contour>
      <contour>
        <pt x="489" y="907" on="1"/>
        <pt x="489" y="944" on="0"/>
        <pt x="527" y="944" on="1"/>
        <pt x="564" y="944" on="0"/>
        <pt x="564" y="907" on="1"/>
        <pt x="564" y="869" on="0"/>
        <pt x="527" y="869" on="1"/>
        <pt x="489" y="869" on="0"/>
      </contour>
      <contour>
        <pt x="297" y="759" on="1"/>
        <pt x="400" y="789" on="0"/>
        <pt x="466" y="801" on="0"/>
        <pt x="530" y="801" on="1"/>
        <pt x="574" y="801" on="0"/>
        <pt x="610" y="800" on="1"/>
        <pt x="627" y="790" on="0"/>
        <pt x="654" y="739" on="0"/>
        <pt x="654" y="715" on="1"/>
        <pt x="654" y="692" on="0"/>
        <pt x="645" y="670" on="1"/>
        <pt x="627" y="673" on="0"/>
        <pt x="603" y="673" on="1"/>
        <pt x="536" y="673" on="0"/>
        <pt x="468" y="649" on="1"/>
        <pt x="389" y="458" on="1"/>
        <pt x="425" y="471" on="0"/>
        <pt x="466" y="471" on="1"/>
        <pt x="496" y="471" on="0"/>
        <pt x="523" y="463" on="1"/>
        <pt x="529" y="450" on="0"/>
        <pt x="529" y="430" on="1"/>
        <pt x="529" y="396" on="0"/>
        <pt x="513" y="358" on="1"/>
        <pt x="487" y="358" on="1"/>
        <pt x="402" y="358" on="0"/>
        <pt x="341" y="333" on="1"/>
        <pt x="252" y="130" on="1"/>
        <pt x="306" y="148" on="0"/>
        <pt x="366" y="148" on="1"/>
        <pt x="396" y="148" on="0"/>
        <pt x="435" y="142" on="1"/>
        <pt x="469" y="102" on="0"/>
        <pt x="469" y="52" on="1"/>
        <pt x="469" y="41" on="1"/>
        <pt x="465" y="48" on="0"/>
        <pt x="429" y="48" on="1"/>
        <pt x="369" y="48" on="0"/>
        <pt x="183" y="13" on="0"/>
        <pt x="176" y="0" on="1"/>
        <pt x="115" y="19" on="0"/>
        <pt x="89" y="71" on="1"/>
        <pt x="190" y="318" on="1"/>
        <pt x="176" y="416" on="0"/>
        <pt x="176" y="424" on="1"/>
        <pt x="203" y="435" on="0"/>
        <pt x="239" y="438" on="1"/>
        <pt x="318" y="631" on="1"/>
        <pt x="300" y="702" on="0"/>
      </contour>
    </TTGlyph>
    <TTGlyph name="egrave" xMin="89" yMin="0" xMax="654" yMax="1008">
      <contour>
        <pt x="601" y="831" on="1"/>
        <pt x="593" y="832" on="1"/>
        <pt x="550" y="888" on="0"/>
        <pt x="482" y="970" on="1"/>
        <pt x="493" y="995" on="0"/>
        <pt x="525" y="1008" on="1"/>
        <pt x="596" y="946" on="0"/>
        <pt x="639" y="863" on="1"/>
        <pt x="628" y="840" on="0"/>
      </contour>
      <contour>
        <pt x="297" y="759" on="1"/>
        <pt x="400" y="789" on="0"/>
        <pt x="466" y="801" on="0"/>
        <pt x="530" y="801" on="1"/>
        <pt x="574" y="801" on="0"/>
        <pt x="610" y="800" on="1"/>
        <pt x="627" y="790" on="0"/>
        <pt x="654" y="739" on="0"/>
        <pt x="654" y="715" on="1"/>
        <pt x="654" y="692" on="0"/>
        <pt x="645" y="670" on="1"/>
        <pt x="627" y="673" on="0"/>
        <pt x="603" y="673" on="1"/>
        <pt x="536" y="673" on="0"/>
        <pt x="468" y="649" on="1"/>
        <pt x="389" y="458" on="1"/>
        <pt x="425" y="471" on="0"/>
        <pt x="466" y="471" on="1"/>
        <pt x="496" y="471" on="0"/>
        <pt x="523" y="463" on="1"/>
        <pt x="529" y="450" on="0"/>
        <pt x="529" y="430" on="1"/>
        <pt x="529" y="396" on="0"/>
        <pt x="513" y="358" on="1"/>
        <pt x="487" y="358" on="1"/>
        <pt x="402" y="358" on="0"/>
        <pt x="341" y="333" on="1"/>
        <pt x="252" y="130" on="1"/>
        <pt x="306" y="148" on="0"/>
        <pt x="366" y="148" on="1"/>
        <pt x="396" y="148" on="0"/>
        <pt x="435" y="142" on="1"/>
        <pt x="469" y="102" on="0"/>
        <pt x="469" y="52" on="1"/>
        <pt x="469" y="41" on="1"/>
        <pt x="465" y="48" on="0"/>
        <pt x="429" y="48" on="1"/>
        <pt x="369" y="48" on="0"/>
        <pt x="183" y="13" on="0"/>
        <pt x="176" y="0" on="1"/>
        <pt x="115" y="19" on="0"/>
        <pt x="89" y="71" on="1"/>
        <pt x="190" y="318" on="1"/>
        <pt x="176" y="416" on="0"/>
        <pt x="176" y="424" on="1"/>
        <pt x="203" y="435" on="0"/>
        <pt x="239" y="438" on="1"/>
        <pt x="318" y="631" on="1"/>
        <pt x="300" y="702" on="0"/>
      </contour>
    </TTGlyph>
    <TTGlyph name="eight" xMin="127" yMin="0" xMax="755" yMax="803">
      <contour>
        <pt x="365" y="120" on="1"/>
        <pt x="426" y="120" on="0"/>
        <pt x="529" y="236" on="0"/>
        <pt x="529" y="300" on="1"/>
        <pt x="529" y="344" on="0"/>
        <pt x="471" y="409" on="0"/>
        <pt x="429" y="409" on="1"/>
        <pt x="368" y="409" on="0"/>
        <pt x="271" y="290" on="0"/>
        <pt x="271" y="221" on="1"/>
        <pt x="271" y="178" on="0"/>
        <pt x="324" y="120" on="0"/>
      </contour>
      <contour>
        <pt x="492" y="520" on="1"/>
        <pt x="501" y="520" on="1"/>
        <pt x="549" y="520" on="0"/>
        <pt x="620" y="590" on="0"/>
        <pt x="620" y="638" on="1"/>
        <pt x="620" y="663" on="0"/>
        <pt x="582" y="699" on="0"/>
        <pt x="557" y="699" on="1"/>
        <pt x="520" y="699" on="0"/>
        <pt x="456" y="623" on="0"/>
        <pt x="456" y="584" on="1"/>
        <pt x="456" y="541" on="0"/>
      </contour>
      <contour>
        <pt x="127" y="211" on="1"/>
        <pt x="128" y="306" on="0"/>
        <pt x="257" y="477" on="0"/>
        <pt x="348" y="506" on="1"/>
        <pt x="320" y="545" on="0"/>
        <pt x="320" y="592" on="1"/>
        <pt x="320" y="675" on="0"/>
        <pt x="466" y="803" on="0"/>
        <pt x="551" y="803" on="1"/>
        <pt x="632" y="803" on="0"/>
        <pt x="755" y="705" on="0"/>
        <pt x="755" y="637" on="1"/>
        <pt x="755" y="577" on="0"/>
        <pt x="666" y="467" on="0"/>
        <pt x="601" y="445" on="1"/>
        <pt x="675" y="373" on="0"/>
        <pt x="675" y="280" on="1"/>
        <pt x="675" y="169" on="0"/>
        <pt x="485" y="0" on="0"/>
        <pt x="366" y="0" on="1"/>
        <pt x="258" y="0" on="0"/>
        <pt x="127" y="107" on="0"/>
      </contour>
    </TTGlyph>
    <TTGlyph name="ellipsis" xMin="52" yMin="2" xMax="548" yMax="133">
      <contour>
        <pt x="482" y="133" on="1"/>
        <pt x="509" y="133" on="0"/>
        <pt x="548" y="94" on="0"/>
        <pt x="548" y="68" on="1"/>
        <pt x="548" y="41" on="0"/>
        <pt x="509" y="2" on="0"/>
        <pt x="482" y="2" on="1"/>
        <pt x="456" y="2" on="0"/>
        <pt x="418" y="41" on="0"/>
        <pt x="418" y="68" on="1"/>
        <pt x="418" y="94" on="0"/>
        <pt x="456" y="133" on="0"/>
      </contour>
      <contour>
        <pt x="299" y="133" on="1"/>
        <pt x="326" y="133" on="0"/>
        <pt x="365" y="94" on="0"/>
        <pt x="365" y="68" on="1"/>
        <pt x="365" y="41" on="0"/>
        <pt x="326" y="2" on="0"/>
        <pt x="299" y="2" on="1"/>
        <pt x="273" y="2" on="0"/>
        <pt x="235" y="41" on="0"/>
        <pt x="235" y="68" on="1"/>
        <pt x="235" y="94" on="0"/>
        <pt x="273" y="133" on="0"/>
      </contour>
      <contour>
        <pt x="116" y="133" on="1"/>
        <pt x="143" y="133" on="0"/>
        <pt x="182" y="94" on="0"/>
        <pt x="182" y="68" on="1"/>
        <pt x="182" y="41" on="0"/>
        <pt x="143" y="2" on="0"/>
        <pt x="116" y="2" on="1"/>
        <pt x="90" y="2" on="0"/>
        <pt x="52" y="41" on="0"/>
        <pt x="52" y="68" on="1"/>
        <pt x="52" y="94" on="0"/>
        <pt x="90" y="133" on="0"/>
      </contour>
    </TTGlyph>
    <TTGlyph name="emdash" xMin="186" yMin="336" xMax="1257" yMax="484">
      <contour>
        <pt x="186" y="417" on="1"/>
        <pt x="186" y="425" on="0"/>
        <pt x="271" y="434" on="1"/>
        <pt x="372" y="444" on="0"/>
        <pt x="1101" y="484" on="0"/>
        <pt x="1201" y="484" on="1"/>
        <pt x="1257" y="452" on="0"/>
        <pt x="1257" y="427" on="1"/>
        <pt x="1257" y="407" on="0"/>
        <pt x="1235" y="392" on="1"/>
        <pt x="1169" y="388" on="0"/>
        <pt x="897" y="372" on="0"/>
        <pt x="633" y="355" on="0"/>
        <pt x="483" y="343" on="1"/>
        <pt x="405" y="336" on="0"/>
        <pt x="322" y="336" on="1"/>
        <pt x="244" y="336" on="0"/>
        <pt x="186" y="370" on="0"/>
      </contour>
    </TTGlyph>
    <TTGlyph name="endash" xMin="186" yMin="316" xMax="1003" yMax="489">
      <contour>
        <pt x="186" y="410" on="1"/>
        <pt x="186" y="420" on="0"/>
        <pt x="251" y="431" on="1"/>
        <pt x="326" y="443" on="0"/>
        <pt x="881" y="489" on="0"/>
        <pt x="959" y="489" on="1"/>
        <pt x="1003" y="448" on="0"/>
        <pt x="1003" y="422" on="1"/>
        <pt x="1003" y="401" on="0"/>
        <pt x="986" y="381" on="1"/>
        <pt x="646" y="352" on="0"/>
        <pt x="532" y="339" on="1"/>
        <pt x="335" y="316" on="0"/>
        <pt x="289" y="316" on="1"/>
        <pt x="229" y="316" on="0"/>
        <pt x="186" y="355" on="0"/>
      </contour>
    </TTGlyph>
    <TTGlyph name="equal" xMin="181" yMin="143" xMax="523" yMax="475">
      <contour>
        <pt x="181" y="231" on="1"/>
        <pt x="199" y="257" on="0"/>
        <pt x="333" y="283" on="1"/>
        <pt x="451" y="306" on="0"/>
        <pt x="504" y="306" on="1"/>
        <pt x="523" y="268" on="0"/>
        <pt x="523" y="243" on="1"/>
        <pt x="523" y="225" on="0"/>
        <pt x="515" y="204" on="1"/>
        <pt x="515" y="203" on="0"/>
        <pt x="387" y="173" on="0"/>
        <pt x="241" y="143" on="0"/>
        <pt x="224" y="143" on="1"/>
        <pt x="181" y="143" on="0"/>
      </contour>
      <contour>
        <pt x="500" y="475" on="1"/>
        <pt x="504" y="475" on="1"/>
        <pt x="523" y="438" on="0"/>
        <pt x="523" y="413" on="1"/>
        <pt x="523" y="395" on="0"/>
        <pt x="515" y="374" on="1"/>
        <pt x="496" y="370" on="1"/>
        <pt x="477" y="365" on="0"/>
        <pt x="423" y="351" on="0"/>
        <pt x="355" y="336" on="0"/>
        <pt x="293" y="323" on="0"/>
        <pt x="237" y="314" on="0"/>
        <pt x="224" y="314" on="1"/>
        <pt x="182" y="314" on="0"/>
        <pt x="182" y="402" on="1"/>
        <pt x="198" y="427" on="0"/>
        <pt x="332" y="454" on="1"/>
        <pt x="441" y="475" on="0"/>
      </contour>
    </TTGlyph>
    <TTGlyph name="eth" xMin="96" yMin="-13" xMax="742" yMax="794">
      <contour>
        <pt x="243" y="471" on="1"/>
        <pt x="367" y="794" on="1"/>
        <pt x="403" y="788" on="0"/>
        <pt x="462" y="748" on="1"/>
        <pt x="544" y="794" on="0"/>
        <pt x="606" y="794" on="1"/>
        <pt x="742" y="794" on="0"/>
        <pt x="742" y="602" on="1"/>
        <pt x="742" y="527" on="0"/>
        <pt x="698" y="359" on="0"/>
        <pt x="612" y="198" on="0"/>
        <pt x="498" y="67" on="0"/>
        <pt x="342" y="-13" on="0"/>
        <pt x="258" y="-13" on="1"/>
        <pt x="236" y="-13" on="0"/>
        <pt x="186" y="-5" on="1"/>
        <pt x="130" y="24" on="0"/>
        <pt x="96" y="88" on="1"/>
        <pt x="194" y="343" on="1"/>
        <pt x="176" y="342" on="1"/>
        <pt x="173" y="342" on="1"/>
        <pt x="134" y="342" on="0"/>
        <pt x="134" y="430" on="1"/>
        <pt x="148" y="452" on="0"/>
      </contour>
      <contour>
        <pt x="354" y="380" on="1"/>
        <pt x="256" y="117" on="1"/>
        <pt x="258" y="117" on="0"/>
        <pt x="266" y="116" on="0"/>
        <pt x="268" y="116" on="1"/>
        <pt x="326" y="116" on="0"/>
        <pt x="456" y="223" on="0"/>
        <pt x="554" y="371" on="0"/>
        <pt x="618" y="530" on="0"/>
        <pt x="618" y="582" on="1"/>
        <pt x="618" y="674" on="0"/>
        <pt x="555" y="674" on="1"/>
        <pt x="518" y="674" on="0"/>
        <pt x="415" y="554" on="0"/>
        <pt x="398" y="499" on="1"/>
        <pt x="422" y="503" on="0"/>
        <pt x="445" y="503" on="1"/>
        <pt x="461" y="503" on="0"/>
        <pt x="477" y="471" on="0"/>
        <pt x="477" y="452" on="1"/>
        <pt x="477" y="429" on="0"/>
        <pt x="467" y="403" on="1"/>
        <pt x="414" y="394" on="0"/>
      </contour>
    </TTGlyph>
    <TTGlyph name="exclam" xMin="53" yMin="0" xMax="474" yMax="800">
      <contour>
        <pt x="118" y="130" on="1"/>
        <pt x="144" y="130" on="0"/>
        <pt x="182" y="92" on="0"/>
        <pt x="182" y="66" on="1"/>
        <pt x="182" y="38" on="0"/>
        <pt x="147" y="0" on="0"/>
        <pt x="120" y="0" on="1"/>
        <pt x="92" y="0" on="0"/>
        <pt x="53" y="38" on="0"/>
        <pt x="53" y="66" on="1"/>
        <pt x="53" y="93" on="0"/>
        <pt x="91" y="130" on="0"/>
      </contour>
      <contour>
        <pt x="121" y="217" on="1"/>
        <pt x="362" y="800" on="1"/>
        <pt x="364" y="800" on="1"/>
        <pt x="382" y="800" on="0"/>
        <pt x="452" y="767" on="0"/>
        <pt x="474" y="749" on="1"/>
        <pt x="228" y="170" on="1"/>
        <pt x="150" y="181" on="0"/>
      </contour>
    </TTGlyph>
    <TTGlyph name="exclamdown" xMin="40" yMin="0" xMax="461" yMax="801">
      <contour>
        <pt x="369" y="801" on="0"/>
        <pt x="423" y="801" on="0"/>
        <pt x="461" y="762" on="0"/>
        <pt x="461" y="736" on="1"/>
        <pt x="461" y="709" on="0"/>
        <pt x="423" y="670" on="0"/>
        <pt x="369" y="670" on="0"/>
        <pt x="331" y="709" on="0"/>
        <pt x="331" y="736" on="1"/>
        <pt x="331" y="762" on="0"/>
      </contour>
      <contour>
        <pt x="393" y="583" on="1"/>
        <pt x="153" y="0" on="1"/>
        <pt x="151" y="0" on="1"/>
        <pt x="98" y="0" on="0"/>
        <pt x="40" y="51" on="1"/>
        <pt x="285" y="630" on="1"/>
        <pt x="363" y="621" on="0"/>
      </contour>
    </TTGlyph>
    <TTGlyph name="f" xMin="92" yMin="0" xMax="645" yMax="801">
      <contour>
        <pt x="296" y="760" on="1"/>
        <pt x="401" y="790" on="0"/>
        <pt x="463" y="801" on="0"/>
        <pt x="524" y="801" on="1"/>
        <pt x="567" y="801" on="0"/>
        <pt x="602" y="800" on="1"/>
        <pt x="617" y="791" on="0"/>
        <pt x="645" y="741" on="0"/>
        <pt x="645" y="717" on="1"/>
        <pt x="645" y="696" on="0"/>
        <pt x="636" y="673" on="1"/>
        <pt x="622" y="675" on="0"/>
        <pt x="609" y="675" on="1"/>
        <pt x="553" y="675" on="0"/>
        <pt x="463" y="652" on="1"/>
        <pt x="386" y="465" on="1"/>
        <pt x="419" y="478" on="0"/>
        <pt x="461" y="478" on="1"/>
        <pt x="466" y="478" on="1"/>
        <pt x="486" y="478" on="0"/>
        <pt x="506" y="475" on="0"/>
        <pt x="523" y="456" on="0"/>
        <pt x="523" y="438" on="1"/>
        <pt x="523" y="404" on="0"/>
        <pt x="507" y="368" on="1"/>
        <pt x="487" y="368" on="1"/>
        <pt x="396" y="368" on="0"/>
        <pt x="339" y="343" on="1"/>
        <pt x="259" y="144" on="1"/>
        <pt x="201" y="0" on="0"/>
        <pt x="189" y="0" on="1"/>
        <pt x="178" y="0" on="0"/>
        <pt x="102" y="68" on="0"/>
        <pt x="92" y="86" on="1"/>
        <pt x="191" y="329" on="1"/>
        <pt x="177" y="424" on="0"/>
        <pt x="177" y="431" on="1"/>
        <pt x="197" y="442" on="0"/>
        <pt x="239" y="445" on="1"/>
        <pt x="316" y="634" on="1"/>
        <pt x="299" y="706" on="0"/>
      </contour>
    </TTGlyph>
    <TTGlyph name="five" xMin="114" yMin="0" xMax="738" yMax="800">
      <contour>
        <pt x="676" y="665" on="1"/>
        <pt x="428" y="665" on="1"/>
        <pt x="376" y="536" on="1"/>
        <pt x="411" y="541" on="0"/>
        <pt x="436" y="541" on="1"/>
        <pt x="537" y="541" on="0"/>
        <pt x="665" y="402" on="0"/>
        <pt x="665" y="299" on="1"/>
        <pt x="665" y="242" on="0"/>
        <pt x="640" y="182" on="1"/>
        <pt x="566" y="0" on="0"/>
        <pt x="363" y="0" on="1"/>
        <pt x="203" y="0" on="0"/>
        <pt x="115" y="100" on="1"/>
        <pt x="114" y="102" on="0"/>
        <pt x="114" y="107" on="1"/>
        <pt x="114" y="137" on="0"/>
        <pt x="147" y="174" on="1"/>
        <pt x="198" y="232" on="1"/>
        <pt x="274" y="135" on="0"/>
        <pt x="368" y="135" on="1"/>
        <pt x="426" y="135" on="0"/>
        <pt x="511" y="217" on="0"/>
        <pt x="511" y="274" on="1"/>
        <pt x="511" y="339" on="0"/>
        <pt x="440" y="422" on="0"/>
        <pt x="384" y="422" on="1"/>
        <pt x="348" y="422" on="0"/>
        <pt x="312" y="406" on="1"/>
        <pt x="288" y="422" on="0"/>
        <pt x="224" y="494" on="0"/>
        <pt x="222" y="509" on="1"/>
        <pt x="348" y="800" on="1"/>
        <pt x="731" y="799" on="1"/>
        <pt x="732" y="800" on="0"/>
        <pt x="733" y="800" on="1"/>
        <pt x="738" y="800" on="0"/>
        <pt x="738" y="790" on="1"/>
        <pt x="738" y="768" on="0"/>
        <pt x="696" y="665" on="0"/>
        <pt x="680" y="665" on="1"/>
      </contour>
    </TTGlyph>
    <TTGlyph name="four" xMin="148" yMin="0" xMax="733" yMax="800">
      <contour>
        <pt x="319" y="370" on="1"/>
        <pt x="449" y="370" on="1"/>
        <pt x="549" y="601" on="1"/>
        <pt x="438" y="543" on="0"/>
      </contour>
      <contour>
        <pt x="588" y="369" on="1"/>
        <pt x="658" y="369" on="1"/>
        <pt x="659" y="367" on="0"/>
        <pt x="659" y="358" on="1"/>
        <pt x="659" y="296" on="0"/>
        <pt x="620" y="238" on="1"/>
        <pt x="533" y="239" on="1"/>
        <pt x="436" y="0" on="1"/>
        <pt x="358" y="21" on="0"/>
        <pt x="330" y="76" on="1"/>
        <pt x="396" y="241" on="1"/>
        <pt x="175" y="241" on="1"/>
        <pt x="174" y="248" on="0"/>
        <pt x="148" y="319" on="0"/>
        <pt x="148" y="327" on="1"/>
        <pt x="148" y="402" on="0"/>
        <pt x="428" y="679" on="0"/>
        <pt x="625" y="800" on="1"/>
        <pt x="696" y="768" on="0"/>
        <pt x="733" y="714" on="1"/>
      </contour>
    </TTGlyph>
    <TTGlyph name="fraction" xMin="34" yMin="-3" xMax="528" yMax="806">
      <contour>
        <pt x="522" y="749" on="1"/>
        <pt x="109" y="37" on="1"/>
        <pt x="108" y="35" on="0"/>
        <pt x="103" y="25" on="0"/>
        <pt x="100" y="21" on="0"/>
        <pt x="95" y="12" on="0"/>
        <pt x="91" y="8" on="0"/>
        <pt x="85" y="2" on="0"/>
        <pt x="79" y="-1" on="0"/>
        <pt x="71" y="-3" on="0"/>
        <pt x="67" y="-3" on="1"/>
        <pt x="34" y="-3" on="0"/>
        <pt x="34" y="32" on="1"/>
        <pt x="34" y="61" on="0"/>
        <pt x="461" y="786" on="1"/>
        <pt x="473" y="806" on="0"/>
        <pt x="493" y="806" on="1"/>
        <pt x="528" y="797" on="0"/>
        <pt x="528" y="772" on="1"/>
        <pt x="528" y="762" on="0"/>
      </contour>
    </TTGlyph>
    <TTGlyph name="g" xMin="146" yMin="0" xMax="701" yMax="800">
      <contour>
        <pt x="638" y="782" on="1"/>
        <pt x="701" y="731" on="0"/>
        <pt x="701" y="657" on="1"/>
        <pt x="701" y="597" on="0"/>
        <pt x="613" y="452" on="0"/>
        <pt x="554" y="409" on="1"/>
        <pt x="513" y="489" on="1"/>
        <pt x="558" y="555" on="0"/>
        <pt x="580" y="600" on="0"/>
        <pt x="580" y="627" on="1"/>
        <pt x="580" y="680" on="0"/>
        <pt x="546" y="680" on="1"/>
        <pt x="501" y="680" on="0"/>
        <pt x="362" y="494" on="0"/>
        <pt x="257" y="251" on="0"/>
        <pt x="257" y="177" on="1"/>
        <pt x="257" y="139" on="0"/>
        <pt x="286" y="95" on="0"/>
        <pt x="309" y="95" on="1"/>
        <pt x="340" y="95" on="0"/>
        <pt x="409" y="166" on="0"/>
        <pt x="431" y="221" on="1"/>
        <pt x="410" y="217" on="0"/>
        <pt x="373" y="203" on="1"/>
        <pt x="366" y="227" on="0"/>
        <pt x="366" y="249" on="1"/>
        <pt x="366" y="272" on="0"/>
        <pt x="375" y="295" on="1"/>
        <pt x="499" y="360" on="0"/>
        <pt x="651" y="360" on="1"/>
        <pt x="658" y="350" on="0"/>
        <pt x="658" y="318" on="1"/>
        <pt x="658" y="294" on="0"/>
        <pt x="650" y="268" on="1"/>
        <pt x="606" y="267" on="0"/>
        <pt x="573" y="255" on="1"/>
        <pt x="532" y="139" on="0"/>
        <pt x="398" y="0" on="0"/>
        <pt x="325" y="0" on="1"/>
        <pt x="244" y="0" on="0"/>
        <pt x="146" y="117" on="0"/>
        <pt x="146" y="213" on="1"/>
        <pt x="146" y="346" on="0"/>
        <pt x="285" y="625" on="0"/>
        <pt x="480" y="800" on="0"/>
        <pt x="563" y="800" on="1"/>
        <pt x="602" y="800" on="0"/>
      </contour>
    </TTGlyph>
    <TTGlyph name="germandbls" xMin="114" yMin="0" xMax="1242" yMax="799">
      <contour>
        <pt x="1174" y="781" on="1"/>
        <pt x="1242" y="746" on="0"/>
        <pt x="1242" y="675" on="1"/>
        <pt x="1242" y="585" on="0"/>
        <pt x="1159" y="496" on="1"/>
        <pt x="1058" y="550" on="1"/>
        <pt x="1111" y="635" on="0"/>
        <pt x="1111" y="657" on="1"/>
        <pt x="1111" y="674" on="0"/>
        <pt x="1092" y="674" on="1"/>
        <pt x="1047" y="674" on="0"/>
        <pt x="923" y="552" on="0"/>
        <pt x="923" y="501" on="1"/>
        <pt x="923" y="467" on="0"/>
        <pt x="951" y="443" on="1"/>
        <pt x="1053" y="393" on="0"/>
        <pt x="1145" y="278" on="0"/>
        <pt x="1146" y="196" on="1"/>
        <pt x="1131" y="102" on="0"/>
        <pt x="986" y="0" on="0"/>
        <pt x="870" y="0" on="1"/>
        <pt x="753" y="0" on="0"/>
        <pt x="665" y="44" on="1"/>
        <pt x="664" y="49" on="0"/>
        <pt x="664" y="58" on="1"/>
        <pt x="664" y="95" on="0"/>
        <pt x="703" y="155" on="1"/>
        <pt x="819" y="115" on="0"/>
        <pt x="893" y="115" on="1"/>
        <pt x="1000" y="115" on="0"/>
        <pt x="1000" y="204" on="1"/>
        <pt x="1000" y="248" on="0"/>
        <pt x="950" y="289" on="1"/>
        <pt x="938" y="298" on="0"/>
        <pt x="842" y="354" on="1"/>
        <pt x="769" y="397" on="0"/>
        <pt x="769" y="469" on="1"/>
        <pt x="769" y="507" on="0"/>
        <pt x="795" y="565" on="1"/>
        <pt x="842" y="669" on="0"/>
        <pt x="1009" y="799" on="0"/>
        <pt x="1093" y="799" on="1"/>
        <pt x="1136" y="799" on="0"/>
      </contour>
      <contour>
        <pt x="624" y="781" on="1"/>
        <pt x="692" y="746" on="0"/>
        <pt x="692" y="675" on="1"/>
        <pt x="692" y="585" on="0"/>
        <pt x="609" y="496" on="1"/>
        <pt x="508" y="550" on="1"/>
        <pt x="561" y="635" on="0"/>
        <pt x="561" y="657" on="1"/>
        <pt x="561" y="674" on="0"/>
        <pt x="542" y="674" on="1"/>
        <pt x="497" y="674" on="0"/>
        <pt x="373" y="552" on="0"/>
        <pt x="373" y="501" on="1"/>
        <pt x="373" y="467" on="0"/>
        <pt x="401" y="443" on="1"/>
        <pt x="503" y="393" on="0"/>
        <pt x="595" y="278" on="0"/>
        <pt x="596" y="196" on="1"/>
        <pt x="581" y="102" on="0"/>
        <pt x="436" y="0" on="0"/>
        <pt x="320" y="0" on="1"/>
        <pt x="203" y="0" on="0"/>
        <pt x="115" y="44" on="1"/>
        <pt x="114" y="49" on="0"/>
        <pt x="114" y="58" on="1"/>
        <pt x="114" y="95" on="0"/>
        <pt x="153" y="155" on="1"/>
        <pt x="269" y="115" on="0"/>
        <pt x="343" y="115" on="1"/>
        <pt x="450" y="115" on="0"/>
        <pt x="450" y="204" on="1"/>
        <pt x="450" y="248" on="0"/>
        <pt x="400" y="289" on="1"/>
        <pt x="388" y="298" on="0"/>
        <pt x="292" y="354" on="1"/>
        <pt x="219" y="397" on="0"/>
        <pt x="219" y="469" on="1"/>
        <pt x="219" y="507" on="0"/>
        <pt x="245" y="565" on="1"/>
        <pt x="292" y="669" on="0"/>
        <pt x="459" y="799" on="0"/>
        <pt x="543" y="799" on="1"/>
        <pt x="586" y="799" on="0"/>
      </contour>
    </TTGlyph>
    <TTGlyph name="grave" xMin="381" yMin="831" xMax="538" yMax="1008">
      <contour>
        <pt x="500" y="831" on="1"/>
        <pt x="492" y="832" on="1"/>
        <pt x="448" y="888" on="0"/>
        <pt x="381" y="970" on="1"/>
        <pt x="392" y="995" on="0"/>
        <pt x="424" y="1008" on="1"/>
        <pt x="495" y="946" on="0"/>
        <pt x="538" y="863" on="1"/>
        <pt x="527" y="840" on="0"/>
      </contour>
    </TTGlyph>
    <TTGlyph name="greater" xMin="250" yMin="175" xMax="925" yMax="631">
      <contour>
        <pt x="906" y="274" on="1"/>
        <pt x="346" y="175" on="1"/>
        <pt x="346" y="245" on="0"/>
        <pt x="369" y="282" on="1"/>
        <pt x="527" y="347" on="0"/>
        <pt x="775" y="368" on="1"/>
        <pt x="468" y="495" on="0"/>
        <pt x="250" y="519" on="1"/>
        <pt x="250" y="580" on="0"/>
        <pt x="275" y="631" on="1"/>
        <pt x="425" y="615" on="0"/>
        <pt x="608" y="545" on="1"/>
        <pt x="699" y="511" on="0"/>
        <pt x="924" y="405" on="1"/>
        <pt x="924" y="400" on="0"/>
        <pt x="925" y="381" on="0"/>
        <pt x="925" y="377" on="1"/>
        <pt x="925" y="314" on="0"/>
      </contour>
    </TTGlyph>
    <TTGlyph name="guillemotleft" xMin="183" yMin="275" xMax="897" yMax="531">
      <contour>
        <pt x="508" y="275" on="1"/>
        <pt x="194" y="330" on="1"/>
        <pt x="183" y="349" on="0"/>
        <pt x="183" y="405" on="1"/>
        <pt x="315" y="466" on="0"/>
        <pt x="360" y="483" on="1"/>
        <pt x="464" y="522" on="0"/>
        <pt x="548" y="531" on="1"/>
        <pt x="563" y="501" on="0"/>
        <pt x="563" y="469" on="1"/>
        <pt x="441" y="456" on="0"/>
        <pt x="267" y="383" on="1"/>
        <pt x="408" y="371" on="0"/>
        <pt x="495" y="335" on="1"/>
        <pt x="508" y="313" on="0"/>
      </contour>
      <contour>
        <pt x="842" y="275" on="1"/>
        <pt x="527" y="330" on="1"/>
        <pt x="516" y="349" on="0"/>
        <pt x="516" y="405" on="1"/>
        <pt x="631" y="459" on="0"/>
        <pt x="694" y="483" on="1"/>
        <pt x="798" y="522" on="0"/>
        <pt x="882" y="531" on="1"/>
        <pt x="897" y="501" on="0"/>
        <pt x="897" y="469" on="1"/>
        <pt x="776" y="456" on="0"/>
        <pt x="600" y="383" on="1"/>
        <pt x="742" y="371" on="0"/>
        <pt x="829" y="335" on="1"/>
        <pt x="842" y="310" on="0"/>
      </contour>
    </TTGlyph>
    <TTGlyph name="guillemotright" xMin="220" yMin="275" xMax="934" yMax="531">
      <contour>
        <pt x="923" y="330" on="1"/>
        <pt x="609" y="275" on="1"/>
        <pt x="609" y="314" on="0"/>
        <pt x="621" y="335" on="1"/>
        <pt x="708" y="371" on="0"/>
        <pt x="850" y="383" on="1"/>
        <pt x="682" y="454" on="0"/>
        <pt x="553" y="469" on="1"/>
        <pt x="553" y="501" on="0"/>
        <pt x="568" y="531" on="1"/>
        <pt x="648" y="523" on="0"/>
        <pt x="762" y="483" on="0"/>
        <pt x="934" y="405" on="1"/>
        <pt x="934" y="351" on="0"/>
      </contour>
      <contour>
        <pt x="589" y="330" on="1"/>
        <pt x="276" y="275" on="1"/>
        <pt x="276" y="314" on="0"/>
        <pt x="288" y="335" on="1"/>
        <pt x="374" y="371" on="0"/>
        <pt x="516" y="383" on="1"/>
        <pt x="348" y="454" on="0"/>
        <pt x="220" y="469" on="1"/>
        <pt x="220" y="501" on="0"/>
        <pt x="235" y="531" on="1"/>
        <pt x="316" y="522" on="0"/>
        <pt x="431" y="482" on="0"/>
        <pt x="600" y="405" on="1"/>
        <pt x="600" y="352" on="0"/>
      </contour>
    </TTGlyph>
    <TTGlyph name="h" xMin="53" yMin="0" xMax="768" yMax="800">
      <contour>
        <pt x="349" y="800" on="1"/>
        <pt x="367" y="798" on="0"/>
        <pt x="436" y="745" on="0"/>
        <pt x="455" y="716" on="1"/>
        <pt x="333" y="423" on="1"/>
        <pt x="506" y="423" on="1"/>
        <pt x="660" y="800" on="1"/>
        <pt x="678" y="798" on="0"/>
        <pt x="748" y="745" on="0"/>
        <pt x="768" y="716" on="1"/>
        <pt x="470" y="0" on="1"/>
        <pt x="393" y="21" on="0"/>
        <pt x="364" y="75" on="1"/>
        <pt x="458" y="306" on="1"/>
        <pt x="284" y="306" on="1"/>
        <pt x="158" y="0" on="1"/>
        <pt x="80" y="22" on="0"/>
        <pt x="53" y="75" on="1"/>
      </contour>
    </TTGlyph>
    <TTGlyph name="hyphen" xMin="186" yMin="336" xMax="526" yMax="498">
      <contour>
        <pt x="186" y="424" on="1"/>
        <pt x="186" y="434" on="0"/>
        <pt x="213" y="444" on="1"/>
        <pt x="244" y="455" on="0"/>
        <pt x="475" y="498" on="0"/>
        <pt x="508" y="498" on="1"/>
        <pt x="526" y="460" on="0"/>
        <pt x="526" y="435" on="1"/>
        <pt x="526" y="415" on="0"/>
        <pt x="519" y="397" on="1"/>
        <pt x="416" y="378" on="0"/>
        <pt x="330" y="358" on="1"/>
        <pt x="280" y="344" on="1"/>
        <pt x="252" y="336" on="0"/>
        <pt x="229" y="336" on="1"/>
        <pt x="204" y="336" on="0"/>
        <pt x="186" y="373" on="0"/>
      </contour>
    </TTGlyph>
    <TTGlyph name="i" xMin="52" yMin="0" xMax="454" yMax="800">
      <contour>
        <pt x="348" y="800" on="1"/>
        <pt x="366" y="798" on="0"/>
        <pt x="435" y="745" on="0"/>
        <pt x="454" y="716" on="1"/>
        <pt x="157" y="0" on="1"/>
        <pt x="79" y="21" on="0"/>
        <pt x="52" y="75" on="1"/>
      </contour>
    </TTGlyph>
    <TTGlyph name="iacute" xMin="52" yMin="0" xMax="571" yMax="1008">
      <contour>
        <pt x="571" y="970" on="1"/>
        <pt x="522" y="904" on="0"/>
        <pt x="460" y="832" on="1"/>
        <pt x="419" y="832" on="0"/>
        <pt x="414" y="863" on="1"/>
        <pt x="428" y="889" on="0"/>
        <pt x="507" y="991" on="0"/>
        <pt x="528" y="1008" on="1"/>
        <pt x="560" y="995" on="0"/>
      </contour>
      <contour>
        <pt x="348" y="800" on="1"/>
        <pt x="366" y="798" on="0"/>
        <pt x="435" y="745" on="0"/>
        <pt x="454" y="716" on="1"/>
        <pt x="157" y="0" on="1"/>
        <pt x="79" y="21" on="0"/>
        <pt x="52" y="75" on="1"/>
      </contour>
    </TTGlyph>
    <TTGlyph name="icircumflex" xMin="52" yMin="0" xMax="544" yMax="1008">
      <contour>
        <pt x="544" y="981" on="1"/>
        <pt x="484" y="804" on="1"/>
        <pt x="463" y="808" on="0"/>
        <pt x="444" y="829" on="1"/>
        <pt x="458" y="863" on="0"/>
        <pt x="476" y="920" on="1"/>
        <pt x="435" y="860" on="0"/>
        <pt x="402" y="802" on="1"/>
        <pt x="382" y="809" on="0"/>
        <pt x="362" y="830" on="1"/>
        <pt x="420" y="938" on="0"/>
        <pt x="499" y="1008" on="1"/>
        <pt x="528" y="1000" on="0"/>
      </contour>
      <contour>
        <pt x="348" y="800" on="1"/>
        <pt x="366" y="798" on="0"/>
        <pt x="435" y="745" on="0"/>
        <pt x="454" y="716" on="1"/>
        <pt x="157" y="0" on="1"/>
        <pt x="79" y="21" on="0"/>
        <pt x="52" y="75" on="1"/>
      </contour>
    </TTGlyph>
    <TTGlyph name="idieresis" xMin="52" yMin="0" xMax="557" yMax="944">
      <contour>
        <pt x="483" y="907" on="1"/>
        <pt x="483" y="944" on="0"/>
        <pt x="557" y="944" on="0"/>
        <pt x="557" y="907" on="1"/>
        <pt x="557" y="869" on="0"/>
        <pt x="483" y="869" on="0"/>
      </contour>
      <contour>
        <pt x="362" y="907" on="1"/>
        <pt x="362" y="944" on="0"/>
        <pt x="400" y="944" on="1"/>
        <pt x="437" y="944" on="0"/>
        <pt x="437" y="907" on="1"/>
        <pt x="437" y="869" on="0"/>
        <pt x="400" y="869" on="1"/>
        <pt x="362" y="869" on="0"/>
      </contour>
      <contour>
        <pt x="348" y="800" on="1"/>
        <pt x="366" y="798" on="0"/>
        <pt x="435" y="745" on="0"/>
        <pt x="454" y="716" on="1"/>
        <pt x="157" y="0" on="1"/>
        <pt x="79" y="21" on="0"/>
        <pt x="52" y="75" on="1"/>
      </contour>
    </TTGlyph>
    <TTGlyph name="igrave" xMin="52" yMin="0" xMax="512" yMax="1008">
      <contour>
        <pt x="474" y="831" on="1"/>
        <pt x="466" y="832" on="1"/>
        <pt x="422" y="888" on="0"/>
        <pt x="355" y="970" on="1"/>
        <pt x="366" y="995" on="0"/>
        <pt x="398" y="1008" on="1"/>
        <pt x="469" y="946" on="0"/>
        <pt x="512" y="863" on="1"/>
        <pt x="501" y="840" on="0"/>
      </contour>
      <contour>
        <pt x="348" y="800" on="1"/>
        <pt x="366" y="798" on="0"/>
        <pt x="435" y="745" on="0"/>
        <pt x="454" y="716" on="1"/>
        <pt x="157" y="0" on="1"/>
        <pt x="79" y="21" on="0"/>
        <pt x="52" y="75" on="1"/>
      </contour>
    </TTGlyph>
    <TTGlyph name="j" xMin="79" yMin="0" xMax="686" yMax="800">
      <contour>
        <pt x="140" y="23" on="1"/>
        <pt x="79" y="56" on="0"/>
        <pt x="79" y="119" on="1"/>
        <pt x="79" y="149" on="0"/>
        <pt x="94" y="203" on="1"/>
        <pt x="123" y="305" on="1"/>
        <pt x="133" y="307" on="0"/>
        <pt x="157" y="307" on="1"/>
        <pt x="203" y="307" on="0"/>
        <pt x="254" y="291" on="1"/>
        <pt x="254" y="289" on="0"/>
        <pt x="235" y="244" on="0"/>
        <pt x="217" y="190" on="0"/>
        <pt x="217" y="177" on="1"/>
        <pt x="217" y="160" on="0"/>
        <pt x="233" y="126" on="0"/>
        <pt x="246" y="126" on="1"/>
        <pt x="304" y="126" on="0"/>
        <pt x="447" y="462" on="1"/>
        <pt x="536" y="673" on="0"/>
        <pt x="579" y="800" on="1"/>
        <pt x="595" y="800" on="0"/>
        <pt x="666" y="746" on="0"/>
        <pt x="686" y="716" on="1"/>
        <pt x="586" y="448" on="1"/>
        <pt x="496" y="217" on="0"/>
        <pt x="325" y="0" on="0"/>
        <pt x="231" y="0" on="1"/>
        <pt x="186" y="0" on="0"/>
      </contour>
    </TTGlyph>
    <TTGlyph name="k" xMin="55" yMin="0" xMax="750" yMax="800">
      <contour>
        <pt x="679" y="784" on="1"/>
        <pt x="693" y="778" on="0"/>
        <pt x="742" y="698" on="0"/>
        <pt x="750" y="666" on="1"/>
        <pt x="575" y="535" on="0"/>
        <pt x="375" y="320" on="1"/>
        <pt x="462" y="184" on="0"/>
        <pt x="580" y="41" on="1"/>
        <pt x="571" y="28" on="0"/>
        <pt x="488" y="0" on="0"/>
        <pt x="453" y="0" on="1"/>
        <pt x="381" y="76" on="0"/>
        <pt x="284" y="235" on="1"/>
        <pt x="227" y="171" on="1"/>
        <pt x="158" y="4" on="1"/>
        <pt x="83" y="25" on="0"/>
        <pt x="55" y="80" on="1"/>
        <pt x="350" y="800" on="1"/>
        <pt x="366" y="800" on="0"/>
        <pt x="434" y="746" on="0"/>
        <pt x="455" y="716" on="1"/>
        <pt x="353" y="472" on="1"/>
        <pt x="514" y="649" on="0"/>
      </contour>
    </TTGlyph>
    <TTGlyph name="l" xMin="67" yMin="0" xMax="478" yMax="800">
      <contour>
        <pt x="430" y="49" on="1"/>
        <pt x="105" y="0" on="1"/>
        <pt x="89" y="12" on="0"/>
        <pt x="67" y="70" on="0"/>
        <pt x="67" y="97" on="1"/>
        <pt x="67" y="121" on="0"/>
        <pt x="78" y="134" on="1"/>
        <pt x="369" y="800" on="1"/>
        <pt x="446" y="779" on="0"/>
        <pt x="478" y="720" on="1"/>
        <pt x="249" y="160" on="1"/>
        <pt x="413" y="179" on="1"/>
        <pt x="431" y="128" on="0"/>
        <pt x="431" y="75" on="1"/>
        <pt x="431" y="58" on="0"/>
      </contour>
    </TTGlyph>
    <TTGlyph name="less" xMin="177" yMin="175" xMax="857" yMax="631">
      <contour>
        <pt x="758" y="175" on="1"/>
        <pt x="200" y="274" on="1"/>
        <pt x="177" y="315" on="0"/>
        <pt x="177" y="359" on="1"/>
        <pt x="177" y="381" on="0"/>
        <pt x="183" y="405" on="1"/>
        <pt x="382" y="500" on="0"/>
        <pt x="498" y="545" on="1"/>
        <pt x="681" y="615" on="0"/>
        <pt x="831" y="631" on="1"/>
        <pt x="857" y="579" on="0"/>
        <pt x="857" y="519" on="1"/>
        <pt x="636" y="495" on="0"/>
        <pt x="330" y="368" on="1"/>
        <pt x="575" y="349" on="0"/>
        <pt x="737" y="282" on="1"/>
        <pt x="758" y="244" on="0"/>
      </contour>
    </TTGlyph>
    <TTGlyph name="m" xMin="31" yMin="0" xMax="930" yMax="800">
      <contour>
        <pt x="773" y="800" on="1"/>
        <pt x="874" y="783" on="0"/>
        <pt x="930" y="732" on="1"/>
        <pt x="789" y="15" on="1"/>
        <pt x="777" y="15" on="1"/>
        <pt x="703" y="15" on="0"/>
        <pt x="660" y="67" on="1"/>
        <pt x="667" y="103" on="0"/>
        <pt x="704" y="272" on="0"/>
        <pt x="713" y="319" on="1"/>
        <pt x="767" y="602" on="1"/>
        <pt x="731" y="556" on="0"/>
        <pt x="534" y="156" on="0"/>
        <pt x="473" y="3" on="1"/>
        <pt x="466" y="0" on="0"/>
        <pt x="456" y="0" on="1"/>
        <pt x="428" y="0" on="0"/>
        <pt x="350" y="37" on="0"/>
        <pt x="336" y="57" on="1"/>
        <pt x="350" y="98" on="0"/>
        <pt x="389" y="269" on="0"/>
        <pt x="418" y="424" on="0"/>
        <pt x="442" y="560" on="0"/>
        <pt x="443" y="563" on="1"/>
        <pt x="401" y="509" on="0"/>
        <pt x="210" y="133" on="0"/>
        <pt x="159" y="6" on="1"/>
        <pt x="95" y="21" on="0"/>
        <pt x="31" y="77" on="1"/>
        <pt x="192" y="477" on="0"/>
        <pt x="453" y="779" on="1"/>
        <pt x="554" y="762" on="0"/>
        <pt x="610" y="711" on="1"/>
        <pt x="554" y="457" on="1"/>
        <pt x="720" y="741" on="0"/>
      </contour>
    </TTGlyph>
    <TTGlyph name="minus" xMin="180" yMin="330" xMax="734" yMax="478">
      <contour>
        <pt x="199" y="431" on="1"/>
        <pt x="507" y="431" on="0"/>
        <pt x="725" y="478" on="1"/>
        <pt x="734" y="454" on="0"/>
        <pt x="734" y="433" on="1"/>
        <pt x="734" y="403" on="0"/>
        <pt x="718" y="378" on="1"/>
        <pt x="495" y="330" on="0"/>
        <pt x="248" y="330" on="1"/>
        <pt x="207" y="330" on="0"/>
        <pt x="187" y="331" on="1"/>
        <pt x="180" y="374" on="0"/>
        <pt x="180" y="382" on="1"/>
        <pt x="180" y="409" on="0"/>
      </contour>
    </TTGlyph>
    <TTGlyph name="multiply" xMin="174" yMin="162" xMax="580" yMax="646">
      <contour>
        <pt x="364" y="627" on="1"/>
        <pt x="381" y="542" on="0"/>
        <pt x="398" y="485" on="1"/>
        <pt x="468" y="571" on="0"/>
        <pt x="515" y="646" on="1"/>
        <pt x="566" y="624" on="0"/>
        <pt x="580" y="570" on="1"/>
        <pt x="519" y="474" on="0"/>
        <pt x="434" y="374" on="1"/>
        <pt x="470" y="284" on="0"/>
        <pt x="507" y="210" on="1"/>
        <pt x="489" y="178" on="0"/>
        <pt x="420" y="163" on="1"/>
        <pt x="381" y="238" on="0"/>
        <pt x="361" y="287" on="1"/>
        <pt x="295" y="214" on="0"/>
        <pt x="237" y="162" on="1"/>
        <pt x="189" y="183" on="0"/>
        <pt x="174" y="240" on="1"/>
        <pt x="251" y="312" on="0"/>
        <pt x="320" y="391" on="1"/>
        <pt x="282" y="501" on="0"/>
        <pt x="262" y="601" on="1"/>
        <pt x="281" y="632" on="0"/>
        <pt x="325" y="632" on="1"/>
        <pt x="341" y="632" on="0"/>
      </contour>
    </TTGlyph>
    <TTGlyph name="n" xMin="57" yMin="0" xMax="838" yMax="800">
      <contour>
        <pt x="715" y="800" on="1"/>
        <pt x="757" y="789" on="0"/>
        <pt x="769" y="783" on="0"/>
        <pt x="838" y="744" on="1"/>
        <pt x="794" y="678" on="0"/>
        <pt x="660" y="376" on="1"/>
        <pt x="546" y="118" on="0"/>
        <pt x="506" y="10" on="1"/>
        <pt x="489" y="5" on="0"/>
        <pt x="468" y="5" on="1"/>
        <pt x="426" y="5" on="0"/>
        <pt x="344" y="31" on="0"/>
        <pt x="343" y="48" on="1"/>
        <pt x="383" y="481" on="1"/>
        <pt x="353" y="437" on="0"/>
        <pt x="232" y="140" on="0"/>
        <pt x="188" y="0" on="1"/>
        <pt x="120" y="11" on="0"/>
        <pt x="57" y="57" on="1"/>
        <pt x="219" y="512" on="0"/>
        <pt x="399" y="795" on="1"/>
        <pt x="496" y="788" on="0"/>
        <pt x="553" y="744" on="1"/>
        <pt x="510" y="351" on="1"/>
        <pt x="604" y="582" on="1"/>
        <pt x="674" y="746" on="0"/>
      </contour>
    </TTGlyph>
    <TTGlyph name="nine" xMin="110" yMin="0" xMax="778" yMax="846">
      <contour>
        <pt x="485" y="392" on="1"/>
        <pt x="539" y="392" on="0"/>
        <pt x="618" y="510" on="0"/>
        <pt x="618" y="583" on="1"/>
        <pt x="618" y="633" on="0"/>
        <pt x="572" y="709" on="0"/>
        <pt x="536" y="709" on="1"/>
        <pt x="479" y="709" on="0"/>
        <pt x="389" y="559" on="0"/>
        <pt x="389" y="479" on="1"/>
        <pt x="389" y="438" on="0"/>
        <pt x="442" y="392" on="0"/>
      </contour>
      <contour>
        <pt x="110" y="158" on="1"/>
        <pt x="154" y="201" on="1"/>
        <pt x="186" y="232" on="0"/>
        <pt x="201" y="232" on="1"/>
        <pt x="209" y="232" on="0"/>
        <pt x="216" y="225" on="1"/>
        <pt x="229" y="186" on="0"/>
        <pt x="324" y="129" on="0"/>
        <pt x="369" y="129" on="1"/>
        <pt x="437" y="129" on="0"/>
        <pt x="539" y="230" on="0"/>
        <pt x="557" y="315" on="1"/>
        <pt x="520" y="267" on="0"/>
        <pt x="450" y="267" on="1"/>
        <pt x="366" y="267" on="0"/>
        <pt x="250" y="405" on="0"/>
        <pt x="250" y="497" on="1"/>
        <pt x="250" y="578" on="0"/>
        <pt x="335" y="740" on="0"/>
        <pt x="474" y="846" on="0"/>
        <pt x="547" y="846" on="1"/>
        <pt x="645" y="846" on="0"/>
        <pt x="778" y="682" on="0"/>
        <pt x="778" y="568" on="1"/>
        <pt x="778" y="500" on="0"/>
        <pt x="762" y="407" on="1"/>
        <pt x="735" y="243" on="0"/>
        <pt x="504" y="0" on="0"/>
        <pt x="369" y="0" on="1"/>
        <pt x="217" y="0" on="0"/>
      </contour>
    </TTGlyph>
    <TTGlyph name="ntilde" xMin="57" yMin="0" xMax="838" yMax="956">
      <contour>
        <pt x="496" y="881" on="1"/>
        <pt x="496" y="905" on="0"/>
        <pt x="548" y="951" on="0"/>
        <pt x="573" y="951" on="1"/>
        <pt x="594" y="951" on="0"/>
        <pt x="704" y="901" on="0"/>
        <pt x="708" y="901" on="1"/>
        <pt x="718" y="901" on="0"/>
        <pt x="730" y="918" on="0"/>
        <pt x="734" y="939" on="0"/>
        <pt x="748" y="956" on="0"/>
        <pt x="760" y="956" on="1"/>
        <pt x="786" y="956" on="0"/>
        <pt x="786" y="931" on="1"/>
        <pt x="786" y="893" on="0"/>
        <pt x="740" y="849" on="0"/>
        <pt x="700" y="849" on="1"/>
        <pt x="684" y="849" on="0"/>
        <pt x="594" y="893" on="0"/>
        <pt x="586" y="893" on="1"/>
        <pt x="574" y="893" on="0"/>
        <pt x="531" y="849" on="0"/>
        <pt x="523" y="849" on="1"/>
        <pt x="498" y="849" on="0"/>
      </contour>
      <contour>
        <pt x="715" y="800" on="1"/>
        <pt x="757" y="789" on="0"/>
        <pt x="769" y="783" on="0"/>
        <pt x="838" y="744" on="1"/>
        <pt x="794" y="678" on="0"/>
        <pt x="660" y="376" on="1"/>
        <pt x="546" y="118" on="0"/>
        <pt x="506" y="10" on="1"/>
        <pt x="489" y="5" on="0"/>
        <pt x="468" y="5" on="1"/>
        <pt x="426" y="5" on="0"/>
        <pt x="344" y="31" on="0"/>
        <pt x="343" y="48" on="1"/>
        <pt x="383" y="481" on="1"/>
        <pt x="353" y="437" on="0"/>
        <pt x="232" y="140" on="0"/>
        <pt x="188" y="0" on="1"/>
        <pt x="120" y="11" on="0"/>
        <pt x="57" y="57" on="1"/>
        <pt x="219" y="512" on="0"/>
        <pt x="399" y="795" on="1"/>
        <pt x="496" y="788" on="0"/>
        <pt x="553" y="744" on="1"/>
        <pt x="510" y="351" on="1"/>
        <pt x="604" y="582" on="1"/>
        <pt x="674" y="746" on="0"/>
      </contour>
    </TTGlyph>
    <TTGlyph name="numbersign" xMin="116" yMin="35" xMax="781" yMax="706">
      <contour>
        <pt x="181" y="409" on="1"/>
        <pt x="373" y="493" on="1"/>
        <pt x="381" y="510" on="0"/>
        <pt x="405" y="563" on="0"/>
        <pt x="419" y="593" on="0"/>
        <pt x="438" y="625" on="0"/>
        <pt x="455" y="639" on="0"/>
        <pt x="464" y="639" on="1"/>
        <pt x="490" y="639" on="0"/>
        <pt x="490" y="617" on="1"/>
        <pt x="490" y="612" on="0"/>
        <pt x="486" y="598" on="1"/>
        <pt x="448" y="525" on="1"/>
        <pt x="586" y="583" on="1"/>
        <pt x="634" y="706" on="0"/>
        <pt x="664" y="706" on="1"/>
        <pt x="688" y="702" on="0"/>
        <pt x="688" y="680" on="1"/>
        <pt x="688" y="670" on="0"/>
        <pt x="686" y="665" on="1"/>
        <pt x="662" y="615" on="1"/>
        <pt x="743" y="651" on="0"/>
        <pt x="754" y="651" on="1"/>
        <pt x="781" y="651" on="0"/>
        <pt x="781" y="630" on="1"/>
        <pt x="781" y="612" on="0"/>
        <pt x="710" y="577" on="0"/>
        <pt x="626" y="546" on="1"/>
        <pt x="540" y="375" on="1"/>
        <pt x="702" y="443" on="0"/>
        <pt x="707" y="443" on="1"/>
        <pt x="734" y="443" on="0"/>
        <pt x="734" y="421" on="1"/>
        <pt x="734" y="392" on="0"/>
        <pt x="511" y="307" on="1"/>
        <pt x="507" y="305" on="0"/>
        <pt x="504" y="304" on="1"/>
        <pt x="456" y="196" on="1"/>
        <pt x="409" y="101" on="0"/>
        <pt x="384" y="101" on="1"/>
        <pt x="363" y="101" on="0"/>
        <pt x="363" y="124" on="1"/>
        <pt x="363" y="149" on="0"/>
        <pt x="432" y="272" on="1"/>
        <pt x="291" y="211" on="1"/>
        <pt x="217" y="35" on="0"/>
        <pt x="184" y="35" on="1"/>
        <pt x="162" y="35" on="0"/>
        <pt x="162" y="57" on="1"/>
        <pt x="164" y="79" on="0"/>
        <pt x="188" y="123" on="1"/>
        <pt x="219" y="179" on="1"/>
        <pt x="147" y="148" on="0"/>
        <pt x="136" y="148" on="1"/>
        <pt x="116" y="148" on="0"/>
        <pt x="116" y="168" on="1"/>
        <pt x="118" y="184" on="0"/>
        <pt x="132" y="200" on="1"/>
        <pt x="255" y="252" on="1"/>
        <pt x="337" y="419" on="1"/>
        <pt x="194" y="356" on="0"/>
        <pt x="186" y="356" on="1"/>
        <pt x="165" y="356" on="0"/>
        <pt x="165" y="378" on="1"/>
        <pt x="165" y="392" on="0"/>
      </contour>
      <contour>
        <pt x="412" y="453" on="1"/>
        <pt x="327" y="283" on="1"/>
        <pt x="467" y="343" on="1"/>
        <pt x="551" y="513" on="1"/>
      </contour>
    </TTGlyph>
    <TTGlyph name="o" xMin="153" yMin="0" xMax="740" yMax="800">
      <contour>
        <pt x="587" y="665" on="1"/>
        <pt x="575" y="693" on="0"/>
        <pt x="553" y="693" on="1"/>
        <pt x="510" y="693" on="0"/>
        <pt x="384" y="509" on="0"/>
        <pt x="292" y="272" on="0"/>
        <pt x="292" y="199" on="1"/>
        <pt x="292" y="161" on="0"/>
        <pt x="315" y="114" on="0"/>
        <pt x="335" y="114" on="1"/>
        <pt x="378" y="114" on="0"/>
        <pt x="505" y="295" on="0"/>
        <pt x="597" y="532" on="0"/>
        <pt x="597" y="607" on="1"/>
        <pt x="597" y="642" on="0"/>
      </contour>
      <contour>
        <pt x="634" y="780" on="1"/>
        <pt x="740" y="726" on="0"/>
        <pt x="740" y="571" on="1"/>
        <pt x="740" y="471" on="0"/>
        <pt x="661" y="260" on="0"/>
        <pt x="542" y="102" on="0"/>
        <pt x="399" y="0" on="0"/>
        <pt x="338" y="0" on="1"/>
        <pt x="252" y="0" on="0"/>
        <pt x="153" y="126" on="0"/>
        <pt x="153" y="226" on="1"/>
        <pt x="153" y="327" on="0"/>
        <pt x="232" y="539" on="0"/>
        <pt x="351" y="698" on="0"/>
        <pt x="494" y="800" on="0"/>
        <pt x="555" y="800" on="1"/>
        <pt x="596" y="800" on="0"/>
      </contour>
    </TTGlyph>
    <TTGlyph name="oacute" xMin="153" yMin="0" xMax="765" yMax="1008">
      <contour>
        <pt x="765" y="970" on="1"/>
        <pt x="716" y="904" on="0"/>
        <pt x="654" y="832" on="1"/>
        <pt x="613" y="832" on="0"/>
        <pt x="608" y="863" on="1"/>
        <pt x="622" y="889" on="0"/>
        <pt x="701" y="991" on="0"/>
        <pt x="722" y="1008" on="1"/>
        <pt x="754" y="995" on="0"/>
      </contour>
      <contour>
        <pt x="587" y="665" on="1"/>
        <pt x="575" y="693" on="0"/>
        <pt x="553" y="693" on="1"/>
        <pt x="510" y="693" on="0"/>
        <pt x="384" y="509" on="0"/>
        <pt x="292" y="272" on="0"/>
        <pt x="292" y="199" on="1"/>
        <pt x="292" y="161" on="0"/>
        <pt x="315" y="114" on="0"/>
        <pt x="335" y="114" on="1"/>
        <pt x="378" y="114" on="0"/>
        <pt x="505" y="295" on="0"/>
        <pt x="597" y="532" on="0"/>
        <pt x="597" y="607" on="1"/>
        <pt x="597" y="642" on="0"/>
      </contour>
      <contour>
        <pt x="634" y="780" on="1"/>
        <pt x="740" y="726" on="0"/>
        <pt x="740" y="571" on="1"/>
        <pt x="740" y="471" on="0"/>
        <pt x="661" y="260" on="0"/>
        <pt x="542" y="102" on="0"/>
        <pt x="399" y="0" on="0"/>
        <pt x="338" y="0" on="1"/>
        <pt x="252" y="0" on="0"/>
        <pt x="153" y="126" on="0"/>
        <pt x="153" y="226" on="1"/>
        <pt x="153" y="327" on="0"/>
        <pt x="232" y="539" on="0"/>
        <pt x="351" y="698" on="0"/>
        <pt x="494" y="800" on="0"/>
        <pt x="555" y="800" on="1"/>
        <pt x="596" y="800" on="0"/>
      </contour>
    </TTGlyph>
    <TTGlyph name="ocircumflex" xMin="153" yMin="0" xMax="740" yMax="1008">
      <contour>
        <pt x="737" y="981" on="1"/>
        <pt x="677" y="804" on="1"/>
        <pt x="656" y="808" on="0"/>
        <pt x="637" y="829" on="1"/>
        <pt x="651" y="863" on="0"/>
        <pt x="669" y="920" on="1"/>
        <pt x="628" y="860" on="0"/>
        <pt x="595" y="802" on="1"/>
        <pt x="575" y="809" on="0"/>
        <pt x="555" y="830" on="1"/>
        <pt x="613" y="938" on="0"/>
        <pt x="692" y="1008" on="1"/>
        <pt x="720" y="1000" on="0"/>
      </contour>
      <contour>
        <pt x="587" y="665" on="1"/>
        <pt x="575" y="693" on="0"/>
        <pt x="553" y="693" on="1"/>
        <pt x="510" y="693" on="0"/>
        <pt x="384" y="509" on="0"/>
        <pt x="292" y="272" on="0"/>
        <pt x="292" y="199" on="1"/>
        <pt x="292" y="161" on="0"/>
        <pt x="315" y="114" on="0"/>
        <pt x="335" y="114" on="1"/>
        <pt x="378" y="114" on="0"/>
        <pt x="505" y="295" on="0"/>
        <pt x="597" y="532" on="0"/>
        <pt x="597" y="607" on="1"/>
        <pt x="597" y="642" on="0"/>
      </contour>
      <contour>
        <pt x="634" y="780" on="1"/>
        <pt x="740" y="726" on="0"/>
        <pt x="740" y="571" on="1"/>
        <pt x="740" y="471" on="0"/>
        <pt x="661" y="260" on="0"/>
        <pt x="542" y="102" on="0"/>
        <pt x="399" y="0" on="0"/>
        <pt x="338" y="0" on="1"/>
        <pt x="252" y="0" on="0"/>
        <pt x="153" y="126" on="0"/>
        <pt x="153" y="226" on="1"/>
        <pt x="153" y="327" on="0"/>
        <pt x="232" y="539" on="0"/>
        <pt x="351" y="698" on="0"/>
        <pt x="494" y="800" on="0"/>
        <pt x="555" y="800" on="1"/>
        <pt x="596" y="800" on="0"/>
      </contour>
    </TTGlyph>
    <TTGlyph name="odieresis" xMin="153" yMin="0" xMax="750" yMax="944">
      <contour>
        <pt x="676" y="907" on="1"/>
        <pt x="676" y="944" on="0"/>
        <pt x="750" y="944" on="0"/>
        <pt x="750" y="907" on="1"/>
        <pt x="750" y="869" on="0"/>
        <pt x="676" y="869" on="0"/>
      </contour>
      <contour>
        <pt x="555" y="907" on="1"/>
        <pt x="555" y="944" on="0"/>
        <pt x="593" y="944" on="1"/>
        <pt x="630" y="944" on="0"/>
        <pt x="630" y="907" on="1"/>
        <pt x="630" y="869" on="0"/>
        <pt x="593" y="869" on="1"/>
        <pt x="555" y="869" on="0"/>
      </contour>
      <contour>
        <pt x="587" y="665" on="1"/>
        <pt x="575" y="693" on="0"/>
        <pt x="553" y="693" on="1"/>
        <pt x="510" y="693" on="0"/>
        <pt x="384" y="509" on="0"/>
        <pt x="292" y="272" on="0"/>
        <pt x="292" y="199" on="1"/>
        <pt x="292" y="161" on="0"/>
        <pt x="315" y="114" on="0"/>
        <pt x="335" y="114" on="1"/>
        <pt x="378" y="114" on="0"/>
        <pt x="505" y="295" on="0"/>
        <pt x="597" y="532" on="0"/>
        <pt x="597" y="607" on="1"/>
        <pt x="597" y="642" on="0"/>
      </contour>
      <contour>
        <pt x="634" y="780" on="1"/>
        <pt x="740" y="726" on="0"/>
        <pt x="740" y="571" on="1"/>
        <pt x="740" y="471" on="0"/>
        <pt x="661" y="260" on="0"/>
        <pt x="542" y="102" on="0"/>
        <pt x="399" y="0" on="0"/>
        <pt x="338" y="0" on="1"/>
        <pt x="252" y="0" on="0"/>
        <pt x="153" y="126" on="0"/>
        <pt x="153" y="226" on="1"/>
        <pt x="153" y="327" on="0"/>
        <pt x="232" y="539" on="0"/>
        <pt x="351" y="698" on="0"/>
        <pt x="494" y="800" on="0"/>
        <pt x="555" y="800" on="1"/>
        <pt x="596" y="800" on="0"/>
      </contour>
    </TTGlyph>
    <TTGlyph name="oe" xMin="164" yMin="0" xMax="1022" yMax="802">
      <contour>
        <pt x="543" y="425" on="1"/>
        <pt x="546" y="425" on="1"/>
        <pt x="583" y="533" on="0"/>
        <pt x="583" y="610" on="1"/>
        <pt x="583" y="686" on="0"/>
        <pt x="544" y="686" on="1"/>
        <pt x="462" y="686" on="0"/>
        <pt x="369" y="477" on="1"/>
        <pt x="287" y="292" on="0"/>
        <pt x="287" y="187" on="1"/>
        <pt x="287" y="109" on="0"/>
        <pt x="327" y="109" on="1"/>
        <pt x="369" y="109" on="0"/>
        <pt x="495" y="290" on="0"/>
        <pt x="543" y="418" on="1"/>
      </contour>
      <contour>
        <pt x="664" y="744" on="1"/>
        <pt x="663" y="760" on="1"/>
        <pt x="828" y="802" on="0"/>
        <pt x="915" y="802" on="1"/>
        <pt x="921" y="802" on="1"/>
        <pt x="978" y="801" on="1"/>
        <pt x="1022" y="772" on="0"/>
        <pt x="1022" y="716" on="1"/>
        <pt x="1022" y="692" on="0"/>
        <pt x="1013" y="670" on="1"/>
        <pt x="989" y="676" on="0"/>
        <pt x="964" y="676" on="1"/>
        <pt x="906" y="676" on="0"/>
        <pt x="837" y="650" on="1"/>
        <pt x="757" y="458" on="1"/>
        <pt x="798" y="473" on="0"/>
        <pt x="834" y="473" on="1"/>
        <pt x="841" y="473" on="1"/>
        <pt x="854" y="473" on="0"/>
        <pt x="869" y="471" on="0"/>
        <pt x="888" y="463" on="0"/>
        <pt x="897" y="445" on="0"/>
        <pt x="897" y="430" on="1"/>
        <pt x="897" y="397" on="0"/>
        <pt x="881" y="359" on="1"/>
        <pt x="863" y="359" on="1"/>
        <pt x="772" y="359" on="0"/>
        <pt x="709" y="334" on="1"/>
        <pt x="620" y="131" on="1"/>
        <pt x="713" y="148" on="0"/>
        <pt x="734" y="148" on="1"/>
        <pt x="761" y="148" on="0"/>
        <pt x="803" y="143" on="1"/>
        <pt x="838" y="99" on="0"/>
        <pt x="838" y="48" on="1"/>
        <pt x="838" y="41" on="1"/>
        <pt x="823" y="48" on="0"/>
        <pt x="797" y="48" on="1"/>
        <pt x="742" y="48" on="0"/>
        <pt x="550" y="14" on="0"/>
        <pt x="543" y="0" on="1"/>
        <pt x="495" y="16" on="0"/>
        <pt x="470" y="49" on="1"/>
        <pt x="402" y="0" on="0"/>
        <pt x="334" y="0" on="1"/>
        <pt x="256" y="0" on="0"/>
        <pt x="164" y="137" on="0"/>
        <pt x="164" y="247" on="1"/>
        <pt x="164" y="413" on="0"/>
        <pt x="271" y="595" on="1"/>
        <pt x="391" y="801" on="0"/>
        <pt x="547" y="801" on="1"/>
        <pt x="620" y="801" on="0"/>
      </contour>
    </TTGlyph>
    <TTGlyph name="ograve" xMin="153" yMin="0" xMax="740" yMax="1008">
      <contour>
        <pt x="667" y="831" on="1"/>
        <pt x="659" y="832" on="1"/>
        <pt x="616" y="888" on="0"/>
        <pt x="548" y="970" on="1"/>
        <pt x="559" y="995" on="0"/>
        <pt x="591" y="1008" on="1"/>
        <pt x="662" y="946" on="0"/>
        <pt x="705" y="863" on="1"/>
        <pt x="694" y="840" on="0"/>
      </contour>
      <contour>
        <pt x="587" y="665" on="1"/>
        <pt x="575" y="693" on="0"/>
        <pt x="553" y="693" on="1"/>
        <pt x="510" y="693" on="0"/>
        <pt x="384" y="509" on="0"/>
        <pt x="292" y="272" on="0"/>
        <pt x="292" y="199" on="1"/>
        <pt x="292" y="161" on="0"/>
        <pt x="315" y="114" on="0"/>
        <pt x="335" y="114" on="1"/>
        <pt x="378" y="114" on="0"/>
        <pt x="505" y="295" on="0"/>
        <pt x="597" y="532" on="0"/>
        <pt x="597" y="607" on="1"/>
        <pt x="597" y="642" on="0"/>
      </contour>
      <contour>
        <pt x="634" y="780" on="1"/>
        <pt x="740" y="726" on="0"/>
        <pt x="740" y="571" on="1"/>
        <pt x="740" y="471" on="0"/>
        <pt x="661" y="260" on="0"/>
        <pt x="542" y="102" on="0"/>
        <pt x="399" y="0" on="0"/>
        <pt x="338" y="0" on="1"/>
        <pt x="252" y="0" on="0"/>
        <pt x="153" y="126" on="0"/>
        <pt x="153" y="226" on="1"/>
        <pt x="153" y="327" on="0"/>
        <pt x="232" y="539" on="0"/>
        <pt x="351" y="698" on="0"/>
        <pt x="494" y="800" on="0"/>
        <pt x="555" y="800" on="1"/>
        <pt x="596" y="800" on="0"/>
      </contour>
    </TTGlyph>
    <TTGlyph name="one" xMin="125" yMin="0" xMax="527" yMax="800">
      <contour>
        <pt x="421" y="800" on="1"/>
        <pt x="439" y="798" on="0"/>
        <pt x="507" y="745" on="0"/>
        <pt x="527" y="716" on="1"/>
        <pt x="231" y="0" on="1"/>
        <pt x="154" y="21" on="0"/>
        <pt x="125" y="75" on="1"/>
        <pt x="358" y="645" on="1"/>
        <pt x="334" y="630" on="0"/>
        <pt x="319" y="630" on="1"/>
        <pt x="293" y="630" on="0"/>
        <pt x="293" y="674" on="1"/>
        <pt x="293" y="691" on="0"/>
        <pt x="298" y="726" on="1"/>
      </contour>
    </TTGlyph>
</ttFont>
